<?xml version="1.0" encoding="UTF-8"?>
<svg xmlns="http://www.w3.org/2000/svg" xmlns:xlink="http://www.w3.org/1999/xlink" width="360pt" height="360pt" viewBox="0 0 360 360">
<defs>
<g>
<g id="glyph-0-0">
<path d="M 1.359375 -7.046875 L 1.359375 -8 C 2.265625 -8.082031 2.894531 -8.226562 3.25 -8.4375 C 3.601562 -8.644531 3.867188 -9.132812 4.046875 -9.90625 L 5.03125 -9.90625 L 5.03125 0 L 3.703125 0 L 3.703125 -7.046875 Z M 1.359375 -7.046875 "/>
</g>
<g id="glyph-0-1">
<path d="M 0.4375 0 C 0.488281 -0.851562 0.664062 -1.597656 0.96875 -2.234375 C 1.28125 -2.867188 1.882812 -3.445312 2.78125 -3.96875 L 4.109375 -4.734375 C 4.703125 -5.078125 5.117188 -5.375 5.359375 -5.625 C 5.742188 -6.007812 5.9375 -6.445312 5.9375 -6.9375 C 5.9375 -7.519531 5.757812 -7.976562 5.40625 -8.3125 C 5.0625 -8.65625 4.601562 -8.828125 4.03125 -8.828125 C 3.175781 -8.828125 2.582031 -8.503906 2.25 -7.859375 C 2.070312 -7.515625 1.972656 -7.035156 1.953125 -6.421875 L 0.6875 -6.421875 C 0.695312 -7.285156 0.859375 -7.988281 1.171875 -8.53125 C 1.710938 -9.5 2.664062 -9.984375 4.03125 -9.984375 C 5.164062 -9.984375 5.992188 -9.671875 6.515625 -9.046875 C 7.046875 -8.429688 7.3125 -7.75 7.3125 -7 C 7.3125 -6.195312 7.035156 -5.515625 6.484375 -4.953125 C 6.148438 -4.628906 5.566406 -4.234375 4.734375 -3.765625 L 3.78125 -3.234375 C 3.332031 -2.984375 2.976562 -2.742188 2.71875 -2.515625 C 2.25 -2.117188 1.957031 -1.675781 1.84375 -1.1875 L 7.265625 -1.1875 L 7.265625 0 Z M 0.4375 0 "/>
</g>
<g id="glyph-0-2">
<path d="M 3.6875 0.265625 C 2.519531 0.265625 1.671875 -0.0546875 1.140625 -0.703125 C 0.609375 -1.347656 0.34375 -2.132812 0.34375 -3.0625 L 1.640625 -3.0625 C 1.703125 -2.414062 1.820312 -1.945312 2 -1.65625 C 2.332031 -1.132812 2.921875 -0.875 3.765625 -0.875 C 4.421875 -0.875 4.945312 -1.046875 5.34375 -1.390625 C 5.738281 -1.742188 5.9375 -2.195312 5.9375 -2.75 C 5.9375 -3.4375 5.726562 -3.914062 5.3125 -4.1875 C 4.894531 -4.46875 4.3125 -4.609375 3.5625 -4.609375 C 3.476562 -4.609375 3.394531 -4.601562 3.3125 -4.59375 C 3.226562 -4.59375 3.144531 -4.59375 3.0625 -4.59375 L 3.0625 -5.6875 C 3.1875 -5.675781 3.289062 -5.664062 3.375 -5.65625 C 3.46875 -5.65625 3.566406 -5.65625 3.671875 -5.65625 C 4.128906 -5.65625 4.507812 -5.726562 4.8125 -5.875 C 5.34375 -6.132812 5.609375 -6.597656 5.609375 -7.265625 C 5.609375 -7.765625 5.429688 -8.144531 5.078125 -8.40625 C 4.722656 -8.675781 4.316406 -8.8125 3.859375 -8.8125 C 3.023438 -8.8125 2.445312 -8.535156 2.125 -7.984375 C 1.945312 -7.679688 1.847656 -7.242188 1.828125 -6.671875 L 0.59375 -6.671875 C 0.59375 -7.421875 0.738281 -8.050781 1.03125 -8.5625 C 1.539062 -9.488281 2.4375 -9.953125 3.71875 -9.953125 C 4.726562 -9.953125 5.507812 -9.726562 6.0625 -9.28125 C 6.625 -8.832031 6.90625 -8.175781 6.90625 -7.3125 C 6.90625 -6.707031 6.742188 -6.210938 6.421875 -5.828125 C 6.210938 -5.597656 5.945312 -5.414062 5.625 -5.28125 C 6.144531 -5.132812 6.550781 -4.851562 6.84375 -4.4375 C 7.144531 -4.03125 7.296875 -3.53125 7.296875 -2.9375 C 7.296875 -1.988281 6.984375 -1.21875 6.359375 -0.625 C 5.734375 -0.03125 4.84375 0.265625 3.6875 0.265625 Z M 3.6875 0.265625 "/>
</g>
<g id="glyph-0-3">
<path d="M 4.703125 -3.515625 L 4.703125 -8.03125 L 1.515625 -3.515625 Z M 4.71875 0 L 4.71875 -2.4375 L 0.359375 -2.4375 L 0.359375 -3.65625 L 4.921875 -9.96875 L 5.96875 -9.96875 L 5.96875 -3.515625 L 7.4375 -3.515625 L 7.4375 -2.4375 L 5.96875 -2.4375 L 5.96875 0 Z M 4.71875 0 "/>
</g>
<g id="glyph-0-4">
<path d="M 1.75 -2.53125 C 1.832031 -1.820312 2.164062 -1.332031 2.75 -1.0625 C 3.039062 -0.914062 3.382812 -0.84375 3.78125 -0.84375 C 4.519531 -0.84375 5.066406 -1.078125 5.421875 -1.546875 C 5.773438 -2.023438 5.953125 -2.550781 5.953125 -3.125 C 5.953125 -3.820312 5.738281 -4.359375 5.3125 -4.734375 C 4.894531 -5.109375 4.390625 -5.296875 3.796875 -5.296875 C 3.367188 -5.296875 3 -5.210938 2.6875 -5.046875 C 2.382812 -4.878906 2.125 -4.648438 1.90625 -4.359375 L 0.8125 -4.421875 L 1.578125 -9.78125 L 6.734375 -9.78125 L 6.734375 -8.5625 L 2.515625 -8.5625 L 2.09375 -5.796875 C 2.320312 -5.972656 2.539062 -6.109375 2.75 -6.203125 C 3.125 -6.347656 3.550781 -6.421875 4.03125 -6.421875 C 4.945312 -6.421875 5.71875 -6.128906 6.34375 -5.546875 C 6.976562 -4.960938 7.296875 -4.21875 7.296875 -3.3125 C 7.296875 -2.375 7.003906 -1.546875 6.421875 -0.828125 C 5.847656 -0.109375 4.925781 0.25 3.65625 0.25 C 2.84375 0.25 2.125 0.0195312 1.5 -0.4375 C 0.875 -0.894531 0.523438 -1.59375 0.453125 -2.53125 Z M 1.75 -2.53125 "/>
</g>
</g>
<clipPath id="clip-0">
<path clip-rule="nonzero" d="M 5.480469 5.480469 L 354.523438 5.480469 L 354.523438 354.523438 L 5.480469 354.523438 Z M 5.480469 5.480469 "/>
</clipPath>
</defs>
<rect x="-36" y="-36" width="432" height="432" fill="rgb(100%, 100%, 100%)" fill-opacity="1"/>
<rect x="-36" y="-36" width="432" height="432" fill="rgb(100%, 100%, 100%)" fill-opacity="1"/>
<g clip-path="url(#clip-0)">
<path fill-rule="nonzero" fill="rgb(100%, 100%, 100%)" fill-opacity="1" d="M 5.480469 354.519531 L 354.523438 354.519531 L 354.523438 5.476562 L 5.480469 5.476562 Z M 5.480469 354.519531 "/>
</g>
<path fill="none" stroke-width="1.066978" stroke-linecap="butt" stroke-linejoin="round" stroke="rgb(23.529412%, 57.647059%, 86.27451%)" stroke-opacity="1" stroke-miterlimit="10" d="M 180 148.269531 L 180.316406 148.269531 L 180.632812 148.277344 L 180.953125 148.285156 L 181.269531 148.292969 L 181.902344 148.324219 L 182.535156 148.371094 L 183.167969 148.425781 L 183.484375 148.460938 L 183.796875 148.496094 L 184.113281 148.535156 L 184.425781 148.578125 L 184.742188 148.625 L 185.367188 148.726562 L 185.679688 148.78125 L 185.992188 148.839844 L 186.304688 148.902344 L 186.613281 148.964844 L 186.925781 149.035156 L 187.234375 149.105469 L 187.851562 149.253906 L 188.15625 149.335938 L 188.464844 149.417969 L 188.769531 149.503906 L 189.074219 149.59375 L 189.378906 149.6875 L 189.679688 149.78125 L 189.980469 149.878906 L 190.28125 149.980469 L 190.582031 150.085938 L 190.878906 150.191406 L 191.179688 150.304688 L 191.472656 150.417969 L 191.769531 150.53125 L 192.355469 150.773438 L 192.648438 150.898438 L 193.226562 151.15625 L 193.515625 151.292969 L 194.085938 151.566406 L 194.371094 151.710938 L 194.652344 151.855469 L 194.933594 152.003906 L 195.210938 152.152344 L 195.765625 152.464844 L 196.039062 152.621094 L 196.585938 152.949219 L 196.855469 153.117188 L 197.121094 153.285156 L 197.390625 153.457031 L 197.652344 153.632812 L 197.917969 153.8125 L 198.175781 153.992188 L 198.4375 154.175781 L 198.695312 154.359375 L 198.949219 154.546875 L 199.203125 154.738281 L 199.703125 155.128906 L 199.953125 155.328125 L 200.199219 155.527344 L 200.441406 155.730469 L 200.683594 155.9375 L 200.921875 156.144531 L 201.160156 156.355469 L 201.394531 156.566406 L 201.628906 156.78125 L 202.089844 157.21875 L 202.316406 157.441406 L 202.761719 157.894531 L 202.980469 158.121094 L 203.199219 158.351562 L 203.628906 158.820312 L 203.839844 159.058594 L 204.046875 159.296875 L 204.253906 159.539062 L 204.457031 159.78125 L 204.65625 160.027344 L 204.855469 160.277344 L 205.050781 160.523438 L 205.246094 160.777344 L 205.4375 161.03125 L 205.625 161.285156 L 205.992188 161.800781 L 206.175781 162.0625 L 206.351562 162.324219 L 206.527344 162.589844 L 206.699219 162.855469 L 206.871094 163.125 L 207.039062 163.394531 L 207.203125 163.664062 L 207.523438 164.210938 L 207.835938 164.765625 L 207.984375 165.042969 L 208.132812 165.324219 L 208.277344 165.605469 L 208.421875 165.890625 L 208.5625 166.175781 L 208.699219 166.460938 L 208.832031 166.75 L 209.089844 167.328125 L 209.339844 167.914062 L 209.457031 168.207031 L 209.574219 168.503906 L 209.6875 168.796875 L 209.796875 169.097656 L 209.90625 169.394531 L 210.011719 169.695312 L 210.113281 169.996094 L 210.210938 170.296875 L 210.304688 170.597656 L 210.398438 170.902344 L 210.488281 171.207031 L 210.574219 171.511719 L 210.65625 171.816406 L 210.738281 172.125 L 210.816406 172.433594 L 210.890625 172.742188 L 210.960938 173.050781 L 211.027344 173.359375 L 211.09375 173.671875 L 211.15625 173.984375 L 211.214844 174.292969 L 211.269531 174.605469 L 211.320312 174.917969 L 211.371094 175.234375 L 211.417969 175.546875 L 211.460938 175.863281 L 211.5 176.175781 L 211.570312 176.808594 L 211.601562 177.121094 L 211.628906 177.4375 L 211.652344 177.753906 L 211.671875 178.070312 L 211.691406 178.390625 L 211.714844 179.023438 L 211.730469 179.65625 L 211.730469 180.292969 L 211.726562 180.609375 L 211.71875 180.925781 L 211.707031 181.242188 L 211.691406 181.5625 L 211.675781 181.878906 L 211.65625 182.195312 L 211.632812 182.511719 L 211.605469 182.828125 L 211.574219 183.144531 L 211.542969 183.457031 L 211.464844 184.089844 L 211.425781 184.402344 L 211.378906 184.71875 L 211.277344 185.34375 L 211.222656 185.65625 L 211.164062 185.96875 L 211.101562 186.28125 L 211.039062 186.589844 L 210.972656 186.898438 L 210.902344 187.210938 L 210.828125 187.519531 L 210.75 187.824219 L 210.671875 188.132812 L 210.589844 188.4375 L 210.503906 188.746094 L 210.414062 189.050781 L 210.320312 189.351562 L 210.226562 189.65625 L 210.128906 189.957031 L 210.027344 190.257812 L 209.921875 190.558594 L 209.816406 190.855469 L 209.707031 191.15625 L 209.59375 191.449219 L 209.476562 191.746094 L 209.359375 192.039062 L 209.109375 192.625 L 208.984375 192.914062 L 208.71875 193.492188 L 208.445312 194.0625 L 208.300781 194.347656 L 208.15625 194.628906 L 207.859375 195.191406 L 207.707031 195.46875 L 207.550781 195.746094 L 207.230469 196.292969 L 207.066406 196.5625 L 206.898438 196.832031 L 206.726562 197.101562 L 206.554688 197.367188 L 206.378906 197.632812 L 206.203125 197.894531 L 206.023438 198.15625 L 205.839844 198.417969 L 205.652344 198.675781 L 205.277344 199.183594 L 204.886719 199.683594 L 204.6875 199.933594 L 204.488281 200.179688 L 204.285156 200.421875 L 204.078125 200.664062 L 203.871094 200.902344 L 203.449219 201.378906 L 203.234375 201.609375 L 203.015625 201.84375 L 202.796875 202.070312 L 202.351562 202.523438 L 202.125 202.746094 L 201.898438 202.964844 L 201.664062 203.183594 L 201.433594 203.398438 L 201.199219 203.613281 L 200.960938 203.824219 L 200.722656 204.03125 L 200.480469 204.238281 L 200.238281 204.441406 L 199.992188 204.640625 L 199.742188 204.839844 L 199.496094 205.035156 L 199.242188 205.230469 L 198.988281 205.421875 L 198.734375 205.609375 L 198.476562 205.796875 L 198.21875 205.980469 L 197.695312 206.339844 L 197.429688 206.515625 L 196.898438 206.859375 L 196.628906 207.023438 L 196.355469 207.191406 L 196.085938 207.351562 L 195.808594 207.511719 L 195.535156 207.667969 L 195.257812 207.824219 L 194.976562 207.972656 L 194.699219 208.121094 L 194.414062 208.265625 L 194.132812 208.410156 L 193.847656 208.550781 L 193.5625 208.6875 L 192.984375 208.953125 L 192.695312 209.082031 L 192.402344 209.207031 L 191.816406 209.449219 L 191.519531 209.566406 L 191.226562 209.679688 L 190.929688 209.789062 L 190.628906 209.898438 L 190.328125 210.003906 L 190.027344 210.105469 L 189.425781 210.300781 L 188.816406 210.480469 L 188.207031 210.652344 L 187.589844 210.808594 L 186.972656 210.957031 L 186.664062 211.023438 L 186.351562 211.089844 L 186.042969 211.152344 L 185.730469 211.210938 L 185.417969 211.265625 L 184.792969 211.367188 L 184.476562 211.414062 L 184.164062 211.457031 L 183.847656 211.496094 L 183.535156 211.535156 L 182.902344 211.597656 L 182.585938 211.625 L 181.953125 211.671875 L 181.320312 211.703125 L 181.003906 211.714844 L 180.683594 211.722656 L 180.367188 211.730469 L 179.734375 211.730469 L 179.414062 211.726562 L 179.097656 211.71875 L 178.464844 211.695312 L 177.832031 211.65625 L 177.515625 211.632812 L 176.882812 211.578125 L 176.25 211.507812 L 175.9375 211.46875 L 175.621094 211.425781 L 175.308594 211.382812 L 174.996094 211.332031 L 174.679688 211.28125 L 174.367188 211.226562 L 174.058594 211.167969 L 173.746094 211.109375 L 173.433594 211.042969 L 173.125 210.976562 L 172.816406 210.90625 L 172.199219 210.757812 L 171.890625 210.675781 L 171.585938 210.59375 L 170.976562 210.421875 L 170.367188 210.234375 L 170.066406 210.136719 L 169.765625 210.035156 L 169.464844 209.929688 L 169.167969 209.824219 L 168.867188 209.714844 L 168.574219 209.601562 L 168.277344 209.484375 L 167.984375 209.367188 L 167.691406 209.246094 L 167.398438 209.121094 L 167.105469 208.992188 L 166.816406 208.863281 L 166.53125 208.730469 L 166.242188 208.59375 L 165.957031 208.457031 L 165.675781 208.3125 L 165.390625 208.167969 L 165.109375 208.019531 L 164.832031 207.871094 L 164.554688 207.71875 L 164.277344 207.5625 L 163.730469 207.242188 L 163.457031 207.078125 L 162.917969 206.742188 L 162.652344 206.570312 L 162.386719 206.394531 L 162.125 206.21875 L 161.863281 206.039062 L 161.605469 205.855469 L 161.089844 205.480469 L 160.835938 205.292969 L 160.335938 204.902344 L 160.085938 204.703125 L 159.839844 204.503906 L 159.355469 204.097656 L 159.113281 203.890625 L 158.878906 203.679688 L 158.640625 203.464844 L 158.40625 203.25 L 158.175781 203.035156 L 157.945312 202.816406 L 157.71875 202.59375 L 157.496094 202.371094 L 157.273438 202.144531 L 157.050781 201.914062 L 156.835938 201.683594 L 156.617188 201.453125 L 156.40625 201.21875 L 155.984375 200.742188 L 155.78125 200.5 L 155.574219 200.257812 L 155.175781 199.765625 L 154.980469 199.515625 L 154.785156 199.261719 L 154.59375 199.011719 L 154.40625 198.753906 L 154.21875 198.5 L 154.035156 198.238281 L 153.855469 197.980469 L 153.675781 197.71875 L 153.5 197.453125 L 153.328125 197.1875 L 153.15625 196.917969 L 152.988281 196.648438 L 152.824219 196.378906 L 152.660156 196.105469 L 152.5 195.832031 L 152.34375 195.554688 L 152.039062 195 L 151.742188 194.4375 L 151.601562 194.15625 L 151.460938 193.871094 L 151.324219 193.585938 L 151.1875 193.296875 L 150.929688 192.71875 L 150.679688 192.132812 L 150.558594 191.839844 L 150.445312 191.546875 L 150.328125 191.25 L 150.21875 190.953125 L 150.109375 190.652344 L 150.003906 190.355469 L 149.902344 190.054688 L 149.804688 189.753906 L 149.707031 189.449219 L 149.617188 189.144531 L 149.527344 188.84375 L 149.4375 188.535156 L 149.273438 187.925781 L 149.195312 187.617188 L 149.121094 187.308594 L 149.050781 187 L 148.980469 186.6875 L 148.917969 186.378906 L 148.855469 186.066406 L 148.738281 185.441406 L 148.636719 184.816406 L 148.589844 184.503906 L 148.546875 184.1875 L 148.507812 183.875 L 148.46875 183.558594 L 148.433594 183.242188 L 148.402344 182.925781 L 148.375 182.613281 L 148.351562 182.296875 L 148.332031 181.976562 L 148.3125 181.660156 L 148.296875 181.34375 L 148.285156 181.027344 L 148.269531 180.394531 L 148.269531 179.757812 L 148.273438 179.441406 L 148.28125 179.125 L 148.292969 178.808594 L 148.304688 178.488281 L 148.320312 178.171875 L 148.339844 177.855469 L 148.363281 177.539062 L 148.417969 176.90625 L 148.453125 176.59375 L 148.488281 176.277344 L 148.527344 175.960938 L 148.570312 175.648438 L 148.613281 175.332031 L 148.660156 175.019531 L 148.824219 174.082031 L 148.886719 173.769531 L 148.949219 173.460938 L 149.015625 173.148438 L 149.085938 172.839844 L 149.160156 172.53125 L 149.316406 171.914062 L 149.398438 171.609375 L 149.570312 171 L 149.757812 170.390625 L 149.855469 170.089844 L 150.058594 169.488281 L 150.277344 168.894531 L 150.503906 168.300781 L 150.621094 168.007812 L 150.742188 167.714844 L 150.867188 167.421875 L 150.996094 167.128906 L 151.125 166.839844 L 151.257812 166.554688 L 151.394531 166.265625 L 151.675781 165.695312 L 151.820312 165.414062 L 151.96875 165.132812 L 152.117188 164.855469 L 152.269531 164.574219 L 152.425781 164.300781 L 152.582031 164.023438 L 152.746094 163.75 L 153.074219 163.210938 L 153.246094 162.941406 L 153.589844 162.410156 L 153.769531 162.144531 L 153.949219 161.882812 L 154.128906 161.625 L 154.316406 161.367188 L 154.503906 161.113281 L 154.695312 160.855469 L 154.886719 160.605469 L 155.277344 160.105469 L 155.480469 159.859375 L 155.886719 159.375 L 156.09375 159.132812 L 156.304688 158.894531 L 156.515625 158.660156 L 156.730469 158.425781 L 157.167969 157.964844 L 157.386719 157.738281 L 157.613281 157.511719 L 157.839844 157.289062 L 158.066406 157.070312 L 158.296875 156.851562 L 158.765625 156.421875 L 159 156.210938 L 159.238281 156.003906 L 159.480469 155.796875 L 159.722656 155.59375 L 159.96875 155.390625 L 160.214844 155.191406 L 160.714844 154.800781 L 160.96875 154.609375 L 161.222656 154.421875 L 161.480469 154.234375 L 161.738281 154.050781 L 162 153.867188 L 162.261719 153.691406 L 162.792969 153.339844 L 163.058594 153.167969 L 163.328125 153 L 163.597656 152.835938 L 163.871094 152.671875 L 164.144531 152.511719 L 164.421875 152.355469 L 164.976562 152.050781 L 165.539062 151.753906 L 165.824219 151.613281 L 166.105469 151.472656 L 166.394531 151.335938 L 166.679688 151.199219 L 166.96875 151.066406 L 167.257812 150.9375 L 167.550781 150.8125 L 168.136719 150.570312 L 168.429688 150.453125 L 169.023438 150.226562 L 169.324219 150.121094 L 169.621094 150.015625 L 169.921875 149.910156 L 170.222656 149.8125 L 170.527344 149.714844 L 170.828125 149.625 L 171.132812 149.53125 L 171.4375 149.445312 L 171.746094 149.363281 L 172.050781 149.28125 L 172.359375 149.203125 L 172.976562 149.054688 L 173.285156 148.988281 L 173.597656 148.921875 L 173.90625 148.859375 L 174.53125 148.742188 L 175.15625 148.640625 L 175.472656 148.59375 L 175.785156 148.550781 L 176.101562 148.507812 L 176.414062 148.472656 L 176.730469 148.4375 L 177.046875 148.40625 L 177.363281 148.378906 L 177.996094 148.332031 L 178.3125 148.3125 L 178.628906 148.296875 L 178.945312 148.285156 L 179.265625 148.277344 L 179.898438 148.269531 "/>
<path fill="none" stroke-width="1.066978" stroke-linecap="butt" stroke-linejoin="round" stroke="rgb(23.529412%, 57.647059%, 86.27451%)" stroke-opacity="1" stroke-miterlimit="10" d="M 180 116.539062 L 180.632812 116.542969 L 181.269531 116.550781 L 181.902344 116.566406 L 182.539062 116.589844 L 183.171875 116.617188 L 183.804688 116.652344 L 184.4375 116.695312 L 185.070312 116.742188 L 185.703125 116.792969 L 186.335938 116.855469 L 186.964844 116.921875 L 187.597656 116.996094 L 188.226562 117.074219 L 188.855469 117.160156 L 189.484375 117.25 L 190.109375 117.347656 L 190.738281 117.453125 L 191.363281 117.5625 L 191.984375 117.679688 L 192.609375 117.804688 L 193.230469 117.933594 L 193.847656 118.066406 L 194.46875 118.210938 L 195.085938 118.355469 L 195.699219 118.511719 L 196.316406 118.671875 L 196.925781 118.835938 L 197.539062 119.007812 L 198.148438 119.1875 L 198.753906 119.371094 L 199.359375 119.5625 L 199.960938 119.757812 L 200.5625 119.960938 L 201.164062 120.171875 L 201.761719 120.386719 L 202.355469 120.605469 L 202.949219 120.832031 L 203.539062 121.066406 L 204.128906 121.304688 L 204.714844 121.546875 L 205.296875 121.796875 L 205.878906 122.054688 L 206.457031 122.316406 L 207.03125 122.582031 L 207.605469 122.855469 L 208.171875 123.132812 L 208.742188 123.417969 L 209.867188 124.003906 L 210.425781 124.308594 L 210.980469 124.613281 L 211.53125 124.925781 L 212.082031 125.246094 L 212.628906 125.566406 L 213.171875 125.898438 L 213.710938 126.230469 L 214.246094 126.570312 L 215.308594 127.265625 L 215.832031 127.621094 L 216.355469 127.984375 L 216.875 128.351562 L 217.386719 128.722656 L 217.898438 129.097656 L 218.40625 129.480469 L 218.910156 129.867188 L 219.410156 130.257812 L 219.90625 130.652344 L 220.394531 131.054688 L 220.882812 131.460938 L 221.367188 131.871094 L 221.847656 132.289062 L 222.320312 132.710938 L 222.792969 133.136719 L 223.257812 133.566406 L 223.71875 134 L 224.179688 134.441406 L 224.632812 134.882812 L 225.082031 135.332031 L 225.523438 135.785156 L 225.964844 136.242188 L 226.398438 136.703125 L 226.832031 137.171875 L 227.257812 137.640625 L 228.09375 138.59375 L 228.503906 139.078125 L 228.914062 139.566406 L 229.3125 140.054688 L 229.710938 140.550781 L 230.101562 141.050781 L 230.492188 141.554688 L 230.871094 142.058594 L 231.25 142.570312 L 231.621094 143.085938 L 231.988281 143.601562 L 232.347656 144.125 L 232.703125 144.648438 L 233.054688 145.179688 L 233.402344 145.710938 L 233.742188 146.246094 L 234.078125 146.785156 L 234.40625 147.328125 L 234.730469 147.875 L 235.046875 148.421875 L 235.359375 148.976562 L 235.667969 149.53125 L 235.972656 150.089844 L 236.265625 150.648438 L 236.558594 151.214844 L 236.84375 151.78125 L 237.121094 152.351562 L 237.394531 152.921875 L 237.664062 153.5 L 237.925781 154.078125 L 238.183594 154.65625 L 238.433594 155.242188 L 238.675781 155.824219 L 238.917969 156.414062 L 239.148438 157.003906 L 239.375 157.597656 L 239.597656 158.191406 L 239.8125 158.789062 L 240.019531 159.386719 L 240.222656 159.988281 L 240.421875 160.59375 L 240.613281 161.199219 L 240.796875 161.804688 L 240.976562 162.414062 L 241.148438 163.023438 L 241.316406 163.636719 L 241.476562 164.25 L 241.632812 164.867188 L 241.921875 166.101562 L 242.058594 166.722656 L 242.1875 167.34375 L 242.308594 167.964844 L 242.425781 168.589844 L 242.539062 169.214844 L 242.644531 169.839844 L 242.742188 170.464844 L 242.832031 171.09375 L 242.917969 171.722656 L 243 172.351562 L 243.074219 172.984375 L 243.140625 173.613281 L 243.199219 174.246094 L 243.253906 174.878906 L 243.304688 175.511719 L 243.34375 176.144531 L 243.378906 176.777344 L 243.410156 177.410156 L 243.433594 178.046875 L 243.449219 178.679688 L 243.457031 179.316406 L 243.460938 179.949219 L 243.460938 180.585938 L 243.449219 181.21875 L 243.433594 181.851562 L 243.414062 182.488281 L 243.386719 183.121094 L 243.351562 183.753906 L 243.308594 184.386719 L 243.261719 185.019531 L 243.210938 185.652344 L 243.148438 186.285156 L 243.082031 186.917969 L 243.011719 187.546875 L 242.933594 188.175781 L 242.847656 188.804688 L 242.757812 189.433594 L 242.660156 190.0625 L 242.554688 190.6875 L 242.445312 191.3125 L 242.328125 191.9375 L 242.207031 192.558594 L 242.078125 193.179688 L 241.941406 193.800781 L 241.800781 194.417969 L 241.65625 195.035156 L 241.5 195.652344 L 241.34375 196.265625 L 241.175781 196.878906 L 241.003906 197.488281 L 240.828125 198.097656 L 240.640625 198.707031 L 240.453125 199.3125 L 240.257812 199.914062 L 240.054688 200.515625 L 239.847656 201.117188 L 239.632812 201.714844 L 239.410156 202.308594 L 239.183594 202.902344 L 238.953125 203.492188 L 238.714844 204.082031 L 238.472656 204.667969 L 238.222656 205.25 L 237.96875 205.832031 L 237.707031 206.410156 L 237.167969 207.558594 L 236.886719 208.128906 L 236.601562 208.695312 L 236.3125 209.261719 L 236.019531 209.824219 L 235.71875 210.382812 L 235.410156 210.9375 L 235.097656 211.488281 L 234.78125 212.039062 L 234.457031 212.585938 L 234.128906 213.128906 L 233.796875 213.667969 L 233.457031 214.203125 L 233.109375 214.738281 L 232.761719 215.265625 L 232.40625 215.792969 L 232.046875 216.3125 L 231.679688 216.832031 L 231.308594 217.347656 L 230.933594 217.859375 L 230.550781 218.367188 L 230.164062 218.871094 L 229.773438 219.371094 L 229.378906 219.867188 L 228.976562 220.355469 L 228.570312 220.84375 L 228.160156 221.328125 L 227.746094 221.808594 L 227.324219 222.285156 L 226.898438 222.753906 L 226.46875 223.222656 L 226.035156 223.683594 L 225.152344 224.597656 L 224.703125 225.046875 L 224.25 225.488281 L 223.792969 225.929688 L 223.332031 226.367188 L 222.867188 226.796875 L 222.394531 227.222656 L 221.921875 227.644531 L 221.441406 228.0625 L 220.960938 228.472656 L 220.472656 228.878906 L 219.984375 229.28125 L 219.488281 229.679688 L 218.988281 230.074219 L 218.488281 230.460938 L 217.980469 230.84375 L 217.46875 231.21875 L 216.957031 231.589844 L 216.4375 231.957031 L 215.917969 232.320312 L 215.390625 232.675781 L 214.863281 233.027344 L 214.332031 233.375 L 213.796875 233.714844 L 213.257812 234.050781 L 212.714844 234.378906 L 212.167969 234.703125 L 211.621094 235.023438 L 211.070312 235.335938 L 210.515625 235.644531 L 209.957031 235.945312 L 209.394531 236.242188 L 208.832031 236.535156 L 208.265625 236.820312 L 207.695312 237.101562 L 207.121094 237.375 L 206.546875 237.644531 L 205.96875 237.90625 L 205.390625 238.164062 L 204.804688 238.414062 L 204.222656 238.660156 L 203.632812 238.898438 L 203.042969 239.132812 L 202.449219 239.359375 L 201.855469 239.578125 L 201.257812 239.796875 L 200.660156 240.003906 L 200.058594 240.207031 L 199.457031 240.40625 L 198.851562 240.597656 L 198.242188 240.785156 L 197.636719 240.960938 L 197.023438 241.136719 L 196.414062 241.304688 L 195.796875 241.464844 L 195.183594 241.617188 L 194.566406 241.769531 L 193.949219 241.910156 L 193.328125 242.046875 L 192.707031 242.175781 L 192.085938 242.300781 L 191.460938 242.417969 L 190.835938 242.53125 L 190.210938 242.636719 L 189.582031 242.734375 L 188.957031 242.828125 L 188.328125 242.914062 L 187.699219 242.992188 L 187.066406 243.066406 L 186.4375 243.136719 L 185.804688 243.195312 L 185.171875 243.25 L 184.539062 243.300781 L 183.90625 243.34375 L 183.273438 243.378906 L 182.636719 243.40625 L 182.003906 243.429688 L 181.371094 243.449219 L 180.734375 243.457031 L 180.101562 243.460938 L 179.464844 243.460938 L 178.832031 243.453125 L 178.195312 243.4375 L 177.5625 243.414062 L 176.929688 243.386719 L 176.296875 243.355469 L 175.660156 243.3125 L 175.027344 243.265625 L 174.398438 243.214844 L 173.765625 243.15625 L 173.132812 243.089844 L 172.503906 243.019531 L 171.875 242.941406 L 171.246094 242.855469 L 170.617188 242.765625 L 169.988281 242.667969 L 169.363281 242.5625 L 168.738281 242.453125 L 168.113281 242.339844 L 167.492188 242.21875 L 166.871094 242.089844 L 166.25 241.953125 L 165.628906 241.8125 L 165.011719 241.667969 L 164.398438 241.515625 L 163.78125 241.355469 L 163.167969 241.191406 L 162.558594 241.019531 L 161.949219 240.839844 L 161.34375 240.65625 L 160.738281 240.46875 L 160.132812 240.273438 L 159.53125 240.070312 L 158.929688 239.863281 L 158.332031 239.648438 L 157.738281 239.429688 L 157.144531 239.203125 L 156.554688 238.972656 L 155.964844 238.734375 L 155.378906 238.492188 L 154.796875 238.242188 L 154.214844 237.988281 L 153.636719 237.726562 L 153.058594 237.460938 L 152.488281 237.1875 L 151.917969 236.910156 L 151.347656 236.625 L 150.785156 236.335938 L 150.222656 236.042969 L 149.664062 235.742188 L 149.105469 235.433594 L 148.554688 235.125 L 148.003906 234.804688 L 147.457031 234.484375 L 146.914062 234.15625 L 146.375 233.824219 L 145.839844 233.484375 L 145.304688 233.140625 L 144.777344 232.789062 L 144.25 232.433594 L 143.726562 232.074219 L 143.207031 231.710938 L 142.691406 231.339844 L 142.179688 230.964844 L 141.675781 230.582031 L 141.171875 230.195312 L 140.671875 229.804688 L 140.175781 229.410156 L 139.683594 229.007812 L 139.195312 228.605469 L 138.710938 228.191406 L 138.230469 227.777344 L 137.753906 227.359375 L 137.28125 226.933594 L 136.816406 226.503906 L 136.351562 226.070312 L 135.894531 225.628906 L 135.441406 225.1875 L 134.992188 224.738281 L 134.546875 224.285156 L 134.105469 223.832031 L 133.667969 223.367188 L 133.238281 222.902344 L 132.8125 222.433594 L 132.390625 221.960938 L 131.972656 221.480469 L 131.558594 221 L 131.152344 220.511719 L 130.75 220.023438 L 130.351562 219.527344 L 129.957031 219.03125 L 129.570312 218.527344 L 129.1875 218.019531 L 128.808594 217.511719 L 128.4375 216.996094 L 128.070312 216.480469 L 127.707031 215.957031 L 127.351562 215.433594 L 127 214.90625 L 126.652344 214.375 L 126.3125 213.839844 L 125.976562 213.300781 L 125.644531 212.757812 L 125.320312 212.214844 L 125 211.664062 L 124.6875 211.113281 L 124.378906 210.558594 L 124.078125 210 L 123.78125 209.441406 L 123.488281 208.875 L 123.203125 208.308594 L 122.921875 207.742188 L 122.648438 207.167969 L 122.378906 206.59375 L 122.113281 206.015625 L 121.859375 205.4375 L 121.605469 204.851562 L 121.359375 204.269531 L 121.121094 203.679688 L 120.886719 203.089844 L 120.660156 202.496094 L 120.4375 201.902344 L 120.222656 201.308594 L 120.011719 200.707031 L 119.808594 200.105469 L 119.609375 199.503906 L 119.417969 198.898438 L 119.230469 198.292969 L 119.050781 197.683594 L 118.878906 197.074219 L 118.710938 196.460938 L 118.546875 195.847656 L 118.394531 195.230469 L 118.242188 194.617188 L 118.101562 193.996094 L 117.964844 193.378906 L 117.832031 192.757812 L 117.707031 192.132812 L 117.589844 191.511719 L 117.476562 190.886719 L 117.371094 190.261719 L 117.273438 189.632812 L 117.179688 189.007812 L 117.09375 188.378906 L 117.011719 187.746094 L 116.9375 187.117188 L 116.871094 186.488281 L 116.808594 185.855469 L 116.753906 185.222656 L 116.703125 184.589844 L 116.660156 183.957031 L 116.625 183.324219 L 116.59375 182.6875 L 116.570312 182.054688 L 116.554688 181.421875 L 116.542969 180.785156 L 116.539062 180.152344 L 116.539062 179.515625 L 116.546875 178.882812 L 116.5625 178.25 L 116.582031 177.613281 L 116.609375 176.980469 L 116.644531 176.347656 L 116.683594 175.710938 L 116.730469 175.078125 L 116.78125 174.445312 L 116.839844 173.816406 L 116.90625 173.183594 L 116.976562 172.554688 L 117.054688 171.921875 L 117.136719 171.292969 L 117.226562 170.667969 L 117.324219 170.039062 L 117.425781 169.414062 L 117.535156 168.789062 L 117.652344 168.164062 L 117.773438 167.539062 L 117.902344 166.917969 L 118.035156 166.296875 L 118.175781 165.679688 L 118.320312 165.0625 L 118.472656 164.445312 L 118.632812 163.832031 L 118.796875 163.21875 L 118.96875 162.609375 L 119.144531 162 L 119.328125 161.390625 L 119.515625 160.785156 L 119.710938 160.179688 L 119.914062 159.578125 L 120.121094 158.980469 L 120.332031 158.382812 L 120.550781 157.785156 L 120.777344 157.191406 L 121.007812 156.601562 L 121.246094 156.011719 L 121.488281 155.425781 L 121.738281 154.84375 L 121.992188 154.261719 L 122.25 153.683594 L 122.519531 153.105469 L 122.789062 152.53125 L 123.066406 151.960938 L 123.351562 151.394531 L 123.640625 150.828125 L 123.933594 150.265625 L 124.234375 149.707031 L 124.539062 149.152344 L 124.851562 148.597656 L 125.167969 148.046875 L 125.488281 147.503906 L 125.816406 146.957031 L 126.152344 146.417969 L 126.488281 145.882812 L 126.832031 145.347656 L 127.535156 144.292969 L 127.898438 143.769531 L 128.261719 143.25 L 128.632812 142.734375 L 129.007812 142.222656 L 129.386719 141.714844 L 129.773438 141.210938 L 130.164062 140.710938 L 130.558594 140.214844 L 130.957031 139.722656 L 131.363281 139.234375 L 131.773438 138.75 L 132.1875 138.269531 L 132.609375 137.792969 L 133.03125 137.320312 L 133.460938 136.851562 L 133.894531 136.390625 L 134.335938 135.929688 L 134.777344 135.476562 L 135.226562 135.027344 L 135.675781 134.582031 L 136.132812 134.140625 L 136.59375 133.703125 L 137.058594 133.273438 L 137.527344 132.84375 L 138.003906 132.421875 L 138.480469 132.003906 L 138.960938 131.59375 L 139.449219 131.183594 L 139.9375 130.78125 L 140.433594 130.382812 L 140.929688 129.988281 L 141.433594 129.601562 L 141.9375 129.21875 L 142.449219 128.839844 L 142.960938 128.46875 L 143.480469 128.101562 L 144 127.738281 L 144.523438 127.378906 L 145.050781 127.027344 L 145.582031 126.679688 L 146.117188 126.339844 L 146.65625 126.003906 L 147.199219 125.671875 L 147.742188 125.347656 L 148.292969 125.027344 L 148.84375 124.714844 L 149.398438 124.402344 L 149.953125 124.101562 L 150.515625 123.804688 L 151.078125 123.511719 L 151.644531 123.226562 L 152.214844 122.945312 L 152.785156 122.667969 L 153.359375 122.398438 L 153.9375 122.136719 L 154.519531 121.878906 L 155.101562 121.625 L 155.683594 121.378906 L 156.273438 121.140625 L 156.863281 120.90625 L 157.453125 120.675781 L 158.050781 120.457031 L 158.644531 120.238281 L 159.246094 120.027344 L 159.84375 119.824219 L 160.449219 119.625 L 161.050781 119.433594 L 161.660156 119.246094 L 162.265625 119.066406 L 162.878906 118.890625 L 163.488281 118.722656 L 164.101562 118.5625 L 164.71875 118.40625 L 165.335938 118.253906 L 165.953125 118.113281 L 166.574219 117.976562 L 167.195312 117.84375 L 167.816406 117.71875 L 168.4375 117.601562 L 169.0625 117.488281 L 169.691406 117.382812 L 170.316406 117.28125 L 170.945312 117.1875 L 171.574219 117.101562 L 172.203125 117.019531 L 172.832031 116.945312 L 173.464844 116.875 L 174.09375 116.8125 L 174.726562 116.757812 L 175.359375 116.707031 L 175.992188 116.664062 L 176.625 116.628906 L 177.261719 116.597656 L 177.894531 116.574219 L 178.527344 116.554688 L 179.164062 116.542969 L 179.796875 116.539062 "/>
<path fill="none" stroke-width="1.066978" stroke-linecap="butt" stroke-linejoin="round" stroke="rgb(23.529412%, 57.647059%, 86.27451%)" stroke-opacity="1" stroke-miterlimit="10" d="M 180 84.808594 L 180.953125 84.8125 L 181.902344 84.824219 L 182.855469 84.851562 L 183.804688 84.882812 L 184.757812 84.925781 L 185.707031 84.976562 L 186.65625 85.039062 L 187.605469 85.113281 L 188.554688 85.191406 L 189.503906 85.28125 L 190.449219 85.382812 L 191.394531 85.492188 L 192.339844 85.609375 L 193.285156 85.738281 L 194.226562 85.875 L 195.164062 86.023438 L 196.105469 86.179688 L 197.042969 86.34375 L 197.976562 86.519531 L 198.910156 86.703125 L 199.84375 86.898438 L 200.773438 87.101562 L 201.703125 87.3125 L 202.628906 87.535156 L 203.550781 87.765625 L 204.472656 88.007812 L 205.390625 88.253906 L 206.308594 88.515625 L 207.21875 88.78125 L 208.132812 89.058594 L 209.039062 89.34375 L 209.945312 89.640625 L 210.847656 89.945312 L 211.746094 90.257812 L 212.640625 90.578125 L 213.535156 90.910156 L 214.421875 91.25 L 215.308594 91.597656 L 216.191406 91.957031 L 217.070312 92.320312 L 217.945312 92.695312 L 218.816406 93.082031 L 219.683594 93.472656 L 220.546875 93.875 L 221.40625 94.285156 L 222.261719 94.703125 L 223.113281 95.128906 L 223.957031 95.5625 L 224.800781 96.007812 L 225.636719 96.460938 L 226.472656 96.921875 L 227.300781 97.390625 L 228.125 97.867188 L 228.941406 98.351562 L 229.757812 98.84375 L 230.566406 99.347656 L 231.367188 99.855469 L 232.167969 100.375 L 232.960938 100.898438 L 233.75 101.433594 L 234.53125 101.976562 L 235.308594 102.523438 L 236.082031 103.082031 L 236.847656 103.644531 L 237.609375 104.21875 L 238.363281 104.796875 L 239.113281 105.386719 L 239.855469 105.980469 L 240.59375 106.582031 L 241.324219 107.191406 L 242.050781 107.808594 L 242.769531 108.433594 L 243.480469 109.066406 L 244.1875 109.703125 L 244.886719 110.347656 L 245.582031 111 L 246.265625 111.660156 L 246.945312 112.324219 L 247.621094 113 L 248.289062 113.679688 L 248.945312 114.363281 L 249.601562 115.058594 L 250.246094 115.757812 L 250.882812 116.460938 L 251.515625 117.175781 L 252.140625 117.890625 L 252.757812 118.617188 L 253.367188 119.347656 L 253.972656 120.085938 L 254.566406 120.828125 L 255.15625 121.574219 L 255.734375 122.332031 L 256.308594 123.089844 L 256.875 123.855469 L 257.429688 124.628906 L 257.980469 125.40625 L 258.523438 126.1875 L 259.058594 126.976562 L 259.582031 127.769531 L 260.101562 128.566406 L 260.613281 129.371094 L 261.113281 130.179688 L 261.609375 130.992188 L 262.09375 131.8125 L 262.574219 132.636719 L 263.042969 133.460938 L 263.503906 134.296875 L 263.957031 135.132812 L 264.402344 135.976562 L 264.835938 136.820312 L 265.265625 137.671875 L 265.683594 138.527344 L 266.09375 139.386719 L 266.496094 140.246094 L 266.890625 141.113281 L 267.273438 141.984375 L 267.648438 142.859375 L 268.015625 143.738281 L 268.375 144.621094 L 268.722656 145.507812 L 269.0625 146.394531 L 269.394531 147.289062 L 269.71875 148.183594 L 270.03125 149.082031 L 270.335938 149.984375 L 270.632812 150.886719 L 270.917969 151.796875 L 271.195312 152.707031 L 271.464844 153.621094 L 271.722656 154.535156 L 271.972656 155.453125 L 272.214844 156.375 L 272.445312 157.300781 L 272.667969 158.222656 L 272.882812 159.152344 L 273.085938 160.082031 L 273.28125 161.015625 L 273.464844 161.949219 L 273.640625 162.882812 L 273.808594 163.820312 L 273.964844 164.757812 L 274.113281 165.699219 L 274.25 166.640625 L 274.378906 167.585938 L 274.5 168.527344 L 274.609375 169.476562 L 274.710938 170.421875 L 274.800781 171.367188 L 274.882812 172.316406 L 274.953125 173.265625 L 275.015625 174.214844 L 275.070312 175.167969 L 275.113281 176.117188 L 275.148438 177.070312 L 275.171875 178.019531 L 275.1875 178.972656 L 275.191406 179.925781 L 275.1875 180.875 L 275.175781 181.828125 L 275.152344 182.78125 L 275.121094 183.730469 L 275.078125 184.683594 L 275.027344 185.632812 L 274.964844 186.582031 L 274.894531 187.53125 L 274.816406 188.480469 L 274.726562 189.429688 L 274.625 190.375 L 274.515625 191.320312 L 274.398438 192.265625 L 274.273438 193.207031 L 274.136719 194.152344 L 273.988281 195.089844 L 273.832031 196.03125 L 273.667969 196.96875 L 273.496094 197.902344 L 273.308594 198.835938 L 273.117188 199.769531 L 272.914062 200.699219 L 272.703125 201.628906 L 272.484375 202.554688 L 272.253906 203.476562 L 272.011719 204.398438 L 271.765625 205.316406 L 271.507812 206.234375 L 271.238281 207.148438 L 270.964844 208.058594 L 270.679688 208.96875 L 270.382812 209.871094 L 270.082031 210.773438 L 269.769531 211.675781 L 269.449219 212.570312 L 269.117188 213.464844 L 268.777344 214.351562 L 268.429688 215.238281 L 268.074219 216.121094 L 267.707031 217 L 267.332031 217.875 L 266.949219 218.746094 L 266.558594 219.613281 L 266.160156 220.476562 L 265.75 221.335938 L 265.332031 222.191406 L 264.90625 223.042969 L 264.46875 223.890625 L 264.027344 224.734375 L 263.574219 225.570312 L 263.117188 226.40625 L 262.648438 227.234375 L 262.171875 228.058594 L 261.6875 228.878906 L 261.195312 229.691406 L 260.691406 230.5 L 260.183594 231.304688 L 259.667969 232.105469 L 259.140625 232.898438 L 258.609375 233.6875 L 258.066406 234.472656 L 257.519531 235.25 L 256.964844 236.019531 L 256.398438 236.789062 L 255.828125 237.550781 L 255.25 238.304688 L 254.660156 239.054688 L 254.066406 239.796875 L 253.464844 240.535156 L 252.855469 241.265625 L 252.238281 241.992188 L 251.617188 242.710938 L 250.984375 243.425781 L 250.347656 244.132812 L 249.703125 244.832031 L 249.050781 245.527344 L 248.394531 246.214844 L 247.726562 246.894531 L 247.054688 247.566406 L 246.375 248.234375 L 245.691406 248.894531 L 244.996094 249.546875 L 244.300781 250.195312 L 243.59375 250.835938 L 242.882812 251.464844 L 242.164062 252.09375 L 241.441406 252.710938 L 240.710938 253.320312 L 239.972656 253.925781 L 239.230469 254.519531 L 238.484375 255.109375 L 237.730469 255.691406 L 236.96875 256.261719 L 236.203125 256.828125 L 235.433594 257.386719 L 234.65625 257.9375 L 233.875 258.480469 L 233.085938 259.015625 L 232.292969 259.542969 L 231.496094 260.0625 L 230.695312 260.574219 L 229.886719 261.074219 L 229.070312 261.570312 L 228.253906 262.054688 L 227.429688 262.535156 L 226.601562 263.003906 L 225.769531 263.46875 L 224.933594 263.921875 L 224.09375 264.367188 L 223.246094 264.800781 L 222.394531 265.230469 L 221.542969 265.648438 L 220.683594 266.0625 L 219.820312 266.464844 L 218.953125 266.859375 L 218.082031 267.242188 L 217.210938 267.621094 L 216.332031 267.988281 L 215.449219 268.347656 L 214.5625 268.695312 L 213.675781 269.039062 L 212.785156 269.371094 L 211.886719 269.691406 L 210.988281 270.007812 L 210.089844 270.3125 L 209.183594 270.609375 L 208.277344 270.898438 L 207.367188 271.175781 L 206.453125 271.445312 L 205.535156 271.703125 L 204.617188 271.953125 L 203.699219 272.195312 L 202.773438 272.429688 L 201.847656 272.652344 L 200.921875 272.867188 L 199.992188 273.070312 L 199.058594 273.265625 L 198.125 273.453125 L 197.191406 273.628906 L 196.253906 273.796875 L 195.316406 273.953125 L 194.375 274.101562 L 193.433594 274.242188 L 192.492188 274.371094 L 191.546875 274.492188 L 190.601562 274.601562 L 189.652344 274.703125 L 188.707031 274.792969 L 187.757812 274.875 L 186.808594 274.949219 L 185.859375 275.011719 L 184.910156 275.066406 L 183.957031 275.109375 L 183.007812 275.144531 L 182.054688 275.171875 L 181.101562 275.1875 L 180.152344 275.191406 L 179.199219 275.191406 L 178.246094 275.175781 L 177.296875 275.15625 L 176.34375 275.121094 L 175.394531 275.082031 L 174.441406 275.03125 L 173.492188 274.96875 L 172.542969 274.902344 L 171.59375 274.820312 L 170.648438 274.734375 L 169.699219 274.632812 L 168.753906 274.527344 L 167.808594 274.410156 L 166.867188 274.28125 L 165.925781 274.148438 L 164.984375 274 L 164.042969 273.847656 L 163.105469 273.683594 L 162.171875 273.507812 L 161.238281 273.324219 L 160.304688 273.132812 L 159.375 272.933594 L 158.445312 272.722656 L 157.519531 272.5 L 156.59375 272.269531 L 155.675781 272.03125 L 154.753906 271.785156 L 153.839844 271.527344 L 152.925781 271.261719 L 152.011719 270.984375 L 151.105469 270.703125 L 150.199219 270.410156 L 149.296875 270.105469 L 148.398438 269.792969 L 147.5 269.472656 L 146.609375 269.144531 L 145.71875 268.804688 L 144.832031 268.457031 L 143.949219 268.101562 L 143.070312 267.738281 L 142.195312 267.363281 L 141.324219 266.980469 L 140.453125 266.589844 L 139.589844 266.191406 L 138.730469 265.78125 L 137.875 265.367188 L 137.023438 264.941406 L 136.175781 264.503906 L 135.332031 264.0625 L 134.496094 263.613281 L 133.660156 263.152344 L 132.832031 262.6875 L 132.007812 262.210938 L 131.1875 261.726562 L 130.371094 261.234375 L 129.5625 260.734375 L 128.757812 260.226562 L 127.957031 259.707031 L 127.164062 259.183594 L 126.375 258.652344 L 125.589844 258.113281 L 124.8125 257.5625 L 124.039062 257.007812 L 123.273438 256.445312 L 122.511719 255.875 L 121.753906 255.292969 L 121.003906 254.707031 L 120.261719 254.113281 L 119.523438 253.515625 L 118.789062 252.90625 L 118.066406 252.289062 L 117.34375 251.667969 L 116.632812 251.035156 L 115.925781 250.398438 L 115.222656 249.753906 L 114.527344 249.105469 L 113.839844 248.445312 L 113.160156 247.78125 L 112.484375 247.109375 L 111.816406 246.429688 L 111.15625 245.746094 L 110.503906 245.054688 L 109.855469 244.355469 L 109.214844 243.652344 L 108.582031 242.941406 L 107.957031 242.222656 L 107.339844 241.5 L 106.726562 240.769531 L 106.125 240.035156 L 105.527344 239.292969 L 104.9375 238.542969 L 104.355469 237.789062 L 103.78125 237.03125 L 103.214844 236.265625 L 102.65625 235.496094 L 102.105469 234.71875 L 101.5625 233.9375 L 101.027344 233.152344 L 100.5 232.359375 L 99.980469 231.5625 L 99.46875 230.757812 L 98.964844 229.949219 L 98.46875 229.136719 L 97.980469 228.320312 L 97.503906 227.496094 L 97.03125 226.667969 L 96.570312 225.835938 L 96.113281 225 L 95.667969 224.160156 L 95.230469 223.3125 L 94.804688 222.464844 L 94.382812 221.609375 L 93.972656 220.753906 L 93.566406 219.890625 L 93.171875 219.023438 L 92.785156 218.152344 L 92.410156 217.28125 L 92.042969 216.402344 L 91.683594 215.519531 L 91.332031 214.636719 L 90.988281 213.746094 L 90.65625 212.855469 L 90.332031 211.960938 L 90.015625 211.0625 L 89.710938 210.160156 L 89.414062 209.257812 L 89.125 208.347656 L 88.847656 207.4375 L 88.578125 206.527344 L 88.316406 205.609375 L 88.066406 204.691406 L 87.824219 203.773438 L 87.589844 202.847656 L 87.367188 201.921875 L 87.152344 200.996094 L 86.945312 200.066406 L 86.75 199.136719 L 86.5625 198.203125 L 86.386719 197.265625 L 86.21875 196.328125 L 86.058594 195.390625 L 85.910156 194.449219 L 85.769531 193.507812 L 85.640625 192.566406 L 85.519531 191.621094 L 85.40625 190.675781 L 85.304688 189.730469 L 85.210938 188.78125 L 85.128906 187.835938 L 85.054688 186.886719 L 84.992188 185.933594 L 84.9375 184.984375 L 84.890625 184.035156 L 84.855469 183.082031 L 84.832031 182.132812 L 84.8125 181.179688 L 84.808594 180.226562 L 84.808594 179.277344 L 84.820312 178.324219 L 84.84375 177.371094 L 84.875 176.421875 L 84.914062 175.46875 L 84.964844 174.519531 L 85.023438 173.570312 L 85.09375 172.621094 L 85.171875 171.671875 L 85.257812 170.722656 L 85.355469 169.777344 L 85.464844 168.832031 L 85.582031 167.886719 L 85.707031 166.941406 L 85.84375 166 L 85.988281 165.058594 L 86.140625 164.121094 L 86.304688 163.179688 L 86.476562 162.246094 L 86.660156 161.3125 L 86.851562 160.378906 L 87.050781 159.449219 L 87.261719 158.519531 L 87.480469 157.59375 L 87.710938 156.667969 L 87.949219 155.746094 L 88.195312 154.828125 L 88.453125 153.910156 L 88.714844 152.996094 L 88.992188 152.085938 L 89.273438 151.175781 L 89.566406 150.273438 L 89.871094 149.367188 L 90.179688 148.46875 L 90.5 147.574219 L 90.828125 146.679688 L 91.167969 145.789062 L 91.511719 144.902344 L 91.867188 144.019531 L 92.234375 143.140625 L 92.605469 142.265625 L 92.988281 141.390625 L 93.378906 140.523438 L 93.777344 139.660156 L 94.183594 138.800781 L 94.601562 137.941406 L 95.027344 137.089844 L 95.460938 136.242188 L 95.902344 135.402344 L 96.351562 134.5625 L 96.808594 133.726562 L 97.277344 132.898438 L 97.75 132.074219 L 98.234375 131.253906 L 98.726562 130.4375 L 99.226562 129.628906 L 99.734375 128.824219 L 100.25 128.023438 L 100.773438 127.226562 L 101.304688 126.4375 L 101.84375 125.652344 L 102.390625 124.875 L 102.949219 124.101562 L 103.511719 123.332031 L 104.082031 122.570312 L 104.660156 121.816406 L 105.246094 121.066406 L 105.835938 120.320312 L 106.4375 119.582031 L 107.046875 118.847656 L 107.660156 118.121094 L 108.285156 117.402344 L 108.914062 116.6875 L 109.550781 115.980469 L 110.191406 115.28125 L 110.84375 114.585938 L 111.5 113.894531 L 112.164062 113.214844 L 112.835938 112.539062 L 113.515625 111.871094 L 114.199219 111.210938 L 114.890625 110.554688 L 115.589844 109.90625 L 116.292969 109.265625 L 117.003906 108.632812 L 117.71875 108.007812 L 118.441406 107.386719 L 119.171875 106.777344 L 119.90625 106.171875 L 120.648438 105.574219 L 121.394531 104.984375 L 122.148438 104.402344 L 122.90625 103.828125 L 123.671875 103.261719 L 124.441406 102.699219 L 125.21875 102.148438 L 126 101.605469 L 126.785156 101.070312 L 127.578125 100.542969 L 128.375 100.019531 L 129.179688 99.507812 L 129.984375 99.003906 L 130.796875 98.507812 L 131.613281 98.019531 L 132.4375 97.539062 L 133.265625 97.070312 L 134.097656 96.605469 L 134.933594 96.152344 L 135.773438 95.703125 L 136.617188 95.265625 L 137.46875 94.835938 L 138.320312 94.417969 L 139.179688 94.003906 L 140.042969 93.601562 L 140.90625 93.203125 L 141.777344 92.816406 L 142.652344 92.441406 L 143.527344 92.070312 L 144.410156 91.710938 L 145.292969 91.359375 L 146.183594 91.015625 L 147.074219 90.683594 L 147.96875 90.359375 L 148.867188 90.042969 L 149.765625 89.734375 L 150.671875 89.4375 L 151.578125 89.148438 L 152.488281 88.867188 L 153.402344 88.597656 L 154.316406 88.335938 L 155.234375 88.085938 L 156.15625 87.84375 L 157.078125 87.609375 L 158.003906 87.382812 L 158.929688 87.167969 L 159.859375 86.960938 L 160.789062 86.765625 L 161.722656 86.578125 L 162.660156 86.398438 L 163.597656 86.230469 L 164.535156 86.070312 L 165.472656 85.921875 L 166.417969 85.78125 L 167.359375 85.648438 L 168.304688 85.527344 L 169.25 85.417969 L 170.195312 85.3125 L 171.140625 85.21875 L 172.089844 85.136719 L 173.039062 85.0625 L 173.988281 84.996094 L 174.9375 84.941406 L 175.890625 84.894531 L 176.839844 84.859375 L 177.792969 84.832031 L 178.746094 84.816406 L 179.695312 84.808594 "/>
<path fill="none" stroke-width="1.066978" stroke-linecap="butt" stroke-linejoin="round" stroke="rgb(23.529412%, 57.647059%, 86.27451%)" stroke-opacity="1" stroke-miterlimit="10" d="M 180 53.074219 L 181.269531 53.082031 L 182.539062 53.101562 L 183.808594 53.132812 L 185.074219 53.175781 L 186.34375 53.234375 L 187.609375 53.304688 L 188.878906 53.386719 L 190.144531 53.480469 L 191.40625 53.589844 L 192.671875 53.710938 L 193.933594 53.84375 L 195.195312 53.988281 L 196.453125 54.148438 L 197.710938 54.316406 L 198.96875 54.5 L 200.222656 54.695312 L 201.472656 54.90625 L 202.722656 55.125 L 203.96875 55.359375 L 205.214844 55.605469 L 206.457031 55.863281 L 207.699219 56.136719 L 208.9375 56.417969 L 210.171875 56.714844 L 211.402344 57.023438 L 212.628906 57.34375 L 213.855469 57.675781 L 215.074219 58.019531 L 216.292969 58.375 L 217.507812 58.746094 L 218.71875 59.125 L 219.925781 59.519531 L 221.128906 59.925781 L 222.328125 60.34375 L 223.523438 60.769531 L 224.710938 61.210938 L 225.898438 61.664062 L 227.078125 62.128906 L 228.253906 62.605469 L 229.425781 63.09375 L 230.59375 63.59375 L 231.753906 64.105469 L 232.910156 64.628906 L 234.0625 65.164062 L 235.207031 65.710938 L 236.347656 66.269531 L 237.480469 66.839844 L 238.609375 67.417969 L 239.734375 68.011719 L 240.851562 68.613281 L 241.960938 69.226562 L 243.066406 69.851562 L 244.164062 70.488281 L 245.257812 71.136719 L 246.339844 71.792969 L 247.421875 72.464844 L 248.492188 73.140625 L 249.558594 73.832031 L 250.617188 74.535156 L 251.667969 75.246094 L 252.710938 75.96875 L 253.746094 76.699219 L 254.777344 77.441406 L 255.796875 78.195312 L 256.8125 78.957031 L 257.820312 79.730469 L 258.816406 80.515625 L 259.808594 81.308594 L 260.792969 82.109375 L 261.765625 82.921875 L 262.734375 83.746094 L 263.691406 84.578125 L 264.640625 85.417969 L 265.582031 86.269531 L 266.515625 87.132812 L 267.441406 88 L 268.355469 88.878906 L 269.261719 89.769531 L 270.160156 90.664062 L 271.050781 91.570312 L 271.929688 92.484375 L 272.800781 93.410156 L 273.660156 94.34375 L 274.511719 95.28125 L 275.355469 96.230469 L 276.1875 97.191406 L 277.011719 98.15625 L 277.824219 99.128906 L 278.628906 100.113281 L 279.421875 101.101562 L 280.207031 102.101562 L 280.980469 103.105469 L 281.746094 104.121094 L 282.5 105.140625 L 283.242188 106.171875 L 283.976562 107.207031 L 284.699219 108.25 L 285.410156 109.300781 L 286.113281 110.359375 L 286.804688 111.421875 L 287.484375 112.496094 L 288.152344 113.574219 L 288.8125 114.65625 L 289.460938 115.75 L 290.097656 116.847656 L 290.722656 117.949219 L 291.335938 119.0625 L 291.941406 120.175781 L 292.535156 121.300781 L 293.117188 122.429688 L 293.6875 123.5625 L 294.246094 124.703125 L 294.792969 125.847656 L 295.328125 126.996094 L 295.851562 128.152344 L 296.363281 129.3125 L 296.867188 130.480469 L 297.355469 131.652344 L 297.832031 132.828125 L 298.296875 134.007812 L 298.753906 135.195312 L 299.195312 136.382812 L 299.625 137.578125 L 300.042969 138.777344 L 300.449219 139.976562 L 300.84375 141.183594 L 301.226562 142.394531 L 301.59375 143.609375 L 301.953125 144.828125 L 302.296875 146.046875 L 302.632812 147.273438 L 302.953125 148.5 L 303.261719 149.730469 L 303.558594 150.964844 L 303.84375 152.203125 L 304.113281 153.441406 L 304.375 154.683594 L 304.621094 155.929688 L 304.855469 157.175781 L 305.078125 158.425781 L 305.285156 159.679688 L 305.484375 160.933594 L 305.667969 162.1875 L 305.839844 163.445312 L 306 164.707031 L 306.144531 165.964844 L 306.28125 167.226562 L 306.402344 168.492188 L 306.511719 169.757812 L 306.605469 171.023438 L 306.691406 172.289062 L 306.761719 173.554688 L 306.820312 174.824219 L 306.863281 176.09375 L 306.898438 177.359375 L 306.917969 178.628906 L 306.925781 179.898438 L 306.917969 181.167969 L 306.902344 182.4375 L 306.871094 183.707031 L 306.828125 184.976562 L 306.769531 186.242188 L 306.703125 187.511719 L 306.621094 188.777344 L 306.527344 190.042969 L 306.417969 191.308594 L 306.300781 192.570312 L 306.167969 193.832031 L 306.023438 195.09375 L 305.867188 196.355469 L 305.695312 197.613281 L 305.515625 198.867188 L 305.320312 200.121094 L 305.113281 201.375 L 304.890625 202.625 L 304.660156 203.871094 L 304.414062 205.117188 L 304.15625 206.359375 L 303.886719 207.601562 L 303.605469 208.835938 L 303.308594 210.070312 L 303.003906 211.304688 L 302.683594 212.53125 L 302.351562 213.757812 L 302.007812 214.980469 L 301.652344 216.199219 L 301.285156 217.414062 L 300.90625 218.625 L 300.511719 219.832031 L 300.109375 221.035156 L 299.691406 222.230469 L 299.261719 223.425781 L 298.824219 224.617188 L 298.371094 225.804688 L 297.90625 226.984375 L 297.429688 228.160156 L 296.945312 229.332031 L 296.445312 230.5 L 295.933594 231.664062 L 295.410156 232.820312 L 294.878906 233.96875 L 294.332031 235.117188 L 293.777344 236.257812 L 293.207031 237.390625 L 292.628906 238.519531 L 292.035156 239.644531 L 291.433594 240.761719 L 290.820312 241.875 L 290.199219 242.976562 L 289.5625 244.078125 L 288.914062 245.167969 L 288.257812 246.253906 L 287.589844 247.335938 L 286.910156 248.40625 L 286.222656 249.472656 L 285.523438 250.53125 L 284.8125 251.582031 L 284.089844 252.628906 L 283.359375 253.664062 L 282.617188 254.695312 L 281.867188 255.71875 L 281.101562 256.730469 L 280.332031 257.738281 L 279.546875 258.738281 L 278.757812 259.730469 L 277.953125 260.714844 L 277.140625 261.691406 L 276.320312 262.65625 L 275.488281 263.617188 L 274.648438 264.566406 L 273.796875 265.507812 L 272.9375 266.441406 L 272.070312 267.367188 L 271.191406 268.285156 L 270.304688 269.191406 L 269.40625 270.089844 L 268.5 270.980469 L 267.585938 271.859375 L 266.664062 272.730469 L 265.734375 273.59375 L 264.792969 274.445312 L 263.84375 275.289062 L 262.886719 276.121094 L 261.921875 276.945312 L 260.949219 277.761719 L 259.964844 278.566406 L 258.976562 279.359375 L 257.980469 280.144531 L 256.972656 280.917969 L 255.960938 281.683594 L 254.941406 282.4375 L 253.910156 283.183594 L 252.875 283.917969 L 251.832031 284.640625 L 250.785156 285.355469 L 249.726562 286.054688 L 248.664062 286.75 L 247.589844 287.429688 L 246.515625 288.101562 L 245.429688 288.761719 L 244.339844 289.410156 L 243.242188 290.046875 L 242.136719 290.671875 L 241.027344 291.289062 L 239.910156 291.894531 L 238.789062 292.488281 L 237.664062 293.070312 L 236.527344 293.640625 L 235.390625 294.199219 L 234.246094 294.75 L 233.09375 295.285156 L 231.9375 295.808594 L 230.777344 296.324219 L 229.613281 296.824219 L 228.441406 297.316406 L 227.265625 297.792969 L 226.085938 298.261719 L 224.902344 298.714844 L 223.710938 299.160156 L 222.519531 299.589844 L 221.320312 300.011719 L 220.117188 300.417969 L 218.910156 300.8125 L 217.703125 301.195312 L 216.488281 301.566406 L 215.269531 301.925781 L 214.050781 302.273438 L 212.824219 302.605469 L 211.597656 302.929688 L 210.367188 303.238281 L 209.132812 303.535156 L 207.894531 303.820312 L 206.65625 304.09375 L 205.414062 304.355469 L 204.167969 304.601562 L 202.921875 304.835938 L 201.671875 305.058594 L 200.421875 305.269531 L 199.167969 305.46875 L 197.910156 305.652344 L 196.652344 305.828125 L 195.394531 305.988281 L 194.132812 306.132812 L 192.871094 306.269531 L 191.609375 306.390625 L 190.34375 306.503906 L 189.078125 306.597656 L 187.8125 306.683594 L 186.546875 306.753906 L 185.277344 306.8125 L 184.007812 306.859375 L 182.738281 306.894531 L 181.472656 306.914062 L 180.203125 306.925781 L 178.933594 306.917969 L 177.664062 306.902344 L 176.394531 306.871094 L 175.125 306.832031 L 173.859375 306.777344 L 172.589844 306.707031 L 171.324219 306.628906 L 170.058594 306.535156 L 168.792969 306.429688 L 167.53125 306.308594 L 166.265625 306.179688 L 165.007812 306.035156 L 163.746094 305.878906 L 162.488281 305.710938 L 161.230469 305.527344 L 159.976562 305.335938 L 158.726562 305.128906 L 157.476562 304.910156 L 156.226562 304.679688 L 154.980469 304.433594 L 153.738281 304.179688 L 152.5 303.910156 L 151.261719 303.628906 L 150.027344 303.335938 L 148.792969 303.027344 L 147.566406 302.710938 L 146.339844 302.378906 L 145.117188 302.035156 L 143.898438 301.683594 L 142.683594 301.316406 L 141.472656 300.9375 L 140.265625 300.542969 L 139.0625 300.140625 L 137.863281 299.726562 L 136.667969 299.296875 L 135.476562 298.859375 L 134.289062 298.40625 L 133.109375 297.945312 L 131.933594 297.46875 L 130.757812 296.984375 L 129.59375 296.484375 L 128.429688 295.976562 L 127.273438 295.453125 L 126.121094 294.921875 L 124.972656 294.375 L 123.832031 293.820312 L 122.699219 293.253906 L 121.566406 292.675781 L 120.445312 292.085938 L 119.328125 291.484375 L 118.214844 290.871094 L 117.109375 290.246094 L 116.011719 289.613281 L 114.917969 288.96875 L 113.832031 288.3125 L 112.75 287.644531 L 111.675781 286.964844 L 110.613281 286.277344 L 109.550781 285.578125 L 108.5 284.867188 L 107.453125 284.148438 L 106.417969 283.417969 L 105.386719 282.675781 L 104.363281 281.925781 L 103.347656 281.164062 L 102.339844 280.394531 L 101.339844 279.613281 L 100.347656 278.820312 L 99.363281 278.019531 L 98.386719 277.207031 L 97.417969 276.386719 L 96.460938 275.554688 L 95.507812 274.714844 L 94.566406 273.867188 L 93.632812 273.007812 L 92.707031 272.136719 L 91.789062 271.261719 L 90.878906 270.375 L 89.980469 269.480469 L 89.089844 268.574219 L 88.210938 267.660156 L 87.335938 266.738281 L 86.476562 265.808594 L 85.621094 264.867188 L 84.777344 263.917969 L 83.941406 262.964844 L 83.117188 262 L 82.304688 261.027344 L 81.496094 260.042969 L 80.703125 259.054688 L 79.917969 258.058594 L 79.140625 257.054688 L 78.375 256.042969 L 77.621094 255.023438 L 76.875 253.992188 L 76.140625 252.960938 L 75.417969 251.917969 L 74.703125 250.867188 L 74 249.8125 L 73.304688 248.746094 L 72.625 247.675781 L 71.953125 246.601562 L 71.292969 245.515625 L 70.640625 244.425781 L 70.003906 243.328125 L 69.375 242.226562 L 68.757812 241.117188 L 68.152344 240 L 67.558594 238.878906 L 66.976562 237.753906 L 66.402344 236.621094 L 65.84375 235.480469 L 65.292969 234.335938 L 64.757812 233.1875 L 64.230469 232.03125 L 63.714844 230.871094 L 63.214844 229.707031 L 62.722656 228.535156 L 62.242188 227.359375 L 61.773438 226.179688 L 61.320312 224.996094 L 60.875 223.808594 L 60.441406 222.613281 L 60.023438 221.414062 L 59.613281 220.214844 L 59.21875 219.007812 L 58.835938 217.796875 L 58.460938 216.585938 L 58.101562 215.367188 L 57.753906 214.148438 L 57.417969 212.921875 L 57.097656 211.695312 L 56.785156 210.464844 L 56.488281 209.230469 L 56.203125 207.996094 L 55.925781 206.753906 L 55.667969 205.511719 L 55.417969 204.269531 L 55.179688 203.023438 L 54.957031 201.773438 L 54.746094 200.519531 L 54.546875 199.265625 L 54.359375 198.011719 L 54.1875 196.753906 L 54.023438 195.496094 L 53.875 194.234375 L 53.742188 192.972656 L 53.617188 191.710938 L 53.507812 190.445312 L 53.40625 189.179688 L 53.324219 187.914062 L 53.25 186.644531 L 53.191406 185.378906 L 53.140625 184.109375 L 53.105469 182.839844 L 53.085938 181.574219 L 53.074219 180.304688 L 53.078125 179.035156 L 53.09375 177.765625 L 53.125 176.496094 L 53.164062 175.226562 L 53.21875 173.960938 L 53.285156 172.691406 L 53.367188 171.425781 L 53.457031 170.160156 L 53.5625 168.894531 L 53.679688 167.628906 L 53.808594 166.367188 L 53.953125 165.105469 L 54.109375 163.847656 L 54.277344 162.589844 L 54.457031 161.332031 L 54.648438 160.078125 L 54.855469 158.824219 L 55.070312 157.574219 L 55.304688 156.328125 L 55.546875 155.082031 L 55.800781 153.839844 L 56.070312 152.597656 L 56.347656 151.359375 L 56.640625 150.125 L 56.945312 148.890625 L 57.265625 147.664062 L 57.59375 146.4375 L 57.933594 145.214844 L 58.289062 143.996094 L 58.65625 142.78125 L 59.035156 141.570312 L 59.421875 140.363281 L 59.828125 139.15625 L 60.242188 137.957031 L 60.667969 136.761719 L 61.105469 135.570312 L 61.554688 134.386719 L 62.019531 133.203125 L 62.492188 132.027344 L 62.976562 130.851562 L 63.472656 129.683594 L 63.984375 128.523438 L 64.503906 127.363281 L 65.035156 126.210938 L 65.578125 125.066406 L 66.132812 123.925781 L 66.703125 122.789062 L 67.277344 121.660156 L 67.867188 120.535156 L 68.46875 119.414062 L 69.078125 118.304688 L 69.703125 117.199219 L 70.335938 116.097656 L 70.980469 115.003906 L 71.636719 113.917969 L 72.300781 112.835938 L 72.980469 111.761719 L 73.667969 110.695312 L 74.363281 109.636719 L 75.074219 108.582031 L 75.792969 107.539062 L 76.523438 106.5 L 77.261719 105.46875 L 78.011719 104.445312 L 78.773438 103.429688 L 79.546875 102.421875 L 80.324219 101.417969 L 81.117188 100.425781 L 81.917969 99.441406 L 82.726562 98.464844 L 83.546875 97.496094 L 84.378906 96.535156 L 85.21875 95.585938 L 86.066406 94.640625 L 86.925781 93.707031 L 87.792969 92.78125 L 88.667969 91.863281 L 89.554688 90.953125 L 90.449219 90.054688 L 91.355469 89.160156 L 92.265625 88.28125 L 93.1875 87.40625 L 94.117188 86.542969 L 95.058594 85.691406 L 96.003906 84.84375 L 96.960938 84.007812 L 97.925781 83.183594 L 98.894531 82.367188 L 99.875 81.5625 L 100.863281 80.765625 L 101.863281 79.980469 L 102.867188 79.203125 L 103.878906 78.4375 L 104.898438 77.679688 L 105.921875 76.933594 L 106.957031 76.199219 L 108 75.472656 L 109.046875 74.757812 L 110.105469 74.054688 L 111.167969 73.359375 L 112.238281 72.679688 L 113.3125 72.007812 L 114.398438 71.34375 L 115.488281 70.695312 L 116.582031 70.054688 L 117.6875 69.425781 L 118.792969 68.808594 L 119.910156 68.203125 L 121.03125 67.605469 L 122.15625 67.023438 L 123.289062 66.449219 L 124.429688 65.886719 L 125.570312 65.339844 L 126.722656 64.800781 L 127.875 64.273438 L 129.035156 63.757812 L 130.199219 63.253906 L 131.371094 62.761719 L 132.546875 62.28125 L 133.726562 61.8125 L 134.910156 61.355469 L 136.097656 60.910156 L 137.292969 60.476562 L 138.488281 60.054688 L 139.691406 59.648438 L 140.894531 59.25 L 142.105469 58.863281 L 143.316406 58.492188 L 144.535156 58.132812 L 145.753906 57.78125 L 146.980469 57.445312 L 148.207031 57.121094 L 149.4375 56.8125 L 150.671875 56.511719 L 151.90625 56.222656 L 153.144531 55.949219 L 154.386719 55.6875 L 155.632812 55.4375 L 156.878906 55.199219 L 158.128906 54.976562 L 159.378906 54.761719 L 160.632812 54.5625 L 161.886719 54.375 L 163.144531 54.199219 L 164.402344 54.039062 L 165.664062 53.886719 L 166.925781 53.75 L 168.1875 53.625 L 169.453125 53.515625 L 170.71875 53.414062 L 171.984375 53.328125 L 173.253906 53.253906 L 174.519531 53.195312 L 175.789062 53.144531 L 177.058594 53.109375 L 178.328125 53.085938 L 179.59375 53.078125 "/>
<path fill="none" stroke-width="1.066978" stroke-linecap="butt" stroke-linejoin="round" stroke="rgb(23.529412%, 57.647059%, 86.27451%)" stroke-opacity="1" stroke-miterlimit="10" d="M 180 21.34375 L 181.585938 21.351562 L 183.171875 21.375 L 184.757812 21.417969 L 186.34375 21.472656 L 187.929688 21.542969 L 189.511719 21.628906 L 191.097656 21.734375 L 192.679688 21.851562 L 194.257812 21.988281 L 195.839844 22.136719 L 197.417969 22.304688 L 198.992188 22.484375 L 200.566406 22.683594 L 202.140625 22.898438 L 203.707031 23.125 L 205.277344 23.371094 L 206.839844 23.632812 L 208.402344 23.910156 L 209.964844 24.199219 L 211.519531 24.507812 L 213.074219 24.832031 L 214.625 25.167969 L 216.167969 25.523438 L 217.710938 25.890625 L 219.25 26.277344 L 220.785156 26.675781 L 222.316406 27.09375 L 223.84375 27.523438 L 225.367188 27.96875 L 226.886719 28.429688 L 228.398438 28.90625 L 229.90625 29.398438 L 231.410156 29.90625 L 232.910156 30.425781 L 234.402344 30.964844 L 235.890625 31.515625 L 237.371094 32.082031 L 238.847656 32.664062 L 240.320312 33.257812 L 241.78125 33.867188 L 243.242188 34.496094 L 244.691406 35.132812 L 246.136719 35.789062 L 247.578125 36.457031 L 249.007812 37.140625 L 250.433594 37.835938 L 251.851562 38.546875 L 253.261719 39.273438 L 254.667969 40.011719 L 256.0625 40.765625 L 257.453125 41.535156 L 258.832031 42.316406 L 260.207031 43.109375 L 261.570312 43.921875 L 262.925781 44.742188 L 264.273438 45.578125 L 265.617188 46.429688 L 266.945312 47.289062 L 268.269531 48.167969 L 269.582031 49.054688 L 270.886719 49.957031 L 272.183594 50.875 L 273.472656 51.800781 L 274.746094 52.742188 L 276.015625 53.699219 L 277.273438 54.664062 L 278.523438 55.644531 L 279.761719 56.632812 L 280.988281 57.636719 L 282.207031 58.652344 L 283.417969 59.683594 L 284.613281 60.722656 L 285.800781 61.773438 L 286.980469 62.839844 L 288.144531 63.914062 L 289.300781 65 L 290.445312 66.101562 L 291.578125 67.210938 L 292.699219 68.332031 L 293.8125 69.464844 L 294.910156 70.609375 L 296 71.761719 L 297.078125 72.925781 L 298.140625 74.105469 L 299.195312 75.289062 L 300.234375 76.488281 L 301.265625 77.695312 L 302.28125 78.914062 L 303.285156 80.140625 L 304.277344 81.378906 L 305.257812 82.625 L 306.226562 83.882812 L 307.179688 85.152344 L 308.125 86.425781 L 309.050781 87.714844 L 309.96875 89.007812 L 310.871094 90.3125 L 311.761719 91.625 L 312.640625 92.949219 L 313.503906 94.277344 L 314.355469 95.617188 L 315.191406 96.964844 L 316.015625 98.320312 L 316.824219 99.6875 L 317.621094 101.058594 L 318.402344 102.4375 L 319.171875 103.824219 L 319.925781 105.222656 L 320.667969 106.625 L 321.394531 108.035156 L 322.105469 109.453125 L 322.804688 110.875 L 323.488281 112.308594 L 324.160156 113.746094 L 324.816406 115.191406 L 325.457031 116.644531 L 326.082031 118.101562 L 326.695312 119.5625 L 327.289062 121.035156 L 327.871094 122.511719 L 328.441406 123.992188 L 328.992188 125.480469 L 329.53125 126.972656 L 330.054688 128.46875 L 330.5625 129.972656 L 331.054688 131.480469 L 331.53125 132.992188 L 331.992188 134.511719 L 332.441406 136.035156 L 332.875 137.558594 L 333.289062 139.089844 L 333.691406 140.625 L 334.078125 142.164062 L 334.449219 143.707031 L 334.804688 145.253906 L 335.144531 146.804688 L 335.46875 148.355469 L 335.777344 149.914062 L 336.070312 151.472656 L 336.347656 153.035156 L 336.609375 154.597656 L 336.855469 156.167969 L 337.085938 157.734375 L 337.300781 159.308594 L 337.5 160.882812 L 337.683594 162.457031 L 337.851562 164.035156 L 338 165.613281 L 338.136719 167.195312 L 338.257812 168.777344 L 338.363281 170.359375 L 338.449219 171.945312 L 338.523438 173.53125 L 338.578125 175.113281 L 338.621094 176.699219 L 338.644531 178.289062 L 338.65625 179.875 L 338.648438 181.460938 L 338.625 183.046875 L 338.585938 184.632812 L 338.53125 186.21875 L 338.464844 187.804688 L 338.378906 189.386719 L 338.273438 190.972656 L 338.15625 192.554688 L 338.023438 194.132812 L 337.875 195.714844 L 337.710938 197.292969 L 337.527344 198.867188 L 337.332031 200.441406 L 337.121094 202.015625 L 336.890625 203.585938 L 336.648438 205.152344 L 336.390625 206.71875 L 336.113281 208.28125 L 335.824219 209.839844 L 335.519531 211.394531 L 335.195312 212.949219 L 334.859375 214.5 L 334.507812 216.046875 L 334.136719 217.589844 L 333.753906 219.128906 L 333.355469 220.664062 L 332.941406 222.195312 L 332.511719 223.722656 L 332.066406 225.246094 L 331.605469 226.765625 L 331.132812 228.277344 L 330.640625 229.789062 L 330.136719 231.292969 L 329.613281 232.789062 L 329.078125 234.285156 L 328.527344 235.773438 L 327.964844 237.253906 L 327.382812 238.730469 L 326.789062 240.203125 L 326.179688 241.667969 L 325.554688 243.125 L 324.917969 244.578125 L 324.265625 246.023438 L 323.597656 247.464844 L 322.914062 248.894531 L 322.21875 250.320312 L 321.507812 251.738281 L 320.785156 253.152344 L 320.046875 254.554688 L 319.292969 255.953125 L 318.527344 257.339844 L 317.746094 258.722656 L 316.953125 260.097656 L 316.144531 261.460938 L 315.324219 262.820312 L 314.488281 264.167969 L 313.640625 265.507812 L 312.777344 266.839844 L 311.902344 268.164062 L 311.015625 269.480469 L 310.113281 270.785156 L 309.199219 272.082031 L 308.273438 273.367188 L 307.332031 274.648438 L 306.378906 275.914062 L 305.414062 277.175781 L 304.4375 278.421875 L 303.445312 279.664062 L 302.441406 280.890625 L 301.425781 282.113281 L 300.398438 283.320312 L 299.359375 284.519531 L 298.308594 285.707031 L 297.246094 286.886719 L 296.171875 288.054688 L 295.085938 289.210938 L 293.988281 290.355469 L 292.878906 291.488281 L 291.757812 292.613281 L 290.625 293.722656 L 289.484375 294.824219 L 288.332031 295.914062 L 287.164062 296.992188 L 285.992188 298.058594 L 284.804688 299.109375 L 283.609375 300.152344 L 282.402344 301.183594 L 281.183594 302.203125 L 279.957031 303.207031 L 278.71875 304.199219 L 277.472656 305.179688 L 276.21875 306.148438 L 274.949219 307.105469 L 273.675781 308.046875 L 272.390625 308.980469 L 271.09375 309.898438 L 269.792969 310.800781 L 268.480469 311.691406 L 267.15625 312.570312 L 265.828125 313.433594 L 264.488281 314.285156 L 263.140625 315.125 L 261.785156 315.949219 L 260.421875 316.761719 L 259.050781 317.558594 L 257.671875 318.34375 L 256.285156 319.113281 L 254.890625 319.867188 L 253.488281 320.609375 L 252.078125 321.335938 L 250.660156 322.050781 L 249.238281 322.75 L 247.804688 323.4375 L 246.367188 324.105469 L 244.921875 324.761719 L 243.472656 325.40625 L 242.015625 326.03125 L 240.550781 326.644531 L 239.082031 327.242188 L 237.609375 327.828125 L 236.125 328.394531 L 234.640625 328.949219 L 233.148438 329.488281 L 231.648438 330.011719 L 230.148438 330.523438 L 228.640625 331.015625 L 227.128906 331.496094 L 225.609375 331.957031 L 224.085938 332.40625 L 222.5625 332.839844 L 221.03125 333.257812 L 219.496094 333.660156 L 217.957031 334.046875 L 216.414062 334.417969 L 214.871094 334.777344 L 213.320312 335.117188 L 211.765625 335.441406 L 210.210938 335.753906 L 208.652344 336.046875 L 207.089844 336.324219 L 205.527344 336.589844 L 203.957031 336.835938 L 202.390625 337.066406 L 200.816406 337.285156 L 199.242188 337.484375 L 197.667969 337.667969 L 196.089844 337.835938 L 194.511719 337.988281 L 192.929688 338.128906 L 191.347656 338.25 L 189.765625 338.355469 L 188.179688 338.445312 L 186.597656 338.519531 L 185.011719 338.574219 L 183.425781 338.617188 L 181.839844 338.644531 L 180.253906 338.65625 L 178.664062 338.648438 L 177.078125 338.628906 L 175.492188 338.589844 L 173.90625 338.539062 L 172.324219 338.46875 L 170.738281 338.382812 L 169.15625 338.285156 L 167.574219 338.167969 L 165.992188 338.035156 L 164.414062 337.886719 L 162.835938 337.722656 L 161.257812 337.542969 L 159.683594 337.347656 L 158.109375 337.136719 L 156.539062 336.910156 L 154.972656 336.667969 L 153.40625 336.410156 L 151.84375 336.136719 L 150.285156 335.847656 L 148.726562 335.542969 L 147.171875 335.222656 L 145.625 334.886719 L 144.074219 334.535156 L 142.53125 334.167969 L 140.992188 333.785156 L 139.457031 333.386719 L 137.925781 332.972656 L 136.398438 332.546875 L 134.875 332.101562 L 133.355469 331.644531 L 131.839844 331.167969 L 130.332031 330.679688 L 128.828125 330.175781 L 127.328125 329.65625 L 125.835938 329.121094 L 124.347656 328.574219 L 122.863281 328.011719 L 121.386719 327.429688 L 119.914062 326.835938 L 118.449219 326.230469 L 116.988281 325.605469 L 115.539062 324.96875 L 114.089844 324.316406 L 112.652344 323.652344 L 111.21875 322.96875 L 109.792969 322.277344 L 108.371094 321.566406 L 106.960938 320.84375 L 105.554688 320.105469 L 104.160156 319.355469 L 102.769531 318.589844 L 101.386719 317.808594 L 100.011719 317.015625 L 98.644531 316.210938 L 97.289062 315.390625 L 95.9375 314.554688 L 94.597656 313.707031 L 93.265625 312.847656 L 91.941406 311.972656 L 90.625 311.085938 L 89.320312 310.1875 L 88.019531 309.273438 L 86.734375 308.347656 L 85.453125 307.40625 L 84.183594 306.457031 L 82.925781 305.492188 L 81.675781 304.515625 L 80.433594 303.523438 L 79.203125 302.523438 L 77.984375 301.507812 L 76.773438 300.484375 L 75.574219 299.445312 L 74.386719 298.394531 L 73.207031 297.332031 L 72.039062 296.257812 L 70.882812 295.171875 L 69.734375 294.074219 L 68.601562 292.96875 L 67.476562 291.847656 L 66.363281 290.71875 L 65.261719 289.574219 L 64.171875 288.421875 L 63.09375 287.257812 L 62.027344 286.085938 L 60.972656 284.898438 L 59.929688 283.703125 L 58.898438 282.5 L 57.878906 281.28125 L 56.871094 280.054688 L 55.878906 278.820312 L 54.894531 277.574219 L 53.925781 276.316406 L 52.96875 275.050781 L 52.027344 273.777344 L 51.09375 272.492188 L 50.175781 271.199219 L 49.269531 269.894531 L 48.378906 268.585938 L 47.5 267.265625 L 46.632812 265.933594 L 45.78125 264.597656 L 44.941406 263.25 L 44.113281 261.894531 L 43.304688 260.53125 L 42.503906 259.160156 L 41.71875 257.78125 L 40.949219 256.394531 L 40.191406 255 L 39.449219 253.601562 L 38.71875 252.191406 L 38.003906 250.773438 L 37.304688 249.351562 L 36.617188 247.921875 L 35.945312 246.484375 L 35.289062 245.039062 L 34.644531 243.589844 L 34.015625 242.132812 L 33.402344 240.667969 L 32.804688 239.199219 L 32.21875 237.726562 L 31.648438 236.246094 L 31.09375 234.757812 L 30.554688 233.265625 L 30.027344 231.769531 L 29.519531 230.265625 L 29.023438 228.761719 L 28.542969 227.246094 L 28.078125 225.730469 L 27.628906 224.210938 L 27.195312 222.683594 L 26.773438 221.152344 L 26.371094 219.617188 L 25.980469 218.082031 L 25.609375 216.539062 L 25.25 214.992188 L 24.910156 213.445312 L 24.582031 211.890625 L 24.273438 210.335938 L 23.976562 208.777344 L 23.695312 207.214844 L 23.433594 205.652344 L 23.183594 204.082031 L 22.949219 202.515625 L 22.734375 200.941406 L 22.53125 199.371094 L 22.34375 197.792969 L 22.175781 196.214844 L 22.019531 194.636719 L 21.882812 193.058594 L 21.761719 191.476562 L 21.652344 189.890625 L 21.5625 188.308594 L 21.488281 186.722656 L 21.425781 185.136719 L 21.382812 183.550781 L 21.355469 181.964844 L 21.34375 180.378906 L 21.347656 178.792969 L 21.367188 177.207031 L 21.40625 175.621094 L 21.457031 174.035156 L 21.523438 172.449219 L 21.609375 170.863281 L 21.707031 169.28125 L 21.820312 167.699219 L 21.953125 166.117188 L 22.101562 164.539062 L 22.261719 162.960938 L 22.441406 161.382812 L 22.632812 159.808594 L 22.84375 158.234375 L 23.070312 156.664062 L 23.3125 155.097656 L 23.566406 153.53125 L 23.839844 151.96875 L 24.128906 150.410156 L 24.433594 148.851562 L 24.75 147.296875 L 25.085938 145.746094 L 25.4375 144.199219 L 25.800781 142.65625 L 26.183594 141.117188 L 26.578125 139.578125 L 26.992188 138.046875 L 27.417969 136.519531 L 27.863281 134.996094 L 28.320312 133.476562 L 28.792969 131.960938 L 29.28125 130.453125 L 29.78125 128.949219 L 30.300781 127.449219 L 30.832031 125.953125 L 31.382812 124.464844 L 31.945312 122.980469 L 32.523438 121.503906 L 33.113281 120.03125 L 33.722656 118.566406 L 34.34375 117.105469 L 34.980469 115.652344 L 35.628906 114.207031 L 36.296875 112.765625 L 36.976562 111.332031 L 37.667969 109.90625 L 38.375 108.484375 L 39.097656 107.074219 L 39.835938 105.667969 L 40.585938 104.269531 L 41.351562 102.878906 L 42.128906 101.496094 L 42.917969 100.121094 L 43.726562 98.753906 L 44.542969 97.394531 L 45.378906 96.046875 L 46.222656 94.703125 L 47.082031 93.371094 L 47.957031 92.046875 L 48.84375 90.730469 L 49.742188 89.421875 L 50.652344 88.125 L 51.578125 86.835938 L 52.515625 85.554688 L 53.46875 84.285156 L 54.429688 83.027344 L 55.40625 81.773438 L 56.394531 80.535156 L 57.398438 79.304688 L 58.410156 78.082031 L 59.433594 76.871094 L 60.472656 75.671875 L 61.523438 74.480469 L 62.582031 73.300781 L 63.65625 72.132812 L 64.738281 70.972656 L 65.835938 69.828125 L 66.945312 68.691406 L 68.0625 67.566406 L 69.191406 66.453125 L 70.332031 65.351562 L 71.484375 64.257812 L 72.648438 63.179688 L 73.820312 62.113281 L 75.003906 61.054688 L 76.199219 60.011719 L 77.40625 58.980469 L 78.621094 57.960938 L 79.847656 56.953125 L 81.082031 55.957031 L 82.328125 54.972656 L 83.582031 54.003906 L 84.847656 53.046875 L 86.121094 52.101562 L 87.40625 51.167969 L 88.699219 50.25 L 90 49.34375 L 91.3125 48.449219 L 92.628906 47.570312 L 93.960938 46.703125 L 95.296875 45.847656 L 96.640625 45.007812 L 97.996094 44.179688 L 99.359375 43.367188 L 100.730469 42.566406 L 102.105469 41.78125 L 103.492188 41.011719 L 104.886719 40.253906 L 106.289062 39.507812 L 107.695312 38.777344 L 109.113281 38.0625 L 110.535156 37.359375 L 111.964844 36.671875 L 113.402344 36 L 114.84375 35.339844 L 116.296875 34.695312 L 117.75 34.066406 L 119.214844 33.453125 L 120.683594 32.851562 L 122.15625 32.265625 L 123.636719 31.695312 L 125.121094 31.136719 L 126.613281 30.597656 L 128.109375 30.070312 L 129.613281 29.558594 L 131.121094 29.0625 L 132.632812 28.582031 L 134.148438 28.113281 L 135.667969 27.664062 L 137.195312 27.226562 L 138.722656 26.808594 L 140.257812 26.402344 L 141.796875 26.011719 L 143.339844 25.640625 L 144.882812 25.28125 L 146.433594 24.9375 L 147.984375 24.609375 L 149.539062 24.296875 L 151.097656 24 L 152.660156 23.71875 L 154.222656 23.453125 L 155.792969 23.203125 L 157.359375 22.96875 L 158.933594 22.75 L 160.503906 22.546875 L 162.082031 22.359375 L 163.65625 22.1875 L 165.238281 22.035156 L 166.816406 21.894531 L 168.398438 21.769531 L 169.980469 21.660156 L 171.566406 21.570312 L 173.148438 21.492188 L 174.734375 21.433594 L 176.320312 21.386719 L 177.90625 21.359375 L 179.496094 21.347656 "/>
<g fill="rgb(0%, 0%, 0%)" fill-opacity="1">
<use xlink:href="#glyph-0-0" x="180.96875" y="201.359375"/>
</g>
<g fill="rgb(0%, 0%, 0%)" fill-opacity="1">
<use xlink:href="#glyph-0-1" x="185.824219" y="232.457031"/>
</g>
<g fill="rgb(0%, 0%, 0%)" fill-opacity="1">
<use xlink:href="#glyph-0-2" x="190.753906" y="264.015625"/>
</g>
<g fill="rgb(0%, 0%, 0%)" fill-opacity="1">
<use xlink:href="#glyph-0-3" x="195.609375" y="295.113281"/>
</g>
<g fill="rgb(0%, 0%, 0%)" fill-opacity="1">
<use xlink:href="#glyph-0-4" x="200.535156" y="326.675781"/>
</g>
</svg>
