<?xml version="1.0" encoding="UTF-8"?>
<svg xmlns="http://www.w3.org/2000/svg" xmlns:xlink="http://www.w3.org/1999/xlink" width="288pt" height="288pt" viewBox="0 0 288 288" version="1.1">
<defs>
<clipPath id="clip1">
  <path d="M 8.21875 5.480469 L 282.519531 5.480469 L 282.519531 279.78125 L 8.21875 279.78125 Z M 8.21875 5.480469 "/>
</clipPath>
</defs>
<g id="surface6264">
<rect x="0" y="0" width="288" height="288" style="fill:rgb(100%,100%,100%);fill-opacity:1;stroke:none;"/>
<rect x="0" y="0" width="288" height="288" style="fill:rgb(93.333333%,93.333333%,93.333333%);fill-opacity:1;stroke:none;"/>
<g clip-path="url(#clip1)" clip-rule="nonzero">
<path style=" stroke:none;fill-rule:nonzero;fill:rgb(93.333333%,93.333333%,93.333333%);fill-opacity:1;" d="M 8.21875 279.78125 L 282.519531 279.78125 L 282.519531 5.480469 L 8.21875 5.480469 Z M 8.21875 279.78125 "/>
</g>
<path style="fill:none;stroke-width:0.708661;stroke-linecap:round;stroke-linejoin:round;stroke:rgb(18.431373%,30.980392%,30.980392%);stroke-opacity:1;stroke-miterlimit:10;" d="M 31.710938 267.3125 C 31.710938 273.402344 26.777344 278.335938 20.6875 278.335938 C 14.597656 278.335938 9.664062 273.402344 9.664062 267.3125 C 9.664062 261.222656 14.597656 256.289062 20.6875 256.289062 C 26.777344 256.289062 31.710938 261.222656 31.710938 267.3125 "/>
<path style="fill:none;stroke-width:0.708661;stroke-linecap:round;stroke-linejoin:round;stroke:rgb(18.431373%,30.980392%,30.980392%);stroke-opacity:1;stroke-miterlimit:10;" d="M 59.417969 267.3125 C 59.417969 273.402344 54.484375 278.335938 48.394531 278.335938 C 42.304688 278.335938 37.371094 273.402344 37.371094 267.3125 C 37.371094 261.222656 42.304688 256.289062 48.394531 256.289062 C 54.484375 256.289062 59.417969 261.222656 59.417969 267.3125 "/>
<path style="fill:none;stroke-width:0.708661;stroke-linecap:round;stroke-linejoin:round;stroke:rgb(18.431373%,30.980392%,30.980392%);stroke-opacity:1;stroke-miterlimit:10;" d="M 87.125 267.3125 C 87.125 273.402344 82.191406 278.335938 76.101562 278.335938 C 70.011719 278.335938 65.078125 273.402344 65.078125 267.3125 C 65.078125 261.222656 70.011719 256.289062 76.101562 256.289062 C 82.191406 256.289062 87.125 261.222656 87.125 267.3125 "/>
<path style="fill:none;stroke-width:0.708661;stroke-linecap:round;stroke-linejoin:round;stroke:rgb(18.431373%,30.980392%,30.980392%);stroke-opacity:1;stroke-miterlimit:10;" d="M 114.832031 267.3125 C 114.832031 273.402344 109.898438 278.335938 103.808594 278.335938 C 97.71875 278.335938 92.785156 273.402344 92.785156 267.3125 C 92.785156 261.222656 97.71875 256.289062 103.808594 256.289062 C 109.898438 256.289062 114.832031 261.222656 114.832031 267.3125 "/>
<path style="fill:none;stroke-width:0.708661;stroke-linecap:round;stroke-linejoin:round;stroke:rgb(18.431373%,30.980392%,30.980392%);stroke-opacity:1;stroke-miterlimit:10;" d="M 142.539062 267.3125 C 142.539062 273.402344 137.605469 278.335938 131.515625 278.335938 C 125.429688 278.335938 120.492188 273.402344 120.492188 267.3125 C 120.492188 261.222656 125.429688 256.289062 131.515625 256.289062 C 137.605469 256.289062 142.539062 261.222656 142.539062 267.3125 "/>
<path style="fill:none;stroke-width:0.708661;stroke-linecap:round;stroke-linejoin:round;stroke:rgb(18.431373%,30.980392%,30.980392%);stroke-opacity:1;stroke-miterlimit:10;" d="M 170.246094 267.3125 C 170.246094 273.402344 165.3125 278.335938 159.222656 278.335938 C 153.136719 278.335938 148.199219 273.402344 148.199219 267.3125 C 148.199219 261.222656 153.136719 256.289062 159.222656 256.289062 C 165.3125 256.289062 170.246094 261.222656 170.246094 267.3125 "/>
<path style="fill:none;stroke-width:0.708661;stroke-linecap:round;stroke-linejoin:round;stroke:rgb(18.431373%,30.980392%,30.980392%);stroke-opacity:1;stroke-miterlimit:10;" d="M 197.953125 267.3125 C 197.953125 273.402344 193.019531 278.335938 186.929688 278.335938 C 180.84375 278.335938 175.90625 273.402344 175.90625 267.3125 C 175.90625 261.222656 180.84375 256.289062 186.929688 256.289062 C 193.019531 256.289062 197.953125 261.222656 197.953125 267.3125 "/>
<path style="fill:none;stroke-width:0.708661;stroke-linecap:round;stroke-linejoin:round;stroke:rgb(18.431373%,30.980392%,30.980392%);stroke-opacity:1;stroke-miterlimit:10;" d="M 225.660156 267.3125 C 225.660156 273.402344 220.726562 278.335938 214.636719 278.335938 C 208.550781 278.335938 203.613281 273.402344 203.613281 267.3125 C 203.613281 261.222656 208.550781 256.289062 214.636719 256.289062 C 220.726562 256.289062 225.660156 261.222656 225.660156 267.3125 "/>
<path style="fill:none;stroke-width:0.708661;stroke-linecap:round;stroke-linejoin:round;stroke:rgb(18.431373%,30.980392%,30.980392%);stroke-opacity:1;stroke-miterlimit:10;" d="M 253.371094 267.3125 C 253.371094 273.402344 248.433594 278.335938 242.34375 278.335938 C 236.257812 278.335938 231.320312 273.402344 231.320312 267.3125 C 231.320312 261.222656 236.257812 256.289062 242.34375 256.289062 C 248.433594 256.289062 253.371094 261.222656 253.371094 267.3125 "/>
<path style="fill:none;stroke-width:0.708661;stroke-linecap:round;stroke-linejoin:round;stroke:rgb(18.431373%,30.980392%,30.980392%);stroke-opacity:1;stroke-miterlimit:10;" d="M 281.078125 267.3125 C 281.078125 273.402344 276.140625 278.335938 270.050781 278.335938 C 263.964844 278.335938 259.027344 273.402344 259.027344 267.3125 C 259.027344 261.222656 263.964844 256.289062 270.050781 256.289062 C 276.140625 256.289062 281.078125 261.222656 281.078125 267.3125 "/>
<path style="fill:none;stroke-width:0.708661;stroke-linecap:round;stroke-linejoin:round;stroke:rgb(18.431373%,30.980392%,30.980392%);stroke-opacity:1;stroke-miterlimit:10;" d="M 31.710938 239.605469 C 31.710938 245.695312 26.777344 250.628906 20.6875 250.628906 C 14.597656 250.628906 9.664062 245.695312 9.664062 239.605469 C 9.664062 233.515625 14.597656 228.582031 20.6875 228.582031 C 26.777344 228.582031 31.710938 233.515625 31.710938 239.605469 "/>
<path style="fill:none;stroke-width:0.708661;stroke-linecap:round;stroke-linejoin:round;stroke:rgb(18.431373%,30.980392%,30.980392%);stroke-opacity:1;stroke-miterlimit:10;" d="M 59.417969 239.605469 C 59.417969 245.695312 54.484375 250.628906 48.394531 250.628906 C 42.304688 250.628906 37.371094 245.695312 37.371094 239.605469 C 37.371094 233.515625 42.304688 228.582031 48.394531 228.582031 C 54.484375 228.582031 59.417969 233.515625 59.417969 239.605469 "/>
<path style="fill:none;stroke-width:0.708661;stroke-linecap:round;stroke-linejoin:round;stroke:rgb(18.431373%,30.980392%,30.980392%);stroke-opacity:1;stroke-miterlimit:10;" d="M 87.125 239.605469 C 87.125 245.695312 82.191406 250.628906 76.101562 250.628906 C 70.011719 250.628906 65.078125 245.695312 65.078125 239.605469 C 65.078125 233.515625 70.011719 228.582031 76.101562 228.582031 C 82.191406 228.582031 87.125 233.515625 87.125 239.605469 "/>
<path style="fill:none;stroke-width:0.708661;stroke-linecap:round;stroke-linejoin:round;stroke:rgb(18.431373%,30.980392%,30.980392%);stroke-opacity:1;stroke-miterlimit:10;" d="M 114.832031 239.605469 C 114.832031 245.695312 109.898438 250.628906 103.808594 250.628906 C 97.71875 250.628906 92.785156 245.695312 92.785156 239.605469 C 92.785156 233.515625 97.71875 228.582031 103.808594 228.582031 C 109.898438 228.582031 114.832031 233.515625 114.832031 239.605469 "/>
<path style="fill:none;stroke-width:0.708661;stroke-linecap:round;stroke-linejoin:round;stroke:rgb(18.431373%,30.980392%,30.980392%);stroke-opacity:1;stroke-miterlimit:10;" d="M 142.539062 239.605469 C 142.539062 245.695312 137.605469 250.628906 131.515625 250.628906 C 125.429688 250.628906 120.492188 245.695312 120.492188 239.605469 C 120.492188 233.515625 125.429688 228.582031 131.515625 228.582031 C 137.605469 228.582031 142.539062 233.515625 142.539062 239.605469 "/>
<path style="fill:none;stroke-width:0.708661;stroke-linecap:round;stroke-linejoin:round;stroke:rgb(18.431373%,30.980392%,30.980392%);stroke-opacity:1;stroke-miterlimit:10;" d="M 170.246094 239.605469 C 170.246094 245.695312 165.3125 250.628906 159.222656 250.628906 C 153.136719 250.628906 148.199219 245.695312 148.199219 239.605469 C 148.199219 233.515625 153.136719 228.582031 159.222656 228.582031 C 165.3125 228.582031 170.246094 233.515625 170.246094 239.605469 "/>
<path style="fill:none;stroke-width:0.708661;stroke-linecap:round;stroke-linejoin:round;stroke:rgb(18.431373%,30.980392%,30.980392%);stroke-opacity:1;stroke-miterlimit:10;" d="M 197.953125 239.605469 C 197.953125 245.695312 193.019531 250.628906 186.929688 250.628906 C 180.84375 250.628906 175.90625 245.695312 175.90625 239.605469 C 175.90625 233.515625 180.84375 228.582031 186.929688 228.582031 C 193.019531 228.582031 197.953125 233.515625 197.953125 239.605469 "/>
<path style="fill-rule:nonzero;fill:rgb(18.431373%,30.980392%,30.980392%);fill-opacity:1;stroke-width:0.708661;stroke-linecap:round;stroke-linejoin:round;stroke:rgb(18.431373%,30.980392%,30.980392%);stroke-opacity:1;stroke-miterlimit:10;" d="M 225.660156 239.605469 C 225.660156 245.695312 220.726562 250.628906 214.636719 250.628906 C 208.550781 250.628906 203.613281 245.695312 203.613281 239.605469 C 203.613281 233.515625 208.550781 228.582031 214.636719 228.582031 C 220.726562 228.582031 225.660156 233.515625 225.660156 239.605469 "/>
<path style="fill:none;stroke-width:0.708661;stroke-linecap:round;stroke-linejoin:round;stroke:rgb(18.431373%,30.980392%,30.980392%);stroke-opacity:1;stroke-miterlimit:10;" d="M 253.371094 239.605469 C 253.371094 245.695312 248.433594 250.628906 242.34375 250.628906 C 236.257812 250.628906 231.320312 245.695312 231.320312 239.605469 C 231.320312 233.515625 236.257812 228.582031 242.34375 228.582031 C 248.433594 228.582031 253.371094 233.515625 253.371094 239.605469 "/>
<path style="fill:none;stroke-width:0.708661;stroke-linecap:round;stroke-linejoin:round;stroke:rgb(18.431373%,30.980392%,30.980392%);stroke-opacity:1;stroke-miterlimit:10;" d="M 281.078125 239.605469 C 281.078125 245.695312 276.140625 250.628906 270.050781 250.628906 C 263.964844 250.628906 259.027344 245.695312 259.027344 239.605469 C 259.027344 233.515625 263.964844 228.582031 270.050781 228.582031 C 276.140625 228.582031 281.078125 233.515625 281.078125 239.605469 "/>
<path style="fill:none;stroke-width:0.708661;stroke-linecap:round;stroke-linejoin:round;stroke:rgb(18.431373%,30.980392%,30.980392%);stroke-opacity:1;stroke-miterlimit:10;" d="M 31.710938 211.898438 C 31.710938 217.988281 26.777344 222.921875 20.6875 222.921875 C 14.597656 222.921875 9.664062 217.988281 9.664062 211.898438 C 9.664062 205.808594 14.597656 200.875 20.6875 200.875 C 26.777344 200.875 31.710938 205.808594 31.710938 211.898438 "/>
<path style="fill:none;stroke-width:0.708661;stroke-linecap:round;stroke-linejoin:round;stroke:rgb(18.431373%,30.980392%,30.980392%);stroke-opacity:1;stroke-miterlimit:10;" d="M 59.417969 211.898438 C 59.417969 217.988281 54.484375 222.921875 48.394531 222.921875 C 42.304688 222.921875 37.371094 217.988281 37.371094 211.898438 C 37.371094 205.808594 42.304688 200.875 48.394531 200.875 C 54.484375 200.875 59.417969 205.808594 59.417969 211.898438 "/>
<path style="fill:none;stroke-width:0.708661;stroke-linecap:round;stroke-linejoin:round;stroke:rgb(18.431373%,30.980392%,30.980392%);stroke-opacity:1;stroke-miterlimit:10;" d="M 87.125 211.898438 C 87.125 217.988281 82.191406 222.921875 76.101562 222.921875 C 70.011719 222.921875 65.078125 217.988281 65.078125 211.898438 C 65.078125 205.808594 70.011719 200.875 76.101562 200.875 C 82.191406 200.875 87.125 205.808594 87.125 211.898438 "/>
<path style="fill:none;stroke-width:0.708661;stroke-linecap:round;stroke-linejoin:round;stroke:rgb(18.431373%,30.980392%,30.980392%);stroke-opacity:1;stroke-miterlimit:10;" d="M 114.832031 211.898438 C 114.832031 217.988281 109.898438 222.921875 103.808594 222.921875 C 97.71875 222.921875 92.785156 217.988281 92.785156 211.898438 C 92.785156 205.808594 97.71875 200.875 103.808594 200.875 C 109.898438 200.875 114.832031 205.808594 114.832031 211.898438 "/>
<path style="fill:none;stroke-width:0.708661;stroke-linecap:round;stroke-linejoin:round;stroke:rgb(18.431373%,30.980392%,30.980392%);stroke-opacity:1;stroke-miterlimit:10;" d="M 142.539062 211.898438 C 142.539062 217.988281 137.605469 222.921875 131.515625 222.921875 C 125.429688 222.921875 120.492188 217.988281 120.492188 211.898438 C 120.492188 205.808594 125.429688 200.875 131.515625 200.875 C 137.605469 200.875 142.539062 205.808594 142.539062 211.898438 "/>
<path style="fill:none;stroke-width:0.708661;stroke-linecap:round;stroke-linejoin:round;stroke:rgb(18.431373%,30.980392%,30.980392%);stroke-opacity:1;stroke-miterlimit:10;" d="M 170.246094 211.898438 C 170.246094 217.988281 165.3125 222.921875 159.222656 222.921875 C 153.136719 222.921875 148.199219 217.988281 148.199219 211.898438 C 148.199219 205.808594 153.136719 200.875 159.222656 200.875 C 165.3125 200.875 170.246094 205.808594 170.246094 211.898438 "/>
<path style="fill-rule:nonzero;fill:rgb(18.431373%,30.980392%,30.980392%);fill-opacity:1;stroke-width:0.708661;stroke-linecap:round;stroke-linejoin:round;stroke:rgb(18.431373%,30.980392%,30.980392%);stroke-opacity:1;stroke-miterlimit:10;" d="M 197.953125 211.898438 C 197.953125 217.988281 193.019531 222.921875 186.929688 222.921875 C 180.84375 222.921875 175.90625 217.988281 175.90625 211.898438 C 175.90625 205.808594 180.84375 200.875 186.929688 200.875 C 193.019531 200.875 197.953125 205.808594 197.953125 211.898438 "/>
<path style="fill:none;stroke-width:0.708661;stroke-linecap:round;stroke-linejoin:round;stroke:rgb(18.431373%,30.980392%,30.980392%);stroke-opacity:1;stroke-miterlimit:10;" d="M 225.660156 211.898438 C 225.660156 217.988281 220.726562 222.921875 214.636719 222.921875 C 208.550781 222.921875 203.613281 217.988281 203.613281 211.898438 C 203.613281 205.808594 208.550781 200.875 214.636719 200.875 C 220.726562 200.875 225.660156 205.808594 225.660156 211.898438 "/>
<path style="fill-rule:nonzero;fill:rgb(18.431373%,30.980392%,30.980392%);fill-opacity:1;stroke-width:0.708661;stroke-linecap:round;stroke-linejoin:round;stroke:rgb(18.431373%,30.980392%,30.980392%);stroke-opacity:1;stroke-miterlimit:10;" d="M 253.371094 211.898438 C 253.371094 217.988281 248.433594 222.921875 242.34375 222.921875 C 236.257812 222.921875 231.320312 217.988281 231.320312 211.898438 C 231.320312 205.808594 236.257812 200.875 242.34375 200.875 C 248.433594 200.875 253.371094 205.808594 253.371094 211.898438 "/>
<path style="fill:none;stroke-width:0.708661;stroke-linecap:round;stroke-linejoin:round;stroke:rgb(18.431373%,30.980392%,30.980392%);stroke-opacity:1;stroke-miterlimit:10;" d="M 281.078125 211.898438 C 281.078125 217.988281 276.140625 222.921875 270.050781 222.921875 C 263.964844 222.921875 259.027344 217.988281 259.027344 211.898438 C 259.027344 205.808594 263.964844 200.875 270.050781 200.875 C 276.140625 200.875 281.078125 205.808594 281.078125 211.898438 "/>
<path style="fill:none;stroke-width:0.708661;stroke-linecap:round;stroke-linejoin:round;stroke:rgb(18.431373%,30.980392%,30.980392%);stroke-opacity:1;stroke-miterlimit:10;" d="M 31.710938 184.191406 C 31.710938 190.28125 26.777344 195.214844 20.6875 195.214844 C 14.597656 195.214844 9.664062 190.28125 9.664062 184.191406 C 9.664062 178.101562 14.597656 173.167969 20.6875 173.167969 C 26.777344 173.167969 31.710938 178.101562 31.710938 184.191406 "/>
<path style="fill:none;stroke-width:0.708661;stroke-linecap:round;stroke-linejoin:round;stroke:rgb(18.431373%,30.980392%,30.980392%);stroke-opacity:1;stroke-miterlimit:10;" d="M 59.417969 184.191406 C 59.417969 190.28125 54.484375 195.214844 48.394531 195.214844 C 42.304688 195.214844 37.371094 190.28125 37.371094 184.191406 C 37.371094 178.101562 42.304688 173.167969 48.394531 173.167969 C 54.484375 173.167969 59.417969 178.101562 59.417969 184.191406 "/>
<path style="fill:none;stroke-width:0.708661;stroke-linecap:round;stroke-linejoin:round;stroke:rgb(18.431373%,30.980392%,30.980392%);stroke-opacity:1;stroke-miterlimit:10;" d="M 87.125 184.191406 C 87.125 190.28125 82.191406 195.214844 76.101562 195.214844 C 70.011719 195.214844 65.078125 190.28125 65.078125 184.191406 C 65.078125 178.101562 70.011719 173.167969 76.101562 173.167969 C 82.191406 173.167969 87.125 178.101562 87.125 184.191406 "/>
<path style="fill:none;stroke-width:0.708661;stroke-linecap:round;stroke-linejoin:round;stroke:rgb(18.431373%,30.980392%,30.980392%);stroke-opacity:1;stroke-miterlimit:10;" d="M 114.832031 184.191406 C 114.832031 190.28125 109.898438 195.214844 103.808594 195.214844 C 97.71875 195.214844 92.785156 190.28125 92.785156 184.191406 C 92.785156 178.101562 97.71875 173.167969 103.808594 173.167969 C 109.898438 173.167969 114.832031 178.101562 114.832031 184.191406 "/>
<path style="fill:none;stroke-width:0.708661;stroke-linecap:round;stroke-linejoin:round;stroke:rgb(18.431373%,30.980392%,30.980392%);stroke-opacity:1;stroke-miterlimit:10;" d="M 142.539062 184.191406 C 142.539062 190.28125 137.605469 195.214844 131.515625 195.214844 C 125.429688 195.214844 120.492188 190.28125 120.492188 184.191406 C 120.492188 178.101562 125.429688 173.167969 131.515625 173.167969 C 137.605469 173.167969 142.539062 178.101562 142.539062 184.191406 "/>
<path style="fill:none;stroke-width:0.708661;stroke-linecap:round;stroke-linejoin:round;stroke:rgb(18.431373%,30.980392%,30.980392%);stroke-opacity:1;stroke-miterlimit:10;" d="M 170.246094 184.191406 C 170.246094 190.28125 165.3125 195.214844 159.222656 195.214844 C 153.136719 195.214844 148.199219 190.28125 148.199219 184.191406 C 148.199219 178.101562 153.136719 173.167969 159.222656 173.167969 C 165.3125 173.167969 170.246094 178.101562 170.246094 184.191406 "/>
<path style="fill:none;stroke-width:0.708661;stroke-linecap:round;stroke-linejoin:round;stroke:rgb(18.431373%,30.980392%,30.980392%);stroke-opacity:1;stroke-miterlimit:10;" d="M 197.953125 184.191406 C 197.953125 190.28125 193.019531 195.214844 186.929688 195.214844 C 180.84375 195.214844 175.90625 190.28125 175.90625 184.191406 C 175.90625 178.101562 180.84375 173.167969 186.929688 173.167969 C 193.019531 173.167969 197.953125 178.101562 197.953125 184.191406 "/>
<path style="fill:none;stroke-width:0.708661;stroke-linecap:round;stroke-linejoin:round;stroke:rgb(18.431373%,30.980392%,30.980392%);stroke-opacity:1;stroke-miterlimit:10;" d="M 225.660156 184.191406 C 225.660156 190.28125 220.726562 195.214844 214.636719 195.214844 C 208.550781 195.214844 203.613281 190.28125 203.613281 184.191406 C 203.613281 178.101562 208.550781 173.167969 214.636719 173.167969 C 220.726562 173.167969 225.660156 178.101562 225.660156 184.191406 "/>
<path style="fill:none;stroke-width:0.708661;stroke-linecap:round;stroke-linejoin:round;stroke:rgb(18.431373%,30.980392%,30.980392%);stroke-opacity:1;stroke-miterlimit:10;" d="M 253.371094 184.191406 C 253.371094 190.28125 248.433594 195.214844 242.34375 195.214844 C 236.257812 195.214844 231.320312 190.28125 231.320312 184.191406 C 231.320312 178.101562 236.257812 173.167969 242.34375 173.167969 C 248.433594 173.167969 253.371094 178.101562 253.371094 184.191406 "/>
<path style="fill:none;stroke-width:0.708661;stroke-linecap:round;stroke-linejoin:round;stroke:rgb(18.431373%,30.980392%,30.980392%);stroke-opacity:1;stroke-miterlimit:10;" d="M 281.078125 184.191406 C 281.078125 190.28125 276.140625 195.214844 270.050781 195.214844 C 263.964844 195.214844 259.027344 190.28125 259.027344 184.191406 C 259.027344 178.101562 263.964844 173.167969 270.050781 173.167969 C 276.140625 173.167969 281.078125 178.101562 281.078125 184.191406 "/>
<path style="fill:none;stroke-width:0.708661;stroke-linecap:round;stroke-linejoin:round;stroke:rgb(18.431373%,30.980392%,30.980392%);stroke-opacity:1;stroke-miterlimit:10;" d="M 31.710938 156.484375 C 31.710938 162.570312 26.777344 167.507812 20.6875 167.507812 C 14.597656 167.507812 9.664062 162.570312 9.664062 156.484375 C 9.664062 150.394531 14.597656 145.460938 20.6875 145.460938 C 26.777344 145.460938 31.710938 150.394531 31.710938 156.484375 "/>
<path style="fill-rule:nonzero;fill:rgb(18.431373%,30.980392%,30.980392%);fill-opacity:1;stroke-width:0.708661;stroke-linecap:round;stroke-linejoin:round;stroke:rgb(18.431373%,30.980392%,30.980392%);stroke-opacity:1;stroke-miterlimit:10;" d="M 59.417969 156.484375 C 59.417969 162.570312 54.484375 167.507812 48.394531 167.507812 C 42.304688 167.507812 37.371094 162.570312 37.371094 156.484375 C 37.371094 150.394531 42.304688 145.460938 48.394531 145.460938 C 54.484375 145.460938 59.417969 150.394531 59.417969 156.484375 "/>
<path style="fill-rule:nonzero;fill:rgb(18.431373%,30.980392%,30.980392%);fill-opacity:1;stroke-width:0.708661;stroke-linecap:round;stroke-linejoin:round;stroke:rgb(18.431373%,30.980392%,30.980392%);stroke-opacity:1;stroke-miterlimit:10;" d="M 87.125 156.484375 C 87.125 162.570312 82.191406 167.507812 76.101562 167.507812 C 70.011719 167.507812 65.078125 162.570312 65.078125 156.484375 C 65.078125 150.394531 70.011719 145.460938 76.101562 145.460938 C 82.191406 145.460938 87.125 150.394531 87.125 156.484375 "/>
<path style="fill:none;stroke-width:0.708661;stroke-linecap:round;stroke-linejoin:round;stroke:rgb(18.431373%,30.980392%,30.980392%);stroke-opacity:1;stroke-miterlimit:10;" d="M 114.832031 156.484375 C 114.832031 162.570312 109.898438 167.507812 103.808594 167.507812 C 97.71875 167.507812 92.785156 162.570312 92.785156 156.484375 C 92.785156 150.394531 97.71875 145.460938 103.808594 145.460938 C 109.898438 145.460938 114.832031 150.394531 114.832031 156.484375 "/>
<path style="fill:none;stroke-width:0.708661;stroke-linecap:round;stroke-linejoin:round;stroke:rgb(18.431373%,30.980392%,30.980392%);stroke-opacity:1;stroke-miterlimit:10;" d="M 142.539062 156.484375 C 142.539062 162.570312 137.605469 167.507812 131.515625 167.507812 C 125.429688 167.507812 120.492188 162.570312 120.492188 156.484375 C 120.492188 150.394531 125.429688 145.460938 131.515625 145.460938 C 137.605469 145.460938 142.539062 150.394531 142.539062 156.484375 "/>
<path style="fill:none;stroke-width:0.708661;stroke-linecap:round;stroke-linejoin:round;stroke:rgb(18.431373%,30.980392%,30.980392%);stroke-opacity:1;stroke-miterlimit:10;" d="M 170.246094 156.484375 C 170.246094 162.570312 165.3125 167.507812 159.222656 167.507812 C 153.136719 167.507812 148.199219 162.570312 148.199219 156.484375 C 148.199219 150.394531 153.136719 145.460938 159.222656 145.460938 C 165.3125 145.460938 170.246094 150.394531 170.246094 156.484375 "/>
<path style="fill:none;stroke-width:0.708661;stroke-linecap:round;stroke-linejoin:round;stroke:rgb(18.431373%,30.980392%,30.980392%);stroke-opacity:1;stroke-miterlimit:10;" d="M 197.953125 156.484375 C 197.953125 162.570312 193.019531 167.507812 186.929688 167.507812 C 180.84375 167.507812 175.90625 162.570312 175.90625 156.484375 C 175.90625 150.394531 180.84375 145.460938 186.929688 145.460938 C 193.019531 145.460938 197.953125 150.394531 197.953125 156.484375 "/>
<path style="fill-rule:nonzero;fill:rgb(18.431373%,30.980392%,30.980392%);fill-opacity:1;stroke-width:0.708661;stroke-linecap:round;stroke-linejoin:round;stroke:rgb(18.431373%,30.980392%,30.980392%);stroke-opacity:1;stroke-miterlimit:10;" d="M 225.660156 156.484375 C 225.660156 162.570312 220.726562 167.507812 214.636719 167.507812 C 208.550781 167.507812 203.613281 162.570312 203.613281 156.484375 C 203.613281 150.394531 208.550781 145.460938 214.636719 145.460938 C 220.726562 145.460938 225.660156 150.394531 225.660156 156.484375 "/>
<path style="fill:none;stroke-width:0.708661;stroke-linecap:round;stroke-linejoin:round;stroke:rgb(18.431373%,30.980392%,30.980392%);stroke-opacity:1;stroke-miterlimit:10;" d="M 253.371094 156.484375 C 253.371094 162.570312 248.433594 167.507812 242.34375 167.507812 C 236.257812 167.507812 231.320312 162.570312 231.320312 156.484375 C 231.320312 150.394531 236.257812 145.460938 242.34375 145.460938 C 248.433594 145.460938 253.371094 150.394531 253.371094 156.484375 "/>
<path style="fill:none;stroke-width:0.708661;stroke-linecap:round;stroke-linejoin:round;stroke:rgb(18.431373%,30.980392%,30.980392%);stroke-opacity:1;stroke-miterlimit:10;" d="M 281.078125 156.484375 C 281.078125 162.570312 276.140625 167.507812 270.050781 167.507812 C 263.964844 167.507812 259.027344 162.570312 259.027344 156.484375 C 259.027344 150.394531 263.964844 145.460938 270.050781 145.460938 C 276.140625 145.460938 281.078125 150.394531 281.078125 156.484375 "/>
<path style="fill:none;stroke-width:0.708661;stroke-linecap:round;stroke-linejoin:round;stroke:rgb(18.431373%,30.980392%,30.980392%);stroke-opacity:1;stroke-miterlimit:10;" d="M 31.710938 128.777344 C 31.710938 134.863281 26.777344 139.800781 20.6875 139.800781 C 14.597656 139.800781 9.664062 134.863281 9.664062 128.777344 C 9.664062 122.6875 14.597656 117.753906 20.6875 117.753906 C 26.777344 117.753906 31.710938 122.6875 31.710938 128.777344 "/>
<path style="fill:none;stroke-width:0.708661;stroke-linecap:round;stroke-linejoin:round;stroke:rgb(18.431373%,30.980392%,30.980392%);stroke-opacity:1;stroke-miterlimit:10;" d="M 59.417969 128.777344 C 59.417969 134.863281 54.484375 139.800781 48.394531 139.800781 C 42.304688 139.800781 37.371094 134.863281 37.371094 128.777344 C 37.371094 122.6875 42.304688 117.753906 48.394531 117.753906 C 54.484375 117.753906 59.417969 122.6875 59.417969 128.777344 "/>
<path style="fill:none;stroke-width:0.708661;stroke-linecap:round;stroke-linejoin:round;stroke:rgb(18.431373%,30.980392%,30.980392%);stroke-opacity:1;stroke-miterlimit:10;" d="M 87.125 128.777344 C 87.125 134.863281 82.191406 139.800781 76.101562 139.800781 C 70.011719 139.800781 65.078125 134.863281 65.078125 128.777344 C 65.078125 122.6875 70.011719 117.753906 76.101562 117.753906 C 82.191406 117.753906 87.125 122.6875 87.125 128.777344 "/>
<path style="fill:none;stroke-width:0.708661;stroke-linecap:round;stroke-linejoin:round;stroke:rgb(18.431373%,30.980392%,30.980392%);stroke-opacity:1;stroke-miterlimit:10;" d="M 114.832031 128.777344 C 114.832031 134.863281 109.898438 139.800781 103.808594 139.800781 C 97.71875 139.800781 92.785156 134.863281 92.785156 128.777344 C 92.785156 122.6875 97.71875 117.753906 103.808594 117.753906 C 109.898438 117.753906 114.832031 122.6875 114.832031 128.777344 "/>
<path style="fill:none;stroke-width:0.708661;stroke-linecap:round;stroke-linejoin:round;stroke:rgb(18.431373%,30.980392%,30.980392%);stroke-opacity:1;stroke-miterlimit:10;" d="M 142.539062 128.777344 C 142.539062 134.863281 137.605469 139.800781 131.515625 139.800781 C 125.429688 139.800781 120.492188 134.863281 120.492188 128.777344 C 120.492188 122.6875 125.429688 117.753906 131.515625 117.753906 C 137.605469 117.753906 142.539062 122.6875 142.539062 128.777344 "/>
<path style="fill:none;stroke-width:0.708661;stroke-linecap:round;stroke-linejoin:round;stroke:rgb(18.431373%,30.980392%,30.980392%);stroke-opacity:1;stroke-miterlimit:10;" d="M 170.246094 128.777344 C 170.246094 134.863281 165.3125 139.800781 159.222656 139.800781 C 153.136719 139.800781 148.199219 134.863281 148.199219 128.777344 C 148.199219 122.6875 153.136719 117.753906 159.222656 117.753906 C 165.3125 117.753906 170.246094 122.6875 170.246094 128.777344 "/>
<path style="fill:none;stroke-width:0.708661;stroke-linecap:round;stroke-linejoin:round;stroke:rgb(18.431373%,30.980392%,30.980392%);stroke-opacity:1;stroke-miterlimit:10;" d="M 197.953125 128.777344 C 197.953125 134.863281 193.019531 139.800781 186.929688 139.800781 C 180.84375 139.800781 175.90625 134.863281 175.90625 128.777344 C 175.90625 122.6875 180.84375 117.753906 186.929688 117.753906 C 193.019531 117.753906 197.953125 122.6875 197.953125 128.777344 "/>
<path style="fill:none;stroke-width:0.708661;stroke-linecap:round;stroke-linejoin:round;stroke:rgb(18.431373%,30.980392%,30.980392%);stroke-opacity:1;stroke-miterlimit:10;" d="M 225.660156 128.777344 C 225.660156 134.863281 220.726562 139.800781 214.636719 139.800781 C 208.550781 139.800781 203.613281 134.863281 203.613281 128.777344 C 203.613281 122.6875 208.550781 117.753906 214.636719 117.753906 C 220.726562 117.753906 225.660156 122.6875 225.660156 128.777344 "/>
<path style="fill:none;stroke-width:0.708661;stroke-linecap:round;stroke-linejoin:round;stroke:rgb(18.431373%,30.980392%,30.980392%);stroke-opacity:1;stroke-miterlimit:10;" d="M 253.371094 128.777344 C 253.371094 134.863281 248.433594 139.800781 242.34375 139.800781 C 236.257812 139.800781 231.320312 134.863281 231.320312 128.777344 C 231.320312 122.6875 236.257812 117.753906 242.34375 117.753906 C 248.433594 117.753906 253.371094 122.6875 253.371094 128.777344 "/>
<path style="fill:none;stroke-width:0.708661;stroke-linecap:round;stroke-linejoin:round;stroke:rgb(18.431373%,30.980392%,30.980392%);stroke-opacity:1;stroke-miterlimit:10;" d="M 281.078125 128.777344 C 281.078125 134.863281 276.140625 139.800781 270.050781 139.800781 C 263.964844 139.800781 259.027344 134.863281 259.027344 128.777344 C 259.027344 122.6875 263.964844 117.753906 270.050781 117.753906 C 276.140625 117.753906 281.078125 122.6875 281.078125 128.777344 "/>
<path style="fill:none;stroke-width:0.708661;stroke-linecap:round;stroke-linejoin:round;stroke:rgb(18.431373%,30.980392%,30.980392%);stroke-opacity:1;stroke-miterlimit:10;" d="M 31.710938 101.070312 C 31.710938 107.15625 26.777344 112.09375 20.6875 112.09375 C 14.597656 112.09375 9.664062 107.15625 9.664062 101.070312 C 9.664062 94.980469 14.597656 90.046875 20.6875 90.046875 C 26.777344 90.046875 31.710938 94.980469 31.710938 101.070312 "/>
<path style="fill:none;stroke-width:0.708661;stroke-linecap:round;stroke-linejoin:round;stroke:rgb(18.431373%,30.980392%,30.980392%);stroke-opacity:1;stroke-miterlimit:10;" d="M 59.417969 101.070312 C 59.417969 107.15625 54.484375 112.09375 48.394531 112.09375 C 42.304688 112.09375 37.371094 107.15625 37.371094 101.070312 C 37.371094 94.980469 42.304688 90.046875 48.394531 90.046875 C 54.484375 90.046875 59.417969 94.980469 59.417969 101.070312 "/>
<path style="fill-rule:nonzero;fill:rgb(18.431373%,30.980392%,30.980392%);fill-opacity:1;stroke-width:0.708661;stroke-linecap:round;stroke-linejoin:round;stroke:rgb(18.431373%,30.980392%,30.980392%);stroke-opacity:1;stroke-miterlimit:10;" d="M 87.125 101.070312 C 87.125 107.15625 82.191406 112.09375 76.101562 112.09375 C 70.011719 112.09375 65.078125 107.15625 65.078125 101.070312 C 65.078125 94.980469 70.011719 90.046875 76.101562 90.046875 C 82.191406 90.046875 87.125 94.980469 87.125 101.070312 "/>
<path style="fill-rule:nonzero;fill:rgb(18.431373%,30.980392%,30.980392%);fill-opacity:1;stroke-width:0.708661;stroke-linecap:round;stroke-linejoin:round;stroke:rgb(18.431373%,30.980392%,30.980392%);stroke-opacity:1;stroke-miterlimit:10;" d="M 114.832031 101.070312 C 114.832031 107.15625 109.898438 112.09375 103.808594 112.09375 C 97.71875 112.09375 92.785156 107.15625 92.785156 101.070312 C 92.785156 94.980469 97.71875 90.046875 103.808594 90.046875 C 109.898438 90.046875 114.832031 94.980469 114.832031 101.070312 "/>
<path style="fill-rule:nonzero;fill:rgb(18.431373%,30.980392%,30.980392%);fill-opacity:1;stroke-width:0.708661;stroke-linecap:round;stroke-linejoin:round;stroke:rgb(18.431373%,30.980392%,30.980392%);stroke-opacity:1;stroke-miterlimit:10;" d="M 142.539062 101.070312 C 142.539062 107.15625 137.605469 112.09375 131.515625 112.09375 C 125.429688 112.09375 120.492188 107.15625 120.492188 101.070312 C 120.492188 94.980469 125.429688 90.046875 131.515625 90.046875 C 137.605469 90.046875 142.539062 94.980469 142.539062 101.070312 "/>
<path style="fill:none;stroke-width:0.708661;stroke-linecap:round;stroke-linejoin:round;stroke:rgb(18.431373%,30.980392%,30.980392%);stroke-opacity:1;stroke-miterlimit:10;" d="M 170.246094 101.070312 C 170.246094 107.15625 165.3125 112.09375 159.222656 112.09375 C 153.136719 112.09375 148.199219 107.15625 148.199219 101.070312 C 148.199219 94.980469 153.136719 90.046875 159.222656 90.046875 C 165.3125 90.046875 170.246094 94.980469 170.246094 101.070312 "/>
<path style="fill:none;stroke-width:0.708661;stroke-linecap:round;stroke-linejoin:round;stroke:rgb(18.431373%,30.980392%,30.980392%);stroke-opacity:1;stroke-miterlimit:10;" d="M 197.953125 101.070312 C 197.953125 107.15625 193.019531 112.09375 186.929688 112.09375 C 180.84375 112.09375 175.90625 107.15625 175.90625 101.070312 C 175.90625 94.980469 180.84375 90.046875 186.929688 90.046875 C 193.019531 90.046875 197.953125 94.980469 197.953125 101.070312 "/>
<path style="fill:none;stroke-width:0.708661;stroke-linecap:round;stroke-linejoin:round;stroke:rgb(18.431373%,30.980392%,30.980392%);stroke-opacity:1;stroke-miterlimit:10;" d="M 225.660156 101.070312 C 225.660156 107.15625 220.726562 112.09375 214.636719 112.09375 C 208.550781 112.09375 203.613281 107.15625 203.613281 101.070312 C 203.613281 94.980469 208.550781 90.046875 214.636719 90.046875 C 220.726562 90.046875 225.660156 94.980469 225.660156 101.070312 "/>
<path style="fill:none;stroke-width:0.708661;stroke-linecap:round;stroke-linejoin:round;stroke:rgb(18.431373%,30.980392%,30.980392%);stroke-opacity:1;stroke-miterlimit:10;" d="M 253.371094 101.070312 C 253.371094 107.15625 248.433594 112.09375 242.34375 112.09375 C 236.257812 112.09375 231.320312 107.15625 231.320312 101.070312 C 231.320312 94.980469 236.257812 90.046875 242.34375 90.046875 C 248.433594 90.046875 253.371094 94.980469 253.371094 101.070312 "/>
<path style="fill:none;stroke-width:0.708661;stroke-linecap:round;stroke-linejoin:round;stroke:rgb(18.431373%,30.980392%,30.980392%);stroke-opacity:1;stroke-miterlimit:10;" d="M 281.078125 101.070312 C 281.078125 107.15625 276.140625 112.09375 270.050781 112.09375 C 263.964844 112.09375 259.027344 107.15625 259.027344 101.070312 C 259.027344 94.980469 263.964844 90.046875 270.050781 90.046875 C 276.140625 90.046875 281.078125 94.980469 281.078125 101.070312 "/>
<path style="fill:none;stroke-width:0.708661;stroke-linecap:round;stroke-linejoin:round;stroke:rgb(18.431373%,30.980392%,30.980392%);stroke-opacity:1;stroke-miterlimit:10;" d="M 31.710938 73.363281 C 31.710938 79.449219 26.777344 84.386719 20.6875 84.386719 C 14.597656 84.386719 9.664062 79.449219 9.664062 73.363281 C 9.664062 67.273438 14.597656 62.339844 20.6875 62.339844 C 26.777344 62.339844 31.710938 67.273438 31.710938 73.363281 "/>
<path style="fill:none;stroke-width:0.708661;stroke-linecap:round;stroke-linejoin:round;stroke:rgb(18.431373%,30.980392%,30.980392%);stroke-opacity:1;stroke-miterlimit:10;" d="M 59.417969 73.363281 C 59.417969 79.449219 54.484375 84.386719 48.394531 84.386719 C 42.304688 84.386719 37.371094 79.449219 37.371094 73.363281 C 37.371094 67.273438 42.304688 62.339844 48.394531 62.339844 C 54.484375 62.339844 59.417969 67.273438 59.417969 73.363281 "/>
<path style="fill:none;stroke-width:0.708661;stroke-linecap:round;stroke-linejoin:round;stroke:rgb(18.431373%,30.980392%,30.980392%);stroke-opacity:1;stroke-miterlimit:10;" d="M 87.125 73.363281 C 87.125 79.449219 82.191406 84.386719 76.101562 84.386719 C 70.011719 84.386719 65.078125 79.449219 65.078125 73.363281 C 65.078125 67.273438 70.011719 62.339844 76.101562 62.339844 C 82.191406 62.339844 87.125 67.273438 87.125 73.363281 "/>
<path style="fill:none;stroke-width:0.708661;stroke-linecap:round;stroke-linejoin:round;stroke:rgb(18.431373%,30.980392%,30.980392%);stroke-opacity:1;stroke-miterlimit:10;" d="M 114.832031 73.363281 C 114.832031 79.449219 109.898438 84.386719 103.808594 84.386719 C 97.71875 84.386719 92.785156 79.449219 92.785156 73.363281 C 92.785156 67.273438 97.71875 62.339844 103.808594 62.339844 C 109.898438 62.339844 114.832031 67.273438 114.832031 73.363281 "/>
<path style="fill:none;stroke-width:0.708661;stroke-linecap:round;stroke-linejoin:round;stroke:rgb(18.431373%,30.980392%,30.980392%);stroke-opacity:1;stroke-miterlimit:10;" d="M 142.539062 73.363281 C 142.539062 79.449219 137.605469 84.386719 131.515625 84.386719 C 125.429688 84.386719 120.492188 79.449219 120.492188 73.363281 C 120.492188 67.273438 125.429688 62.339844 131.515625 62.339844 C 137.605469 62.339844 142.539062 67.273438 142.539062 73.363281 "/>
<path style="fill:none;stroke-width:0.708661;stroke-linecap:round;stroke-linejoin:round;stroke:rgb(18.431373%,30.980392%,30.980392%);stroke-opacity:1;stroke-miterlimit:10;" d="M 170.246094 73.363281 C 170.246094 79.449219 165.3125 84.386719 159.222656 84.386719 C 153.136719 84.386719 148.199219 79.449219 148.199219 73.363281 C 148.199219 67.273438 153.136719 62.339844 159.222656 62.339844 C 165.3125 62.339844 170.246094 67.273438 170.246094 73.363281 "/>
<path style="fill-rule:nonzero;fill:rgb(18.431373%,30.980392%,30.980392%);fill-opacity:1;stroke-width:0.708661;stroke-linecap:round;stroke-linejoin:round;stroke:rgb(18.431373%,30.980392%,30.980392%);stroke-opacity:1;stroke-miterlimit:10;" d="M 197.953125 73.363281 C 197.953125 79.449219 193.019531 84.386719 186.929688 84.386719 C 180.84375 84.386719 175.90625 79.449219 175.90625 73.363281 C 175.90625 67.273438 180.84375 62.339844 186.929688 62.339844 C 193.019531 62.339844 197.953125 67.273438 197.953125 73.363281 "/>
<path style="fill:none;stroke-width:0.708661;stroke-linecap:round;stroke-linejoin:round;stroke:rgb(18.431373%,30.980392%,30.980392%);stroke-opacity:1;stroke-miterlimit:10;" d="M 225.660156 73.363281 C 225.660156 79.449219 220.726562 84.386719 214.636719 84.386719 C 208.550781 84.386719 203.613281 79.449219 203.613281 73.363281 C 203.613281 67.273438 208.550781 62.339844 214.636719 62.339844 C 220.726562 62.339844 225.660156 67.273438 225.660156 73.363281 "/>
<path style="fill:none;stroke-width:0.708661;stroke-linecap:round;stroke-linejoin:round;stroke:rgb(18.431373%,30.980392%,30.980392%);stroke-opacity:1;stroke-miterlimit:10;" d="M 253.371094 73.363281 C 253.371094 79.449219 248.433594 84.386719 242.34375 84.386719 C 236.257812 84.386719 231.320312 79.449219 231.320312 73.363281 C 231.320312 67.273438 236.257812 62.339844 242.34375 62.339844 C 248.433594 62.339844 253.371094 67.273438 253.371094 73.363281 "/>
<path style="fill:none;stroke-width:0.708661;stroke-linecap:round;stroke-linejoin:round;stroke:rgb(18.431373%,30.980392%,30.980392%);stroke-opacity:1;stroke-miterlimit:10;" d="M 281.078125 73.363281 C 281.078125 79.449219 276.140625 84.386719 270.050781 84.386719 C 263.964844 84.386719 259.027344 79.449219 259.027344 73.363281 C 259.027344 67.273438 263.964844 62.339844 270.050781 62.339844 C 276.140625 62.339844 281.078125 67.273438 281.078125 73.363281 "/>
<path style="fill:none;stroke-width:0.708661;stroke-linecap:round;stroke-linejoin:round;stroke:rgb(18.431373%,30.980392%,30.980392%);stroke-opacity:1;stroke-miterlimit:10;" d="M 31.710938 45.65625 C 31.710938 51.742188 26.777344 56.679688 20.6875 56.679688 C 14.597656 56.679688 9.664062 51.742188 9.664062 45.65625 C 9.664062 39.566406 14.597656 34.628906 20.6875 34.628906 C 26.777344 34.628906 31.710938 39.566406 31.710938 45.65625 "/>
<path style="fill:none;stroke-width:0.708661;stroke-linecap:round;stroke-linejoin:round;stroke:rgb(18.431373%,30.980392%,30.980392%);stroke-opacity:1;stroke-miterlimit:10;" d="M 59.417969 45.65625 C 59.417969 51.742188 54.484375 56.679688 48.394531 56.679688 C 42.304688 56.679688 37.371094 51.742188 37.371094 45.65625 C 37.371094 39.566406 42.304688 34.628906 48.394531 34.628906 C 54.484375 34.628906 59.417969 39.566406 59.417969 45.65625 "/>
<path style="fill:none;stroke-width:0.708661;stroke-linecap:round;stroke-linejoin:round;stroke:rgb(18.431373%,30.980392%,30.980392%);stroke-opacity:1;stroke-miterlimit:10;" d="M 87.125 45.65625 C 87.125 51.742188 82.191406 56.679688 76.101562 56.679688 C 70.011719 56.679688 65.078125 51.742188 65.078125 45.65625 C 65.078125 39.566406 70.011719 34.628906 76.101562 34.628906 C 82.191406 34.628906 87.125 39.566406 87.125 45.65625 "/>
<path style="fill:none;stroke-width:0.708661;stroke-linecap:round;stroke-linejoin:round;stroke:rgb(18.431373%,30.980392%,30.980392%);stroke-opacity:1;stroke-miterlimit:10;" d="M 114.832031 45.65625 C 114.832031 51.742188 109.898438 56.679688 103.808594 56.679688 C 97.71875 56.679688 92.785156 51.742188 92.785156 45.65625 C 92.785156 39.566406 97.71875 34.628906 103.808594 34.628906 C 109.898438 34.628906 114.832031 39.566406 114.832031 45.65625 "/>
<path style="fill:none;stroke-width:0.708661;stroke-linecap:round;stroke-linejoin:round;stroke:rgb(18.431373%,30.980392%,30.980392%);stroke-opacity:1;stroke-miterlimit:10;" d="M 142.539062 45.65625 C 142.539062 51.742188 137.605469 56.679688 131.515625 56.679688 C 125.429688 56.679688 120.492188 51.742188 120.492188 45.65625 C 120.492188 39.566406 125.429688 34.628906 131.515625 34.628906 C 137.605469 34.628906 142.539062 39.566406 142.539062 45.65625 "/>
<path style="fill:none;stroke-width:0.708661;stroke-linecap:round;stroke-linejoin:round;stroke:rgb(18.431373%,30.980392%,30.980392%);stroke-opacity:1;stroke-miterlimit:10;" d="M 170.246094 45.65625 C 170.246094 51.742188 165.3125 56.679688 159.222656 56.679688 C 153.136719 56.679688 148.199219 51.742188 148.199219 45.65625 C 148.199219 39.566406 153.136719 34.628906 159.222656 34.628906 C 165.3125 34.628906 170.246094 39.566406 170.246094 45.65625 "/>
<path style="fill:none;stroke-width:0.708661;stroke-linecap:round;stroke-linejoin:round;stroke:rgb(18.431373%,30.980392%,30.980392%);stroke-opacity:1;stroke-miterlimit:10;" d="M 197.953125 45.65625 C 197.953125 51.742188 193.019531 56.679688 186.929688 56.679688 C 180.84375 56.679688 175.90625 51.742188 175.90625 45.65625 C 175.90625 39.566406 180.84375 34.628906 186.929688 34.628906 C 193.019531 34.628906 197.953125 39.566406 197.953125 45.65625 "/>
<path style="fill:none;stroke-width:0.708661;stroke-linecap:round;stroke-linejoin:round;stroke:rgb(18.431373%,30.980392%,30.980392%);stroke-opacity:1;stroke-miterlimit:10;" d="M 225.660156 45.65625 C 225.660156 51.742188 220.726562 56.679688 214.636719 56.679688 C 208.550781 56.679688 203.613281 51.742188 203.613281 45.65625 C 203.613281 39.566406 208.550781 34.628906 214.636719 34.628906 C 220.726562 34.628906 225.660156 39.566406 225.660156 45.65625 "/>
<path style="fill:none;stroke-width:0.708661;stroke-linecap:round;stroke-linejoin:round;stroke:rgb(18.431373%,30.980392%,30.980392%);stroke-opacity:1;stroke-miterlimit:10;" d="M 253.371094 45.65625 C 253.371094 51.742188 248.433594 56.679688 242.34375 56.679688 C 236.257812 56.679688 231.320312 51.742188 231.320312 45.65625 C 231.320312 39.566406 236.257812 34.628906 242.34375 34.628906 C 248.433594 34.628906 253.371094 39.566406 253.371094 45.65625 "/>
<path style="fill:none;stroke-width:0.708661;stroke-linecap:round;stroke-linejoin:round;stroke:rgb(18.431373%,30.980392%,30.980392%);stroke-opacity:1;stroke-miterlimit:10;" d="M 281.078125 45.65625 C 281.078125 51.742188 276.140625 56.679688 270.050781 56.679688 C 263.964844 56.679688 259.027344 51.742188 259.027344 45.65625 C 259.027344 39.566406 263.964844 34.628906 270.050781 34.628906 C 276.140625 34.628906 281.078125 39.566406 281.078125 45.65625 "/>
<path style="fill:none;stroke-width:0.708661;stroke-linecap:round;stroke-linejoin:round;stroke:rgb(18.431373%,30.980392%,30.980392%);stroke-opacity:1;stroke-miterlimit:10;" d="M 31.710938 17.949219 C 31.710938 24.035156 26.777344 28.972656 20.6875 28.972656 C 14.597656 28.972656 9.664062 24.035156 9.664062 17.949219 C 9.664062 11.859375 14.597656 6.921875 20.6875 6.921875 C 26.777344 6.921875 31.710938 11.859375 31.710938 17.949219 "/>
<path style="fill:none;stroke-width:0.708661;stroke-linecap:round;stroke-linejoin:round;stroke:rgb(18.431373%,30.980392%,30.980392%);stroke-opacity:1;stroke-miterlimit:10;" d="M 59.417969 17.949219 C 59.417969 24.035156 54.484375 28.972656 48.394531 28.972656 C 42.304688 28.972656 37.371094 24.035156 37.371094 17.949219 C 37.371094 11.859375 42.304688 6.921875 48.394531 6.921875 C 54.484375 6.921875 59.417969 11.859375 59.417969 17.949219 "/>
<path style="fill:none;stroke-width:0.708661;stroke-linecap:round;stroke-linejoin:round;stroke:rgb(18.431373%,30.980392%,30.980392%);stroke-opacity:1;stroke-miterlimit:10;" d="M 87.125 17.949219 C 87.125 24.035156 82.191406 28.972656 76.101562 28.972656 C 70.011719 28.972656 65.078125 24.035156 65.078125 17.949219 C 65.078125 11.859375 70.011719 6.921875 76.101562 6.921875 C 82.191406 6.921875 87.125 11.859375 87.125 17.949219 "/>
<path style="fill:none;stroke-width:0.708661;stroke-linecap:round;stroke-linejoin:round;stroke:rgb(18.431373%,30.980392%,30.980392%);stroke-opacity:1;stroke-miterlimit:10;" d="M 114.832031 17.949219 C 114.832031 24.035156 109.898438 28.972656 103.808594 28.972656 C 97.71875 28.972656 92.785156 24.035156 92.785156 17.949219 C 92.785156 11.859375 97.71875 6.921875 103.808594 6.921875 C 109.898438 6.921875 114.832031 11.859375 114.832031 17.949219 "/>
<path style="fill:none;stroke-width:0.708661;stroke-linecap:round;stroke-linejoin:round;stroke:rgb(18.431373%,30.980392%,30.980392%);stroke-opacity:1;stroke-miterlimit:10;" d="M 142.539062 17.949219 C 142.539062 24.035156 137.605469 28.972656 131.515625 28.972656 C 125.429688 28.972656 120.492188 24.035156 120.492188 17.949219 C 120.492188 11.859375 125.429688 6.921875 131.515625 6.921875 C 137.605469 6.921875 142.539062 11.859375 142.539062 17.949219 "/>
<path style="fill:none;stroke-width:0.708661;stroke-linecap:round;stroke-linejoin:round;stroke:rgb(18.431373%,30.980392%,30.980392%);stroke-opacity:1;stroke-miterlimit:10;" d="M 170.246094 17.949219 C 170.246094 24.035156 165.3125 28.972656 159.222656 28.972656 C 153.136719 28.972656 148.199219 24.035156 148.199219 17.949219 C 148.199219 11.859375 153.136719 6.921875 159.222656 6.921875 C 165.3125 6.921875 170.246094 11.859375 170.246094 17.949219 "/>
<path style="fill:none;stroke-width:0.708661;stroke-linecap:round;stroke-linejoin:round;stroke:rgb(18.431373%,30.980392%,30.980392%);stroke-opacity:1;stroke-miterlimit:10;" d="M 197.953125 17.949219 C 197.953125 24.035156 193.019531 28.972656 186.929688 28.972656 C 180.84375 28.972656 175.90625 24.035156 175.90625 17.949219 C 175.90625 11.859375 180.84375 6.921875 186.929688 6.921875 C 193.019531 6.921875 197.953125 11.859375 197.953125 17.949219 "/>
<path style="fill:none;stroke-width:0.708661;stroke-linecap:round;stroke-linejoin:round;stroke:rgb(18.431373%,30.980392%,30.980392%);stroke-opacity:1;stroke-miterlimit:10;" d="M 225.660156 17.949219 C 225.660156 24.035156 220.726562 28.972656 214.636719 28.972656 C 208.550781 28.972656 203.613281 24.035156 203.613281 17.949219 C 203.613281 11.859375 208.550781 6.921875 214.636719 6.921875 C 220.726562 6.921875 225.660156 11.859375 225.660156 17.949219 "/>
<path style="fill:none;stroke-width:0.708661;stroke-linecap:round;stroke-linejoin:round;stroke:rgb(18.431373%,30.980392%,30.980392%);stroke-opacity:1;stroke-miterlimit:10;" d="M 253.371094 17.949219 C 253.371094 24.035156 248.433594 28.972656 242.34375 28.972656 C 236.257812 28.972656 231.320312 24.035156 231.320312 17.949219 C 231.320312 11.859375 236.257812 6.921875 242.34375 6.921875 C 248.433594 6.921875 253.371094 11.859375 253.371094 17.949219 "/>
<path style="fill:none;stroke-width:0.708661;stroke-linecap:round;stroke-linejoin:round;stroke:rgb(18.431373%,30.980392%,30.980392%);stroke-opacity:1;stroke-miterlimit:10;" d="M 281.078125 17.949219 C 281.078125 24.035156 276.140625 28.972656 270.050781 28.972656 C 263.964844 28.972656 259.027344 24.035156 259.027344 17.949219 C 259.027344 11.859375 263.964844 6.921875 270.050781 6.921875 C 276.140625 6.921875 281.078125 11.859375 281.078125 17.949219 "/>
</g>
</svg>
