<?xml version="1.0" encoding="UTF-8"?>
<svg xmlns="http://www.w3.org/2000/svg" xmlns:xlink="http://www.w3.org/1999/xlink" width="288pt" height="216pt" viewBox="0 0 288 216" version="1.1">
<defs>
<clipPath id="clip1">
  <path d="M 8.21875 5.480469 L 282.519531 5.480469 L 282.519531 207.78125 L 8.21875 207.78125 Z M 8.21875 5.480469 "/>
</clipPath>
<clipPath id="clip2">
  <path d="M 8.21875 55 L 282.519531 55 L 282.519531 167 L 8.21875 167 Z M 8.21875 55 "/>
</clipPath>
<clipPath id="clip3">
  <path d="M 8.21875 5.480469 L 282.519531 5.480469 L 282.519531 207.78125 L 8.21875 207.78125 Z M 8.21875 5.480469 "/>
</clipPath>
</defs>
<g id="surface144">
<rect x="0" y="0" width="288" height="216" style="fill:rgb(100%,100%,100%);fill-opacity:1;stroke:none;"/>
<rect x="0" y="0" width="288" height="216" style="fill:rgb(100%,100%,100%);fill-opacity:1;stroke:none;"/>
<g clip-path="url(#clip1)" clip-rule="nonzero">
<path style=" stroke:none;fill-rule:nonzero;fill:rgb(100%,100%,100%);fill-opacity:1;" d="M 8.21875 207.78125 L 282.519531 207.78125 L 282.519531 5.480469 L 8.21875 5.480469 Z M 8.21875 207.78125 "/>
<path style="fill:none;stroke-width:6.40187;stroke-linecap:butt;stroke-linejoin:round;stroke:rgb(90.196078%,25.490196%,45.098039%);stroke-opacity:0.298039;stroke-miterlimit:10;" d="M -266.082031 -27.445312 L 556.820312 218.640625 "/>
</g>
<path style="fill:none;stroke-width:0.708661;stroke-linecap:round;stroke-linejoin:round;stroke:rgb(18.431373%,30.980392%,30.980392%);stroke-opacity:1;stroke-miterlimit:10;" d="M 150.855469 78.796875 C 150.855469 82.527344 147.832031 85.554688 144.101562 85.554688 C 140.371094 85.554688 137.34375 82.527344 137.34375 78.796875 C 137.34375 75.066406 140.371094 72.039062 144.101562 72.039062 C 147.832031 72.039062 150.855469 75.066406 150.855469 78.796875 "/>
<path style="fill-rule:nonzero;fill:rgb(18.431373%,30.980392%,30.980392%);fill-opacity:1;stroke-width:0.708661;stroke-linecap:round;stroke-linejoin:round;stroke:rgb(18.431373%,30.980392%,30.980392%);stroke-opacity:1;stroke-miterlimit:10;" d="M 87.566406 29.699219 C 87.566406 33.429688 84.539062 36.453125 80.808594 36.453125 C 77.078125 36.453125 74.050781 33.429688 74.050781 29.699219 C 74.050781 25.964844 77.078125 22.941406 80.808594 22.941406 C 84.539062 22.941406 87.566406 25.964844 87.566406 29.699219 "/>
<path style="fill:none;stroke-width:0.708661;stroke-linecap:round;stroke-linejoin:round;stroke:rgb(18.431373%,30.980392%,30.980392%);stroke-opacity:1;stroke-miterlimit:10;" d="M 178.671875 198.585938 C 178.671875 202.316406 175.648438 205.339844 171.917969 205.339844 C 168.1875 205.339844 165.160156 202.316406 165.160156 198.585938 C 165.160156 194.855469 168.1875 191.828125 171.917969 191.828125 C 175.648438 191.828125 178.671875 194.855469 178.671875 198.585938 "/>
<path style="fill:none;stroke-width:0.708661;stroke-linecap:round;stroke-linejoin:round;stroke:rgb(18.431373%,30.980392%,30.980392%);stroke-opacity:1;stroke-miterlimit:10;" d="M 158.746094 122.097656 C 158.746094 125.828125 155.71875 128.851562 151.988281 128.851562 C 148.257812 128.851562 145.234375 125.828125 145.234375 122.097656 C 145.234375 118.367188 148.257812 115.339844 151.988281 115.339844 C 155.71875 115.339844 158.746094 118.367188 158.746094 122.097656 "/>
<path style="fill:none;stroke-width:0.708661;stroke-linecap:round;stroke-linejoin:round;stroke:rgb(18.431373%,30.980392%,30.980392%);stroke-opacity:1;stroke-miterlimit:10;" d="M 129.390625 53.292969 C 129.390625 57.023438 126.363281 60.050781 122.632812 60.050781 C 118.902344 60.050781 115.875 57.023438 115.875 53.292969 C 115.875 49.5625 118.902344 46.535156 122.632812 46.535156 C 126.363281 46.535156 129.390625 49.5625 129.390625 53.292969 "/>
<path style="fill:none;stroke-width:0.708661;stroke-linecap:round;stroke-linejoin:round;stroke:rgb(18.431373%,30.980392%,30.980392%);stroke-opacity:1;stroke-miterlimit:10;" d="M 160.667969 112.125 C 160.667969 115.855469 157.644531 118.882812 153.914062 118.882812 C 150.179688 118.882812 147.15625 115.855469 147.15625 112.125 C 147.15625 108.394531 150.179688 105.371094 153.914062 105.371094 C 157.644531 105.371094 160.667969 108.394531 160.667969 112.125 "/>
<path style="fill:none;stroke-width:0.708661;stroke-linecap:round;stroke-linejoin:round;stroke:rgb(18.431373%,30.980392%,30.980392%);stroke-opacity:1;stroke-miterlimit:10;" d="M 158.3125 74.050781 C 158.3125 77.78125 155.289062 80.804688 151.558594 80.804688 C 147.828125 80.804688 144.800781 77.78125 144.800781 74.050781 C 144.800781 70.316406 147.828125 67.292969 151.558594 67.292969 C 155.289062 67.292969 158.3125 70.316406 158.3125 74.050781 "/>
<path style="fill:none;stroke-width:0.708661;stroke-linecap:round;stroke-linejoin:round;stroke:rgb(18.431373%,30.980392%,30.980392%);stroke-opacity:1;stroke-miterlimit:10;" d="M 117.953125 122.734375 C 117.953125 126.464844 114.929688 129.492188 111.199219 129.492188 C 107.464844 129.492188 104.441406 126.464844 104.441406 122.734375 C 104.441406 119.003906 107.464844 115.980469 111.199219 115.980469 C 114.929688 115.980469 117.953125 119.003906 117.953125 122.734375 "/>
<path style="fill:none;stroke-width:0.708661;stroke-linecap:round;stroke-linejoin:round;stroke:rgb(18.431373%,30.980392%,30.980392%);stroke-opacity:1;stroke-miterlimit:10;" d="M 189.65625 118.273438 C 189.65625 122.007812 186.628906 125.03125 182.898438 125.03125 C 179.167969 125.03125 176.144531 122.007812 176.144531 118.273438 C 176.144531 114.542969 179.167969 111.519531 182.898438 111.519531 C 186.628906 111.519531 189.65625 114.542969 189.65625 118.273438 "/>
<path style="fill:none;stroke-width:0.708661;stroke-linecap:round;stroke-linejoin:round;stroke:rgb(18.431373%,30.980392%,30.980392%);stroke-opacity:1;stroke-miterlimit:10;" d="M 224.753906 76.628906 C 224.753906 80.359375 221.726562 83.386719 217.996094 83.386719 C 214.265625 83.386719 211.242188 80.359375 211.242188 76.628906 C 211.242188 72.898438 214.265625 69.871094 217.996094 69.871094 C 221.726562 69.871094 224.753906 72.898438 224.753906 76.628906 "/>
<path style="fill:none;stroke-width:0.708661;stroke-linecap:round;stroke-linejoin:round;stroke:rgb(18.431373%,30.980392%,30.980392%);stroke-opacity:1;stroke-miterlimit:10;" d="M 124.484375 136.574219 C 124.484375 140.308594 121.457031 143.332031 117.726562 143.332031 C 113.996094 143.332031 110.972656 140.308594 110.972656 136.574219 C 110.972656 132.84375 113.996094 129.820312 117.726562 129.820312 C 121.457031 129.820312 124.484375 132.84375 124.484375 136.574219 "/>
<path style="fill:none;stroke-width:0.708661;stroke-linecap:round;stroke-linejoin:round;stroke:rgb(18.431373%,30.980392%,30.980392%);stroke-opacity:1;stroke-miterlimit:10;" d="M 108.75 59.480469 C 108.75 63.210938 105.722656 66.238281 101.992188 66.238281 C 98.261719 66.238281 95.238281 63.210938 95.238281 59.480469 C 95.238281 55.75 98.261719 52.726562 101.992188 52.726562 C 105.722656 52.726562 108.75 55.75 108.75 59.480469 "/>
<path style="fill:none;stroke-width:0.708661;stroke-linecap:round;stroke-linejoin:round;stroke:rgb(18.431373%,30.980392%,30.980392%);stroke-opacity:1;stroke-miterlimit:10;" d="M 160.847656 122.351562 C 160.847656 126.082031 157.820312 129.105469 154.089844 129.105469 C 150.359375 129.105469 147.335938 126.082031 147.335938 122.351562 C 147.335938 118.621094 150.359375 115.59375 154.089844 115.59375 C 157.820312 115.59375 160.847656 118.621094 160.847656 122.351562 "/>
<path style="fill:none;stroke-width:0.708661;stroke-linecap:round;stroke-linejoin:round;stroke:rgb(18.431373%,30.980392%,30.980392%);stroke-opacity:1;stroke-miterlimit:10;" d="M 127.539062 95.722656 C 127.539062 99.453125 124.515625 102.476562 120.785156 102.476562 C 117.050781 102.476562 114.027344 99.453125 114.027344 95.722656 C 114.027344 91.988281 117.050781 88.964844 120.785156 88.964844 C 124.515625 88.964844 127.539062 91.988281 127.539062 95.722656 "/>
<path style="fill-rule:nonzero;fill:rgb(18.431373%,30.980392%,30.980392%);fill-opacity:1;stroke-width:0.708661;stroke-linecap:round;stroke-linejoin:round;stroke:rgb(18.431373%,30.980392%,30.980392%);stroke-opacity:1;stroke-miterlimit:10;" d="M 228.621094 123.804688 C 228.621094 127.535156 225.597656 130.5625 221.863281 130.5625 C 218.132812 130.5625 215.109375 127.535156 215.109375 123.804688 C 215.109375 120.074219 218.132812 117.050781 221.863281 117.050781 C 225.597656 117.050781 228.621094 120.074219 228.621094 123.804688 "/>
<path style="fill:none;stroke-width:0.708661;stroke-linecap:round;stroke-linejoin:round;stroke:rgb(18.431373%,30.980392%,30.980392%);stroke-opacity:1;stroke-miterlimit:10;" d="M 123.5625 32.179688 C 123.5625 35.910156 120.539062 38.933594 116.804688 38.933594 C 113.074219 38.933594 110.050781 35.910156 110.050781 32.179688 C 110.050781 28.449219 113.074219 25.421875 116.804688 25.421875 C 120.539062 25.421875 123.5625 28.449219 123.5625 32.179688 "/>
<path style="fill:none;stroke-width:0.708661;stroke-linecap:round;stroke-linejoin:round;stroke:rgb(18.431373%,30.980392%,30.980392%);stroke-opacity:1;stroke-miterlimit:10;" d="M 185.066406 91.59375 C 185.066406 95.324219 182.042969 98.347656 178.3125 98.347656 C 174.582031 98.347656 171.554688 95.324219 171.554688 91.59375 C 171.554688 87.859375 174.582031 84.835938 178.3125 84.835938 C 182.042969 84.835938 185.066406 87.859375 185.066406 91.59375 "/>
<path style="fill:none;stroke-width:0.708661;stroke-linecap:round;stroke-linejoin:round;stroke:rgb(18.431373%,30.980392%,30.980392%);stroke-opacity:1;stroke-miterlimit:10;" d="M 219.714844 154.976562 C 219.714844 158.707031 216.691406 161.734375 212.957031 161.734375 C 209.226562 161.734375 206.203125 158.707031 206.203125 154.976562 C 206.203125 151.246094 209.226562 148.21875 212.957031 148.21875 C 216.691406 148.21875 219.714844 151.246094 219.714844 154.976562 "/>
<path style="fill:none;stroke-width:0.708661;stroke-linecap:round;stroke-linejoin:round;stroke:rgb(18.431373%,30.980392%,30.980392%);stroke-opacity:1;stroke-miterlimit:10;" d="M 276.808594 120.9375 C 276.808594 124.667969 273.785156 127.691406 270.050781 127.691406 C 266.320312 127.691406 263.296875 124.667969 263.296875 120.9375 C 263.296875 117.207031 266.320312 114.179688 270.050781 114.179688 C 273.785156 114.179688 276.808594 117.207031 276.808594 120.9375 "/>
<path style="fill:none;stroke-width:0.708661;stroke-linecap:round;stroke-linejoin:round;stroke:rgb(18.431373%,30.980392%,30.980392%);stroke-opacity:1;stroke-miterlimit:10;" d="M 168.914062 122.53125 C 168.914062 126.261719 165.886719 129.285156 162.15625 129.285156 C 158.425781 129.285156 155.402344 126.261719 155.402344 122.53125 C 155.402344 118.800781 158.425781 115.773438 162.15625 115.773438 C 165.886719 115.773438 168.914062 118.800781 168.914062 122.53125 "/>
<path style="fill:none;stroke-width:0.708661;stroke-linecap:round;stroke-linejoin:round;stroke:rgb(18.431373%,30.980392%,30.980392%);stroke-opacity:1;stroke-miterlimit:10;" d="M 236.445312 143.953125 C 236.445312 147.6875 233.421875 150.710938 229.691406 150.710938 C 225.957031 150.710938 222.933594 147.6875 222.933594 143.953125 C 222.933594 140.222656 225.957031 137.199219 229.691406 137.199219 C 233.421875 137.199219 236.445312 140.222656 236.445312 143.953125 "/>
<path style="fill:none;stroke-width:0.708661;stroke-linecap:round;stroke-linejoin:round;stroke:rgb(18.431373%,30.980392%,30.980392%);stroke-opacity:1;stroke-miterlimit:10;" d="M 177.628906 137.71875 C 177.628906 141.453125 174.605469 144.476562 170.871094 144.476562 C 167.140625 144.476562 164.117188 141.453125 164.117188 137.71875 C 164.117188 133.988281 167.140625 130.964844 170.871094 130.964844 C 174.605469 130.964844 177.628906 133.988281 177.628906 137.71875 "/>
<path style="fill:none;stroke-width:0.708661;stroke-linecap:round;stroke-linejoin:round;stroke:rgb(18.431373%,30.980392%,30.980392%);stroke-opacity:1;stroke-miterlimit:10;" d="M 156.433594 114.960938 C 156.433594 118.691406 153.410156 121.714844 149.679688 121.714844 C 145.945312 121.714844 142.921875 118.691406 142.921875 114.960938 C 142.921875 111.226562 145.945312 108.203125 149.679688 108.203125 C 153.410156 108.203125 156.433594 111.226562 156.433594 114.960938 "/>
<path style="fill:none;stroke-width:0.708661;stroke-linecap:round;stroke-linejoin:round;stroke:rgb(18.431373%,30.980392%,30.980392%);stroke-opacity:1;stroke-miterlimit:10;" d="M 168.984375 114.148438 C 168.984375 117.878906 165.960938 120.902344 162.226562 120.902344 C 158.496094 120.902344 155.472656 117.878906 155.472656 114.148438 C 155.472656 110.417969 158.496094 107.390625 162.226562 107.390625 C 165.960938 107.390625 168.984375 110.417969 168.984375 114.148438 "/>
<path style="fill:none;stroke-width:0.708661;stroke-linecap:round;stroke-linejoin:round;stroke:rgb(18.431373%,30.980392%,30.980392%);stroke-opacity:1;stroke-miterlimit:10;" d="M 220.570312 137.144531 C 220.570312 140.875 217.546875 143.898438 213.816406 143.898438 C 210.082031 143.898438 207.058594 140.875 207.058594 137.144531 C 207.058594 133.414062 210.082031 130.386719 213.816406 130.386719 C 217.546875 130.386719 220.570312 133.414062 220.570312 137.144531 "/>
<path style="fill-rule:nonzero;fill:rgb(18.431373%,30.980392%,30.980392%);fill-opacity:1;stroke-width:0.708661;stroke-linecap:round;stroke-linejoin:round;stroke:rgb(18.431373%,30.980392%,30.980392%);stroke-opacity:1;stroke-miterlimit:10;" d="M 162.796875 105.570312 C 162.796875 109.300781 159.769531 112.328125 156.039062 112.328125 C 152.308594 112.328125 149.285156 109.300781 149.285156 105.570312 C 149.285156 101.839844 152.308594 98.8125 156.039062 98.8125 C 159.769531 98.8125 162.796875 101.839844 162.796875 105.570312 "/>
<path style="fill:none;stroke-width:0.708661;stroke-linecap:round;stroke-linejoin:round;stroke:rgb(18.431373%,30.980392%,30.980392%);stroke-opacity:1;stroke-miterlimit:10;" d="M 145.691406 63.722656 C 145.691406 67.457031 142.664062 70.480469 138.933594 70.480469 C 135.203125 70.480469 132.179688 67.457031 132.179688 63.722656 C 132.179688 59.992188 135.203125 56.96875 138.933594 56.96875 C 142.664062 56.96875 145.691406 59.992188 145.691406 63.722656 "/>
<path style="fill:none;stroke-width:0.708661;stroke-linecap:round;stroke-linejoin:round;stroke:rgb(18.431373%,30.980392%,30.980392%);stroke-opacity:1;stroke-miterlimit:10;" d="M 112.066406 76.265625 C 112.066406 79.996094 109.042969 83.019531 105.3125 83.019531 C 101.578125 83.019531 98.554688 79.996094 98.554688 76.265625 C 98.554688 72.53125 101.578125 69.507812 105.3125 69.507812 C 109.042969 69.507812 112.066406 72.53125 112.066406 76.265625 "/>
<path style="fill:none;stroke-width:0.708661;stroke-linecap:round;stroke-linejoin:round;stroke:rgb(18.431373%,30.980392%,30.980392%);stroke-opacity:1;stroke-miterlimit:10;" d="M 62.746094 96.457031 C 62.746094 100.1875 59.71875 103.210938 55.988281 103.210938 C 52.257812 103.210938 49.230469 100.1875 49.230469 96.457031 C 49.230469 92.726562 52.257812 89.699219 55.988281 89.699219 C 59.71875 89.699219 62.746094 92.726562 62.746094 96.457031 "/>
<path style="fill:none;stroke-width:0.708661;stroke-linecap:round;stroke-linejoin:round;stroke:rgb(18.431373%,30.980392%,30.980392%);stroke-opacity:1;stroke-miterlimit:10;" d="M 211.085938 56.765625 C 211.085938 60.496094 208.058594 63.523438 204.328125 63.523438 C 200.597656 63.523438 197.570312 60.496094 197.570312 56.765625 C 197.570312 53.035156 200.597656 50.007812 204.328125 50.007812 C 208.058594 50.007812 211.085938 53.035156 211.085938 56.765625 "/>
<path style="fill:none;stroke-width:0.708661;stroke-linecap:round;stroke-linejoin:round;stroke:rgb(18.431373%,30.980392%,30.980392%);stroke-opacity:1;stroke-miterlimit:10;" d="M 120.671875 74.839844 C 120.671875 78.574219 117.648438 81.597656 113.914062 81.597656 C 110.183594 81.597656 107.160156 78.574219 107.160156 74.839844 C 107.160156 71.109375 110.183594 68.085938 113.914062 68.085938 C 117.648438 68.085938 120.671875 71.109375 120.671875 74.839844 "/>
<path style="fill:none;stroke-width:0.708661;stroke-linecap:round;stroke-linejoin:round;stroke:rgb(18.431373%,30.980392%,30.980392%);stroke-opacity:1;stroke-miterlimit:10;" d="M 173.757812 141.425781 C 173.757812 145.15625 170.734375 148.179688 167 148.179688 C 163.269531 148.179688 160.246094 145.15625 160.246094 141.425781 C 160.246094 137.691406 163.269531 134.667969 167 134.667969 C 170.734375 134.667969 173.757812 137.691406 173.757812 141.425781 "/>
<path style="fill:none;stroke-width:0.708661;stroke-linecap:round;stroke-linejoin:round;stroke:rgb(18.431373%,30.980392%,30.980392%);stroke-opacity:1;stroke-miterlimit:10;" d="M 190.410156 95.285156 C 190.410156 99.015625 187.382812 102.039062 183.652344 102.039062 C 179.921875 102.039062 176.894531 99.015625 176.894531 95.285156 C 176.894531 91.550781 179.921875 88.527344 183.652344 88.527344 C 187.382812 88.527344 190.410156 91.550781 190.410156 95.285156 "/>
<path style="fill:none;stroke-width:0.708661;stroke-linecap:round;stroke-linejoin:round;stroke:rgb(18.431373%,30.980392%,30.980392%);stroke-opacity:1;stroke-miterlimit:10;" d="M 199.773438 102.433594 C 199.773438 106.164062 196.75 109.1875 193.015625 109.1875 C 189.285156 109.1875 186.261719 106.164062 186.261719 102.433594 C 186.261719 98.699219 189.285156 95.675781 193.015625 95.675781 C 196.75 95.675781 199.773438 98.699219 199.773438 102.433594 "/>
<path style="fill:none;stroke-width:0.708661;stroke-linecap:round;stroke-linejoin:round;stroke:rgb(18.431373%,30.980392%,30.980392%);stroke-opacity:1;stroke-miterlimit:10;" d="M 107.921875 115.800781 C 107.921875 119.53125 104.898438 122.558594 101.167969 122.558594 C 97.4375 122.558594 94.410156 119.53125 94.410156 115.800781 C 94.410156 112.070312 97.4375 109.042969 101.167969 109.042969 C 104.898438 109.042969 107.921875 112.070312 107.921875 115.800781 "/>
<path style="fill:none;stroke-width:0.708661;stroke-linecap:round;stroke-linejoin:round;stroke:rgb(18.431373%,30.980392%,30.980392%);stroke-opacity:1;stroke-miterlimit:10;" d="M 250.871094 66.710938 C 250.871094 70.441406 247.84375 73.46875 244.113281 73.46875 C 240.382812 73.46875 237.359375 70.441406 237.359375 66.710938 C 237.359375 62.980469 240.382812 59.957031 244.113281 59.957031 C 247.84375 59.957031 250.871094 62.980469 250.871094 66.710938 "/>
<path style="fill:none;stroke-width:0.708661;stroke-linecap:round;stroke-linejoin:round;stroke:rgb(18.431373%,30.980392%,30.980392%);stroke-opacity:1;stroke-miterlimit:10;" d="M 251.40625 116.523438 C 251.40625 120.253906 248.382812 123.28125 244.648438 123.28125 C 240.917969 123.28125 237.894531 120.253906 237.894531 116.523438 C 237.894531 112.792969 240.917969 109.765625 244.648438 109.765625 C 248.382812 109.765625 251.40625 112.792969 251.40625 116.523438 "/>
<path style="fill:none;stroke-width:0.708661;stroke-linecap:round;stroke-linejoin:round;stroke:rgb(18.431373%,30.980392%,30.980392%);stroke-opacity:1;stroke-miterlimit:10;" d="M 224.554688 102.3125 C 224.554688 106.042969 221.527344 109.066406 217.796875 109.066406 C 214.066406 109.066406 211.042969 106.042969 211.042969 102.3125 C 211.042969 98.578125 214.066406 95.554688 217.796875 95.554688 C 221.527344 95.554688 224.554688 98.578125 224.554688 102.3125 "/>
<path style="fill-rule:nonzero;fill:rgb(18.431373%,30.980392%,30.980392%);fill-opacity:1;stroke-width:0.708661;stroke-linecap:round;stroke-linejoin:round;stroke:rgb(18.431373%,30.980392%,30.980392%);stroke-opacity:1;stroke-miterlimit:10;" d="M 188.039062 122.875 C 188.039062 126.605469 185.015625 129.628906 181.285156 129.628906 C 177.554688 129.628906 174.527344 126.605469 174.527344 122.875 C 174.527344 119.140625 177.554688 116.117188 181.285156 116.117188 C 185.015625 116.117188 188.039062 119.140625 188.039062 122.875 "/>
<path style="fill:none;stroke-width:0.708661;stroke-linecap:round;stroke-linejoin:round;stroke:rgb(18.431373%,30.980392%,30.980392%);stroke-opacity:1;stroke-miterlimit:10;" d="M 157.433594 88.871094 C 157.433594 92.601562 154.40625 95.625 150.675781 95.625 C 146.945312 95.625 143.917969 92.601562 143.917969 88.871094 C 143.917969 85.140625 146.945312 82.113281 150.675781 82.113281 C 154.40625 82.113281 157.433594 85.140625 157.433594 88.871094 "/>
<path style="fill:none;stroke-width:0.708661;stroke-linecap:round;stroke-linejoin:round;stroke:rgb(18.431373%,30.980392%,30.980392%);stroke-opacity:1;stroke-miterlimit:10;" d="M 188.46875 96.714844 C 188.46875 100.449219 185.445312 103.472656 181.710938 103.472656 C 177.980469 103.472656 174.957031 100.449219 174.957031 96.714844 C 174.957031 92.984375 177.980469 89.960938 181.710938 89.960938 C 185.445312 89.960938 188.46875 92.984375 188.46875 96.714844 "/>
<path style="fill:none;stroke-width:0.708661;stroke-linecap:round;stroke-linejoin:round;stroke:rgb(18.431373%,30.980392%,30.980392%);stroke-opacity:1;stroke-miterlimit:10;" d="M 199.394531 88.164062 C 199.394531 91.894531 196.367188 94.921875 192.636719 94.921875 C 188.90625 94.921875 185.882812 91.894531 185.882812 88.164062 C 185.882812 84.433594 188.90625 81.40625 192.636719 81.40625 C 196.367188 81.40625 199.394531 84.433594 199.394531 88.164062 "/>
<path style="fill-rule:nonzero;fill:rgb(18.431373%,30.980392%,30.980392%);fill-opacity:1;stroke-width:0.708661;stroke-linecap:round;stroke-linejoin:round;stroke:rgb(18.431373%,30.980392%,30.980392%);stroke-opacity:1;stroke-miterlimit:10;" d="M 215.265625 142.777344 C 215.265625 146.507812 212.242188 149.535156 208.511719 149.535156 C 204.777344 149.535156 201.753906 146.507812 201.753906 142.777344 C 201.753906 139.046875 204.777344 136.019531 208.511719 136.019531 C 212.242188 136.019531 215.265625 139.046875 215.265625 142.777344 "/>
<path style="fill:none;stroke-width:0.708661;stroke-linecap:round;stroke-linejoin:round;stroke:rgb(18.431373%,30.980392%,30.980392%);stroke-opacity:1;stroke-miterlimit:10;" d="M 135.335938 85.1875 C 135.335938 88.917969 132.3125 91.945312 128.582031 91.945312 C 124.851562 91.945312 121.824219 88.917969 121.824219 85.1875 C 121.824219 81.457031 124.851562 78.433594 128.582031 78.433594 C 132.3125 78.433594 135.335938 81.457031 135.335938 85.1875 "/>
<path style="fill:none;stroke-width:0.708661;stroke-linecap:round;stroke-linejoin:round;stroke:rgb(18.431373%,30.980392%,30.980392%);stroke-opacity:1;stroke-miterlimit:10;" d="M 138.769531 101.96875 C 138.769531 105.699219 135.746094 108.722656 132.015625 108.722656 C 128.285156 108.722656 125.257812 105.699219 125.257812 101.96875 C 125.257812 98.234375 128.285156 95.210938 132.015625 95.210938 C 135.746094 95.210938 138.769531 98.234375 138.769531 101.96875 "/>
<path style="fill:none;stroke-width:0.708661;stroke-linecap:round;stroke-linejoin:round;stroke:rgb(18.431373%,30.980392%,30.980392%);stroke-opacity:1;stroke-miterlimit:10;" d="M 145.578125 108.375 C 145.578125 112.105469 142.550781 115.128906 138.820312 115.128906 C 135.089844 115.128906 132.0625 112.105469 132.0625 108.375 C 132.0625 104.644531 135.089844 101.617188 138.820312 101.617188 C 142.550781 101.617188 145.578125 104.644531 145.578125 108.375 "/>
<path style="fill:none;stroke-width:0.708661;stroke-linecap:round;stroke-linejoin:round;stroke:rgb(18.431373%,30.980392%,30.980392%);stroke-opacity:1;stroke-miterlimit:10;" d="M 103.460938 60.3125 C 103.460938 64.046875 100.4375 67.070312 96.707031 67.070312 C 92.976562 67.070312 89.949219 64.046875 89.949219 60.3125 C 89.949219 56.582031 92.976562 53.558594 96.707031 53.558594 C 100.4375 53.558594 103.460938 56.582031 103.460938 60.3125 "/>
<path style="fill:none;stroke-width:0.708661;stroke-linecap:round;stroke-linejoin:round;stroke:rgb(18.431373%,30.980392%,30.980392%);stroke-opacity:1;stroke-miterlimit:10;" d="M 183.835938 71.042969 C 183.835938 74.773438 180.8125 77.796875 177.082031 77.796875 C 173.347656 77.796875 170.324219 74.773438 170.324219 71.042969 C 170.324219 67.308594 173.347656 64.285156 177.082031 64.285156 C 180.8125 64.285156 183.835938 67.308594 183.835938 71.042969 "/>
<path style="fill:none;stroke-width:0.708661;stroke-linecap:round;stroke-linejoin:round;stroke:rgb(18.431373%,30.980392%,30.980392%);stroke-opacity:1;stroke-miterlimit:10;" d="M 186.523438 110.84375 C 186.523438 114.574219 183.5 117.597656 179.765625 117.597656 C 176.035156 117.597656 173.011719 114.574219 173.011719 110.84375 C 173.011719 107.109375 176.035156 104.085938 179.765625 104.085938 C 183.5 104.085938 186.523438 107.109375 186.523438 110.84375 "/>
<path style="fill:none;stroke-width:0.708661;stroke-linecap:round;stroke-linejoin:round;stroke:rgb(18.431373%,30.980392%,30.980392%);stroke-opacity:1;stroke-miterlimit:10;" d="M 238.742188 139.566406 C 238.742188 143.300781 235.71875 146.324219 231.984375 146.324219 C 228.253906 146.324219 225.230469 143.300781 225.230469 139.566406 C 225.230469 135.835938 228.253906 132.8125 231.984375 132.8125 C 235.71875 132.8125 238.742188 135.835938 238.742188 139.566406 "/>
<path style="fill:none;stroke-width:0.708661;stroke-linecap:round;stroke-linejoin:round;stroke:rgb(18.431373%,30.980392%,30.980392%);stroke-opacity:1;stroke-miterlimit:10;" d="M 128.59375 80.003906 C 128.59375 83.734375 125.570312 86.757812 121.839844 86.757812 C 118.105469 86.757812 115.082031 83.734375 115.082031 80.003906 C 115.082031 76.269531 118.105469 73.246094 121.839844 73.246094 C 125.570312 73.246094 128.59375 76.269531 128.59375 80.003906 "/>
<path style="fill:none;stroke-width:0.708661;stroke-linecap:round;stroke-linejoin:round;stroke:rgb(18.431373%,30.980392%,30.980392%);stroke-opacity:1;stroke-miterlimit:10;" d="M 102.3125 101.0625 C 102.3125 104.796875 99.285156 107.820312 95.554688 107.820312 C 91.824219 107.820312 88.800781 104.796875 88.800781 101.0625 C 88.800781 97.332031 91.824219 94.308594 95.554688 94.308594 C 99.285156 94.308594 102.3125 97.332031 102.3125 101.0625 "/>
<path style="fill:none;stroke-width:0.708661;stroke-linecap:round;stroke-linejoin:round;stroke:rgb(18.431373%,30.980392%,30.980392%);stroke-opacity:1;stroke-miterlimit:10;" d="M 212.605469 126.320312 C 212.605469 130.054688 209.578125 133.078125 205.847656 133.078125 C 202.117188 133.078125 199.09375 130.054688 199.09375 126.320312 C 199.09375 122.589844 202.117188 119.566406 205.847656 119.566406 C 209.578125 119.566406 212.605469 122.589844 212.605469 126.320312 "/>
<path style="fill:none;stroke-width:0.708661;stroke-linecap:round;stroke-linejoin:round;stroke:rgb(18.431373%,30.980392%,30.980392%);stroke-opacity:1;stroke-miterlimit:10;" d="M 185.992188 138.296875 C 185.992188 142.03125 182.96875 145.054688 179.234375 145.054688 C 175.503906 145.054688 172.480469 142.03125 172.480469 138.296875 C 172.480469 134.566406 175.503906 131.542969 179.234375 131.542969 C 182.96875 131.542969 185.992188 134.566406 185.992188 138.296875 "/>
<path style="fill:none;stroke-width:0.708661;stroke-linecap:round;stroke-linejoin:round;stroke:rgb(18.431373%,30.980392%,30.980392%);stroke-opacity:1;stroke-miterlimit:10;" d="M 125.210938 108.046875 C 125.210938 111.78125 122.1875 114.804688 118.453125 114.804688 C 114.722656 114.804688 111.699219 111.78125 111.699219 108.046875 C 111.699219 104.316406 114.722656 101.292969 118.453125 101.292969 C 122.1875 101.292969 125.210938 104.316406 125.210938 108.046875 "/>
<path style="fill:none;stroke-width:0.708661;stroke-linecap:round;stroke-linejoin:round;stroke:rgb(18.431373%,30.980392%,30.980392%);stroke-opacity:1;stroke-miterlimit:10;" d="M 180.203125 117.910156 C 180.203125 121.644531 177.175781 124.667969 173.445312 124.667969 C 169.714844 124.667969 166.6875 121.644531 166.6875 117.910156 C 166.6875 114.179688 169.714844 111.15625 173.445312 111.15625 C 177.175781 111.15625 180.203125 114.179688 180.203125 117.910156 "/>
<path style="fill-rule:nonzero;fill:rgb(18.431373%,30.980392%,30.980392%);fill-opacity:1;stroke-width:0.708661;stroke-linecap:round;stroke-linejoin:round;stroke:rgb(18.431373%,30.980392%,30.980392%);stroke-opacity:1;stroke-miterlimit:10;" d="M 207.878906 77.074219 C 207.878906 80.804688 204.851562 83.832031 201.121094 83.832031 C 197.390625 83.832031 194.363281 80.804688 194.363281 77.074219 C 194.363281 73.34375 197.390625 70.320312 201.121094 70.320312 C 204.851562 70.320312 207.878906 73.34375 207.878906 77.074219 "/>
<path style="fill:none;stroke-width:0.708661;stroke-linecap:round;stroke-linejoin:round;stroke:rgb(18.431373%,30.980392%,30.980392%);stroke-opacity:1;stroke-miterlimit:10;" d="M 128.539062 46.570312 C 128.539062 50.300781 125.515625 53.324219 121.785156 53.324219 C 118.050781 53.324219 115.027344 50.300781 115.027344 46.570312 C 115.027344 42.839844 118.050781 39.8125 121.785156 39.8125 C 125.515625 39.8125 128.539062 42.839844 128.539062 46.570312 "/>
<path style="fill:none;stroke-width:0.708661;stroke-linecap:round;stroke-linejoin:round;stroke:rgb(18.431373%,30.980392%,30.980392%);stroke-opacity:1;stroke-miterlimit:10;" d="M 229.746094 117.847656 C 229.746094 121.578125 226.722656 124.601562 222.992188 124.601562 C 219.257812 124.601562 216.234375 121.578125 216.234375 117.847656 C 216.234375 114.117188 219.257812 111.089844 222.992188 111.089844 C 226.722656 111.089844 229.746094 114.117188 229.746094 117.847656 "/>
<path style="fill:none;stroke-width:0.708661;stroke-linecap:round;stroke-linejoin:round;stroke:rgb(18.431373%,30.980392%,30.980392%);stroke-opacity:1;stroke-miterlimit:10;" d="M 172.125 112.667969 C 172.125 116.398438 169.101562 119.421875 165.371094 119.421875 C 161.636719 119.421875 158.613281 116.398438 158.613281 112.667969 C 158.613281 108.9375 161.636719 105.910156 165.371094 105.910156 C 169.101562 105.910156 172.125 108.9375 172.125 112.667969 "/>
<path style="fill-rule:nonzero;fill:rgb(18.431373%,30.980392%,30.980392%);fill-opacity:1;stroke-width:0.708661;stroke-linecap:round;stroke-linejoin:round;stroke:rgb(18.431373%,30.980392%,30.980392%);stroke-opacity:1;stroke-miterlimit:10;" d="M 33.507812 81.996094 C 33.507812 85.726562 30.484375 88.753906 26.753906 88.753906 C 23.023438 88.753906 19.996094 85.726562 19.996094 81.996094 C 19.996094 78.265625 23.023438 75.242188 26.753906 75.242188 C 30.484375 75.242188 33.507812 78.265625 33.507812 81.996094 "/>
<path style="fill:none;stroke-width:0.708661;stroke-linecap:round;stroke-linejoin:round;stroke:rgb(18.431373%,30.980392%,30.980392%);stroke-opacity:1;stroke-miterlimit:10;" d="M 45.433594 84.308594 C 45.433594 88.042969 42.410156 91.066406 38.675781 91.066406 C 34.945312 91.066406 31.921875 88.042969 31.921875 84.308594 C 31.921875 80.578125 34.945312 77.554688 38.675781 77.554688 C 42.410156 77.554688 45.433594 80.578125 45.433594 84.308594 "/>
<path style="fill-rule:nonzero;fill:rgb(18.431373%,30.980392%,30.980392%);fill-opacity:1;stroke-width:0.708661;stroke-linecap:round;stroke-linejoin:round;stroke:rgb(18.431373%,30.980392%,30.980392%);stroke-opacity:1;stroke-miterlimit:10;" d="M 175.683594 86.21875 C 175.683594 89.949219 172.65625 92.972656 168.925781 92.972656 C 165.195312 92.972656 162.171875 89.949219 162.171875 86.21875 C 162.171875 82.484375 165.195312 79.460938 168.925781 79.460938 C 172.65625 79.460938 175.683594 82.484375 175.683594 86.21875 "/>
<path style="fill:none;stroke-width:0.708661;stroke-linecap:round;stroke-linejoin:round;stroke:rgb(18.431373%,30.980392%,30.980392%);stroke-opacity:1;stroke-miterlimit:10;" d="M 123.277344 58.960938 C 123.277344 62.695312 120.25 65.71875 116.519531 65.71875 C 112.789062 65.71875 109.761719 62.695312 109.761719 58.960938 C 109.761719 55.230469 112.789062 52.207031 116.519531 52.207031 C 120.25 52.207031 123.277344 55.230469 123.277344 58.960938 "/>
<path style="fill:none;stroke-width:0.708661;stroke-linecap:round;stroke-linejoin:round;stroke:rgb(18.431373%,30.980392%,30.980392%);stroke-opacity:1;stroke-miterlimit:10;" d="M 138.304688 105.054688 C 138.304688 108.785156 135.28125 111.8125 131.546875 111.8125 C 127.816406 111.8125 124.792969 108.785156 124.792969 105.054688 C 124.792969 101.324219 127.816406 98.300781 131.546875 98.300781 C 135.28125 98.300781 138.304688 101.324219 138.304688 105.054688 "/>
<path style="fill:none;stroke-width:0.708661;stroke-linecap:round;stroke-linejoin:round;stroke:rgb(18.431373%,30.980392%,30.980392%);stroke-opacity:1;stroke-miterlimit:10;" d="M 165.253906 67.09375 C 165.253906 70.824219 162.226562 73.847656 158.496094 73.847656 C 154.765625 73.847656 151.738281 70.824219 151.738281 67.09375 C 151.738281 63.359375 154.765625 60.335938 158.496094 60.335938 C 162.226562 60.335938 165.253906 63.359375 165.253906 67.09375 "/>
<path style="fill:none;stroke-width:0.708661;stroke-linecap:round;stroke-linejoin:round;stroke:rgb(18.431373%,30.980392%,30.980392%);stroke-opacity:1;stroke-miterlimit:10;" d="M 152.460938 97.101562 C 152.460938 100.832031 149.4375 103.859375 145.707031 103.859375 C 141.972656 103.859375 138.949219 100.832031 138.949219 97.101562 C 138.949219 93.371094 141.972656 90.34375 145.707031 90.34375 C 149.4375 90.34375 152.460938 93.371094 152.460938 97.101562 "/>
<path style="fill-rule:nonzero;fill:rgb(18.431373%,30.980392%,30.980392%);fill-opacity:1;stroke-width:0.708661;stroke-linecap:round;stroke-linejoin:round;stroke:rgb(18.431373%,30.980392%,30.980392%);stroke-opacity:1;stroke-miterlimit:10;" d="M 119.570312 122.742188 C 119.570312 126.472656 116.542969 129.496094 112.8125 129.496094 C 109.082031 129.496094 106.058594 126.472656 106.058594 122.742188 C 106.058594 119.007812 109.082031 115.984375 112.8125 115.984375 C 116.542969 115.984375 119.570312 119.007812 119.570312 122.742188 "/>
<path style="fill:none;stroke-width:0.708661;stroke-linecap:round;stroke-linejoin:round;stroke:rgb(18.431373%,30.980392%,30.980392%);stroke-opacity:1;stroke-miterlimit:10;" d="M 105.214844 85.285156 C 105.214844 89.015625 102.1875 92.039062 98.457031 92.039062 C 94.726562 92.039062 91.699219 89.015625 91.699219 85.285156 C 91.699219 81.550781 94.726562 78.527344 98.457031 78.527344 C 102.1875 78.527344 105.214844 81.550781 105.214844 85.285156 "/>
<path style="fill:none;stroke-width:0.708661;stroke-linecap:round;stroke-linejoin:round;stroke:rgb(18.431373%,30.980392%,30.980392%);stroke-opacity:1;stroke-miterlimit:10;" d="M 141.796875 86.167969 C 141.796875 89.898438 138.773438 92.925781 135.042969 92.925781 C 131.3125 92.925781 128.285156 89.898438 128.285156 86.167969 C 128.285156 82.4375 131.3125 79.414062 135.042969 79.414062 C 138.773438 79.414062 141.796875 82.4375 141.796875 86.167969 "/>
<path style="fill:none;stroke-width:0.708661;stroke-linecap:round;stroke-linejoin:round;stroke:rgb(18.431373%,30.980392%,30.980392%);stroke-opacity:1;stroke-miterlimit:10;" d="M 248.707031 148.949219 C 248.707031 152.679688 245.683594 155.707031 241.953125 155.707031 C 238.21875 155.707031 235.195312 152.679688 235.195312 148.949219 C 235.195312 145.21875 238.21875 142.191406 241.953125 142.191406 C 245.683594 142.191406 248.707031 145.21875 248.707031 148.949219 "/>
<path style="fill:none;stroke-width:0.708661;stroke-linecap:round;stroke-linejoin:round;stroke:rgb(18.431373%,30.980392%,30.980392%);stroke-opacity:1;stroke-miterlimit:10;" d="M 227.15625 138.410156 C 227.15625 142.140625 224.128906 145.164062 220.398438 145.164062 C 216.667969 145.164062 213.640625 142.140625 213.640625 138.410156 C 213.640625 134.675781 216.667969 131.652344 220.398438 131.652344 C 224.128906 131.652344 227.15625 134.675781 227.15625 138.410156 "/>
<path style="fill:none;stroke-width:0.708661;stroke-linecap:round;stroke-linejoin:round;stroke:rgb(18.431373%,30.980392%,30.980392%);stroke-opacity:1;stroke-miterlimit:10;" d="M 155.496094 65.132812 C 155.496094 68.863281 152.472656 71.890625 148.738281 71.890625 C 145.007812 71.890625 141.984375 68.863281 141.984375 65.132812 C 141.984375 61.402344 145.007812 58.375 148.738281 58.375 C 152.472656 58.375 155.496094 61.402344 155.496094 65.132812 "/>
<path style="fill:none;stroke-width:0.708661;stroke-linecap:round;stroke-linejoin:round;stroke:rgb(18.431373%,30.980392%,30.980392%);stroke-opacity:1;stroke-miterlimit:10;" d="M 141.339844 58.714844 C 141.339844 62.445312 138.3125 65.46875 134.582031 65.46875 C 130.851562 65.46875 127.824219 62.445312 127.824219 58.714844 C 127.824219 54.980469 130.851562 51.957031 134.582031 51.957031 C 138.3125 51.957031 141.339844 54.980469 141.339844 58.714844 "/>
<path style="fill:none;stroke-width:0.708661;stroke-linecap:round;stroke-linejoin:round;stroke:rgb(18.431373%,30.980392%,30.980392%);stroke-opacity:1;stroke-miterlimit:10;" d="M 59.527344 14.675781 C 59.527344 18.40625 56.503906 21.429688 52.773438 21.429688 C 49.039062 21.429688 46.015625 18.40625 46.015625 14.675781 C 46.015625 10.945312 49.039062 7.917969 52.773438 7.917969 C 56.503906 7.917969 59.527344 10.945312 59.527344 14.675781 "/>
<path style="fill:none;stroke-width:0.708661;stroke-linecap:round;stroke-linejoin:round;stroke:rgb(18.431373%,30.980392%,30.980392%);stroke-opacity:1;stroke-miterlimit:10;" d="M 145.722656 124.410156 C 145.722656 128.140625 142.695312 131.164062 138.964844 131.164062 C 135.234375 131.164062 132.207031 128.140625 132.207031 124.410156 C 132.207031 120.679688 135.234375 117.652344 138.964844 117.652344 C 142.695312 117.652344 145.722656 120.679688 145.722656 124.410156 "/>
<path style="fill:none;stroke-width:0.708661;stroke-linecap:round;stroke-linejoin:round;stroke:rgb(18.431373%,30.980392%,30.980392%);stroke-opacity:1;stroke-miterlimit:10;" d="M 186.296875 106.253906 C 186.296875 109.988281 183.273438 113.011719 179.542969 113.011719 C 175.808594 113.011719 172.785156 109.988281 172.785156 106.253906 C 172.785156 102.523438 175.808594 99.5 179.542969 99.5 C 183.273438 99.5 186.296875 102.523438 186.296875 106.253906 "/>
<path style="fill:none;stroke-width:0.708661;stroke-linecap:round;stroke-linejoin:round;stroke:rgb(18.431373%,30.980392%,30.980392%);stroke-opacity:1;stroke-miterlimit:10;" d="M 89.59375 52.832031 C 89.59375 56.5625 86.570312 59.589844 82.835938 59.589844 C 79.105469 59.589844 76.082031 56.5625 76.082031 52.832031 C 76.082031 49.101562 79.105469 46.078125 82.835938 46.078125 C 86.570312 46.078125 89.59375 49.101562 89.59375 52.832031 "/>
<path style="fill:none;stroke-width:0.708661;stroke-linecap:round;stroke-linejoin:round;stroke:rgb(18.431373%,30.980392%,30.980392%);stroke-opacity:1;stroke-miterlimit:10;" d="M 195.304688 85.855469 C 195.304688 89.585938 192.28125 92.609375 188.550781 92.609375 C 184.816406 92.609375 181.792969 89.585938 181.792969 85.855469 C 181.792969 82.121094 184.816406 79.097656 188.550781 79.097656 C 192.28125 79.097656 195.304688 82.121094 195.304688 85.855469 "/>
<path style="fill:none;stroke-width:0.708661;stroke-linecap:round;stroke-linejoin:round;stroke:rgb(18.431373%,30.980392%,30.980392%);stroke-opacity:1;stroke-miterlimit:10;" d="M 198.394531 113.527344 C 198.394531 117.257812 195.367188 120.28125 191.636719 120.28125 C 187.90625 120.28125 184.882812 117.257812 184.882812 113.527344 C 184.882812 109.796875 187.90625 106.769531 191.636719 106.769531 C 195.367188 106.769531 198.394531 109.796875 198.394531 113.527344 "/>
<path style="fill:none;stroke-width:0.708661;stroke-linecap:round;stroke-linejoin:round;stroke:rgb(18.431373%,30.980392%,30.980392%);stroke-opacity:1;stroke-miterlimit:10;" d="M 92.757812 32.488281 C 92.757812 36.21875 89.734375 39.246094 86 39.246094 C 82.269531 39.246094 79.246094 36.21875 79.246094 32.488281 C 79.246094 28.757812 82.269531 25.730469 86 25.730469 C 89.734375 25.730469 92.757812 28.757812 92.757812 32.488281 "/>
<path style="fill:none;stroke-width:0.708661;stroke-linecap:round;stroke-linejoin:round;stroke:rgb(18.431373%,30.980392%,30.980392%);stroke-opacity:1;stroke-miterlimit:10;" d="M 209.953125 42.238281 C 209.953125 45.972656 206.925781 48.996094 203.195312 48.996094 C 199.464844 48.996094 196.441406 45.972656 196.441406 42.238281 C 196.441406 38.507812 199.464844 35.484375 203.195312 35.484375 C 206.925781 35.484375 209.953125 38.507812 209.953125 42.238281 "/>
<path style="fill:none;stroke-width:0.708661;stroke-linecap:round;stroke-linejoin:round;stroke:rgb(18.431373%,30.980392%,30.980392%);stroke-opacity:1;stroke-miterlimit:10;" d="M 134.972656 91.558594 C 134.972656 95.289062 131.945312 98.316406 128.214844 98.316406 C 124.484375 98.316406 121.457031 95.289062 121.457031 91.558594 C 121.457031 87.828125 124.484375 84.804688 128.214844 84.804688 C 131.945312 84.804688 134.972656 87.828125 134.972656 91.558594 "/>
<path style="fill:none;stroke-width:0.708661;stroke-linecap:round;stroke-linejoin:round;stroke:rgb(18.431373%,30.980392%,30.980392%);stroke-opacity:1;stroke-miterlimit:10;" d="M 126.777344 119.449219 C 126.777344 123.179688 123.75 126.203125 120.019531 126.203125 C 116.289062 126.203125 113.261719 123.179688 113.261719 119.449219 C 113.261719 115.71875 116.289062 112.691406 120.019531 112.691406 C 123.75 112.691406 126.777344 115.71875 126.777344 119.449219 "/>
<path style="fill:none;stroke-width:0.708661;stroke-linecap:round;stroke-linejoin:round;stroke:rgb(18.431373%,30.980392%,30.980392%);stroke-opacity:1;stroke-miterlimit:10;" d="M 198.699219 108.820312 C 198.699219 112.550781 195.675781 115.574219 191.945312 115.574219 C 188.210938 115.574219 185.1875 112.550781 185.1875 108.820312 C 185.1875 105.085938 188.210938 102.0625 191.945312 102.0625 C 195.675781 102.0625 198.699219 105.085938 198.699219 108.820312 "/>
<path style="fill-rule:nonzero;fill:rgb(18.431373%,30.980392%,30.980392%);fill-opacity:1;stroke-width:0.708661;stroke-linecap:round;stroke-linejoin:round;stroke:rgb(18.431373%,30.980392%,30.980392%);stroke-opacity:1;stroke-miterlimit:10;" d="M 171.9375 147.382812 C 171.9375 151.113281 168.914062 154.136719 165.179688 154.136719 C 161.449219 154.136719 158.425781 151.113281 158.425781 147.382812 C 158.425781 143.652344 161.449219 140.625 165.179688 140.625 C 168.914062 140.625 171.9375 143.652344 171.9375 147.382812 "/>
<path style="fill:none;stroke-width:0.708661;stroke-linecap:round;stroke-linejoin:round;stroke:rgb(18.431373%,30.980392%,30.980392%);stroke-opacity:1;stroke-miterlimit:10;" d="M 131.726562 67.335938 C 131.726562 71.070312 128.699219 74.09375 124.96875 74.09375 C 121.238281 74.09375 118.214844 71.070312 118.214844 67.335938 C 118.214844 63.605469 121.238281 60.582031 124.96875 60.582031 C 128.699219 60.582031 131.726562 63.605469 131.726562 67.335938 "/>
<path style="fill:none;stroke-width:0.708661;stroke-linecap:round;stroke-linejoin:round;stroke:rgb(18.431373%,30.980392%,30.980392%);stroke-opacity:1;stroke-miterlimit:10;" d="M 88.289062 104.574219 C 88.289062 108.304688 85.265625 111.328125 81.535156 111.328125 C 77.804688 111.328125 74.777344 108.304688 74.777344 104.574219 C 74.777344 100.84375 77.804688 97.816406 81.535156 97.816406 C 85.265625 97.816406 88.289062 100.84375 88.289062 104.574219 "/>
<path style="fill:none;stroke-width:0.708661;stroke-linecap:round;stroke-linejoin:round;stroke:rgb(18.431373%,30.980392%,30.980392%);stroke-opacity:1;stroke-miterlimit:10;" d="M 201.671875 85.589844 C 201.671875 89.320312 198.644531 92.34375 194.914062 92.34375 C 191.183594 92.34375 188.160156 89.320312 188.160156 85.589844 C 188.160156 81.859375 191.183594 78.832031 194.914062 78.832031 C 198.644531 78.832031 201.671875 81.859375 201.671875 85.589844 "/>
<path style="fill:none;stroke-width:0.708661;stroke-linecap:round;stroke-linejoin:round;stroke:rgb(18.431373%,30.980392%,30.980392%);stroke-opacity:1;stroke-miterlimit:10;" d="M 93.105469 85.675781 C 93.105469 89.40625 90.082031 92.429688 86.347656 92.429688 C 82.617188 92.429688 79.59375 89.40625 79.59375 85.675781 C 79.59375 81.945312 82.617188 78.917969 86.347656 78.917969 C 90.082031 78.917969 93.105469 81.945312 93.105469 85.675781 "/>
<path style="fill:none;stroke-width:0.708661;stroke-linecap:round;stroke-linejoin:round;stroke:rgb(18.431373%,30.980392%,30.980392%);stroke-opacity:1;stroke-miterlimit:10;" d="M 50.40625 63.921875 C 50.40625 67.652344 47.382812 70.675781 43.652344 70.675781 C 39.917969 70.675781 36.894531 67.652344 36.894531 63.921875 C 36.894531 60.191406 39.917969 57.164062 43.652344 57.164062 C 47.382812 57.164062 50.40625 60.191406 50.40625 63.921875 "/>
<path style="fill:none;stroke-width:0.708661;stroke-linecap:round;stroke-linejoin:round;stroke:rgb(18.431373%,30.980392%,30.980392%);stroke-opacity:1;stroke-miterlimit:10;" d="M 203.628906 136.585938 C 203.628906 140.320312 200.605469 143.34375 196.875 143.34375 C 193.140625 143.34375 190.117188 140.320312 190.117188 136.585938 C 190.117188 132.855469 193.140625 129.832031 196.875 129.832031 C 200.605469 129.832031 203.628906 132.855469 203.628906 136.585938 "/>
<path style="fill:none;stroke-width:0.708661;stroke-linecap:round;stroke-linejoin:round;stroke:rgb(18.431373%,30.980392%,30.980392%);stroke-opacity:1;stroke-miterlimit:10;" d="M 198.191406 98.878906 C 198.191406 102.613281 195.167969 105.636719 191.433594 105.636719 C 187.703125 105.636719 184.679688 102.613281 184.679688 98.878906 C 184.679688 95.148438 187.703125 92.125 191.433594 92.125 C 195.167969 92.125 198.191406 95.148438 198.191406 98.878906 "/>
<path style="fill:none;stroke-width:0.708661;stroke-linecap:round;stroke-linejoin:round;stroke:rgb(18.431373%,30.980392%,30.980392%);stroke-opacity:1;stroke-miterlimit:10;" d="M 182.367188 111.789062 C 182.367188 115.519531 179.34375 118.546875 175.613281 118.546875 C 171.878906 118.546875 168.855469 115.519531 168.855469 111.789062 C 168.855469 108.058594 171.878906 105.03125 175.613281 105.03125 C 179.34375 105.03125 182.367188 108.058594 182.367188 111.789062 "/>
<path style="fill:none;stroke-width:0.708661;stroke-linecap:round;stroke-linejoin:round;stroke:rgb(18.431373%,30.980392%,30.980392%);stroke-opacity:1;stroke-miterlimit:10;" d="M 27.445312 61.667969 C 27.445312 65.398438 24.417969 68.421875 20.6875 68.421875 C 16.957031 68.421875 13.929688 65.398438 13.929688 61.667969 C 13.929688 57.933594 16.957031 54.910156 20.6875 54.910156 C 24.417969 54.910156 27.445312 57.933594 27.445312 61.667969 "/>
<path style="fill:none;stroke-width:0.708661;stroke-linecap:round;stroke-linejoin:round;stroke:rgb(18.431373%,30.980392%,30.980392%);stroke-opacity:1;stroke-miterlimit:10;" d="M 137.203125 91.957031 C 137.203125 95.6875 134.179688 98.714844 130.449219 98.714844 C 126.71875 98.714844 123.691406 95.6875 123.691406 91.957031 C 123.691406 88.226562 126.71875 85.203125 130.449219 85.203125 C 134.179688 85.203125 137.203125 88.226562 137.203125 91.957031 "/>
<path style="fill:none;stroke-width:0.708661;stroke-linecap:round;stroke-linejoin:round;stroke:rgb(18.431373%,30.980392%,30.980392%);stroke-opacity:1;stroke-miterlimit:10;" d="M 156.371094 66.277344 C 156.371094 70.007812 153.347656 73.035156 149.617188 73.035156 C 145.882812 73.035156 142.859375 70.007812 142.859375 66.277344 C 142.859375 62.546875 145.882812 59.523438 149.617188 59.523438 C 153.347656 59.523438 156.371094 62.546875 156.371094 66.277344 "/>
<path style="fill:none;stroke-width:0.708661;stroke-linecap:round;stroke-linejoin:round;stroke:rgb(18.431373%,30.980392%,30.980392%);stroke-opacity:1;stroke-miterlimit:10;" d="M 215.71875 145.730469 C 215.71875 149.460938 212.695312 152.488281 208.964844 152.488281 C 205.230469 152.488281 202.207031 149.460938 202.207031 145.730469 C 202.207031 142 205.230469 138.976562 208.964844 138.976562 C 212.695312 138.976562 215.71875 142 215.71875 145.730469 "/>
<path style="fill:none;stroke-width:0.708661;stroke-linecap:round;stroke-linejoin:round;stroke:rgb(18.431373%,30.980392%,30.980392%);stroke-opacity:1;stroke-miterlimit:10;" d="M 168.105469 101.308594 C 168.105469 105.039062 165.082031 108.066406 161.347656 108.066406 C 157.617188 108.066406 154.59375 105.039062 154.59375 101.308594 C 154.59375 97.578125 157.617188 94.550781 161.347656 94.550781 C 165.082031 94.550781 168.105469 97.578125 168.105469 101.308594 "/>
<path style="fill:none;stroke-width:0.708661;stroke-linecap:round;stroke-linejoin:round;stroke:rgb(18.431373%,30.980392%,30.980392%);stroke-opacity:1;stroke-miterlimit:10;" d="M 83.8125 76.359375 C 83.8125 80.089844 80.789062 83.113281 77.054688 83.113281 C 73.324219 83.113281 70.300781 80.089844 70.300781 76.359375 C 70.300781 72.628906 73.324219 69.601562 77.054688 69.601562 C 80.789062 69.601562 83.8125 72.628906 83.8125 76.359375 "/>
<g clip-path="url(#clip2)" clip-rule="nonzero">
<path style="fill:none;stroke-width:4.267913;stroke-linecap:butt;stroke-linejoin:round;stroke:rgb(0%,0%,0%);stroke-opacity:0.298039;stroke-dasharray:17.071654,17.071654;stroke-miterlimit:10;" d="M -266.082031 57.277344 L 556.820312 164.53125 "/>
</g>
<g clip-path="url(#clip3)" clip-rule="nonzero">
<path style="fill:none;stroke-width:4.267913;stroke-linecap:butt;stroke-linejoin:round;stroke:rgb(0%,0%,0%);stroke-opacity:0.298039;stroke-dasharray:17.071654,17.071654;stroke-miterlimit:10;" d="M -266.082031 -41.300781 L 556.820312 227.601562 "/>
<path style="fill:none;stroke-width:4.267913;stroke-linecap:butt;stroke-linejoin:round;stroke:rgb(0%,0%,0%);stroke-opacity:1;stroke-dasharray:17.071654,17.071654;stroke-miterlimit:10;" d="M -266.082031 -23.472656 L 556.820312 227.257812 "/>
</g>
</g>
</svg>
