<?xml version="1.0" encoding="UTF-8"?>
<svg xmlns="http://www.w3.org/2000/svg" xmlns:xlink="http://www.w3.org/1999/xlink" width="288pt" height="216pt" viewBox="0 0 288 216" version="1.1">
<defs>
<clipPath id="clip1">
  <path d="M 8.21875 5.480469 L 282.519531 5.480469 L 282.519531 207.78125 L 8.21875 207.78125 Z M 8.21875 5.480469 "/>
</clipPath>
<clipPath id="clip2">
  <path d="M 8.21875 55 L 282.519531 55 L 282.519531 171 L 8.21875 171 Z M 8.21875 55 "/>
</clipPath>
<clipPath id="clip3">
  <path d="M 8.21875 48 L 282.519531 48 L 282.519531 207.78125 L 8.21875 207.78125 Z M 8.21875 48 "/>
</clipPath>
</defs>
<g id="surface6254">
<rect x="0" y="0" width="288" height="216" style="fill:rgb(100%,100%,100%);fill-opacity:1;stroke:none;"/>
<rect x="0" y="0" width="288" height="216" style="fill:rgb(93.333333%,93.333333%,93.333333%);fill-opacity:1;stroke:none;"/>
<g clip-path="url(#clip1)" clip-rule="nonzero">
<path style=" stroke:none;fill-rule:nonzero;fill:rgb(93.333333%,93.333333%,93.333333%);fill-opacity:1;" d="M 8.21875 207.78125 L 282.519531 207.78125 L 282.519531 5.480469 L 8.21875 5.480469 Z M 8.21875 207.78125 "/>
</g>
<g clip-path="url(#clip2)" clip-rule="nonzero">
<path style="fill:none;stroke-width:6.40187;stroke-linecap:butt;stroke-linejoin:round;stroke:rgb(90.196078%,25.490196%,45.098039%);stroke-opacity:0.298039;stroke-miterlimit:10;" d="M 8.21875 167.261719 L 282.519531 58.570312 "/>
</g>
<path style="fill:none;stroke-width:0.708661;stroke-linecap:round;stroke-linejoin:round;stroke:rgb(18.431373%,30.980392%,30.980392%);stroke-opacity:1;stroke-miterlimit:10;" d="M 150.855469 96.800781 C 150.855469 100.53125 147.832031 103.558594 144.101562 103.558594 C 140.371094 103.558594 137.34375 100.53125 137.34375 96.800781 C 137.34375 93.070312 140.371094 90.046875 144.101562 90.046875 C 147.832031 90.046875 150.855469 93.070312 150.855469 96.800781 "/>
<path style="fill:none;stroke-width:0.708661;stroke-linecap:round;stroke-linejoin:round;stroke:rgb(18.431373%,30.980392%,30.980392%);stroke-opacity:1;stroke-miterlimit:10;" d="M 87.566406 91.347656 C 87.566406 95.078125 84.539062 98.101562 80.808594 98.101562 C 77.078125 98.101562 74.050781 95.078125 74.050781 91.347656 C 74.050781 87.617188 77.078125 84.589844 80.808594 84.589844 C 84.539062 84.589844 87.566406 87.617188 87.566406 91.347656 "/>
<path style="fill:none;stroke-width:0.708661;stroke-linecap:round;stroke-linejoin:round;stroke:rgb(18.431373%,30.980392%,30.980392%);stroke-opacity:1;stroke-miterlimit:10;" d="M 178.671875 198.585938 C 178.671875 202.316406 175.648438 205.339844 171.917969 205.339844 C 168.1875 205.339844 165.160156 202.316406 165.160156 198.585938 C 165.160156 194.855469 168.1875 191.828125 171.917969 191.828125 C 175.648438 191.828125 178.671875 194.855469 178.671875 198.585938 "/>
<path style="fill:none;stroke-width:0.708661;stroke-linecap:round;stroke-linejoin:round;stroke:rgb(18.431373%,30.980392%,30.980392%);stroke-opacity:1;stroke-miterlimit:10;" d="M 158.746094 135.105469 C 158.746094 138.839844 155.71875 141.863281 151.988281 141.863281 C 148.257812 141.863281 145.234375 138.839844 145.234375 135.105469 C 145.234375 131.375 148.257812 128.351562 151.988281 128.351562 C 155.71875 128.351562 158.746094 131.375 158.746094 135.105469 "/>
<path style="fill:none;stroke-width:0.708661;stroke-linecap:round;stroke-linejoin:round;stroke:rgb(18.431373%,30.980392%,30.980392%);stroke-opacity:1;stroke-miterlimit:10;" d="M 129.390625 85.996094 C 129.390625 89.726562 126.363281 92.75 122.632812 92.75 C 118.902344 92.75 115.875 89.726562 115.875 85.996094 C 115.875 82.265625 118.902344 79.238281 122.632812 79.238281 C 126.363281 79.238281 129.390625 82.265625 129.390625 85.996094 "/>
<path style="fill:none;stroke-width:0.708661;stroke-linecap:round;stroke-linejoin:round;stroke:rgb(18.431373%,30.980392%,30.980392%);stroke-opacity:1;stroke-miterlimit:10;" d="M 160.667969 123.671875 C 160.667969 127.402344 157.644531 130.429688 153.914062 130.429688 C 150.179688 130.429688 147.15625 127.402344 147.15625 123.671875 C 147.15625 119.941406 150.179688 116.917969 153.914062 116.917969 C 157.644531 116.917969 160.667969 119.941406 160.667969 123.671875 "/>
<path style="fill:none;stroke-width:0.708661;stroke-linecap:round;stroke-linejoin:round;stroke:rgb(18.431373%,30.980392%,30.980392%);stroke-opacity:1;stroke-miterlimit:10;" d="M 158.3125 86.785156 C 158.3125 90.515625 155.289062 93.542969 151.558594 93.542969 C 147.828125 93.542969 144.800781 90.515625 144.800781 86.785156 C 144.800781 83.054688 147.828125 80.03125 151.558594 80.03125 C 155.289062 80.03125 158.3125 83.054688 158.3125 86.785156 "/>
<path style="fill-rule:nonzero;fill:rgb(18.431373%,30.980392%,30.980392%);fill-opacity:1;stroke-width:0.708661;stroke-linecap:round;stroke-linejoin:round;stroke:rgb(18.431373%,30.980392%,30.980392%);stroke-opacity:1;stroke-miterlimit:10;" d="M 117.953125 164.261719 C 117.953125 167.992188 114.929688 171.019531 111.199219 171.019531 C 107.464844 171.019531 104.441406 167.992188 104.441406 164.261719 C 104.441406 160.53125 107.464844 157.503906 111.199219 157.503906 C 114.929688 157.503906 117.953125 160.53125 117.953125 164.261719 "/>
<path style="fill:none;stroke-width:0.708661;stroke-linecap:round;stroke-linejoin:round;stroke:rgb(18.431373%,30.980392%,30.980392%);stroke-opacity:1;stroke-miterlimit:10;" d="M 189.65625 109.636719 C 189.65625 113.367188 186.628906 116.394531 182.898438 116.394531 C 179.167969 116.394531 176.144531 113.367188 176.144531 109.636719 C 176.144531 105.90625 179.167969 102.882812 182.898438 102.882812 C 186.628906 102.882812 189.65625 105.90625 189.65625 109.636719 "/>
<path style="fill:none;stroke-width:0.708661;stroke-linecap:round;stroke-linejoin:round;stroke:rgb(18.431373%,30.980392%,30.980392%);stroke-opacity:1;stroke-miterlimit:10;" d="M 224.753906 42.964844 C 224.753906 46.695312 221.726562 49.71875 217.996094 49.71875 C 214.265625 49.71875 211.242188 46.695312 211.242188 42.964844 C 211.242188 39.230469 214.265625 36.207031 217.996094 36.207031 C 221.726562 36.207031 224.753906 39.230469 224.753906 42.964844 "/>
<path style="fill:none;stroke-width:0.708661;stroke-linecap:round;stroke-linejoin:round;stroke:rgb(18.431373%,30.980392%,30.980392%);stroke-opacity:1;stroke-miterlimit:10;" d="M 124.484375 173.703125 C 124.484375 177.4375 121.457031 180.460938 117.726562 180.460938 C 113.996094 180.460938 110.972656 177.4375 110.972656 173.703125 C 110.972656 169.972656 113.996094 166.949219 117.726562 166.949219 C 121.457031 166.949219 124.484375 169.972656 124.484375 173.703125 "/>
<path style="fill:none;stroke-width:0.708661;stroke-linecap:round;stroke-linejoin:round;stroke:rgb(18.431373%,30.980392%,30.980392%);stroke-opacity:1;stroke-miterlimit:10;" d="M 108.75 106.683594 C 108.75 110.414062 105.722656 113.4375 101.992188 113.4375 C 98.261719 113.4375 95.238281 110.414062 95.238281 106.683594 C 95.238281 102.949219 98.261719 99.925781 101.992188 99.925781 C 105.722656 99.925781 108.75 102.949219 108.75 106.683594 "/>
<path style="fill:none;stroke-width:0.708661;stroke-linecap:round;stroke-linejoin:round;stroke:rgb(18.431373%,30.980392%,30.980392%);stroke-opacity:1;stroke-miterlimit:10;" d="M 160.847656 133.894531 C 160.847656 137.625 157.820312 140.652344 154.089844 140.652344 C 150.359375 140.652344 147.335938 137.625 147.335938 133.894531 C 147.335938 130.164062 150.359375 127.140625 154.089844 127.140625 C 157.820312 127.140625 160.847656 130.164062 160.847656 133.894531 "/>
<path style="fill:none;stroke-width:0.708661;stroke-linecap:round;stroke-linejoin:round;stroke:rgb(18.431373%,30.980392%,30.980392%);stroke-opacity:1;stroke-miterlimit:10;" d="M 127.539062 130.226562 C 127.539062 133.957031 124.515625 136.980469 120.785156 136.980469 C 117.050781 136.980469 114.027344 133.957031 114.027344 130.226562 C 114.027344 126.492188 117.050781 123.46875 120.785156 123.46875 C 124.515625 123.46875 127.539062 126.492188 127.539062 130.226562 "/>
<path style="fill:none;stroke-width:0.708661;stroke-linecap:round;stroke-linejoin:round;stroke:rgb(18.431373%,30.980392%,30.980392%);stroke-opacity:1;stroke-miterlimit:10;" d="M 228.621094 88 C 228.621094 91.734375 225.597656 94.757812 221.863281 94.757812 C 218.132812 94.757812 215.109375 91.734375 215.109375 88 C 215.109375 84.269531 218.132812 81.246094 221.863281 81.246094 C 225.597656 81.246094 228.621094 84.269531 228.621094 88 "/>
<path style="fill:none;stroke-width:0.708661;stroke-linecap:round;stroke-linejoin:round;stroke:rgb(18.431373%,30.980392%,30.980392%);stroke-opacity:1;stroke-miterlimit:10;" d="M 123.5625 68.699219 C 123.5625 72.433594 120.539062 75.457031 116.804688 75.457031 C 113.074219 75.457031 110.050781 72.433594 110.050781 68.699219 C 110.050781 64.96875 113.074219 61.945312 116.804688 61.945312 C 120.539062 61.945312 123.5625 64.96875 123.5625 68.699219 "/>
<path style="fill:none;stroke-width:0.708661;stroke-linecap:round;stroke-linejoin:round;stroke:rgb(18.431373%,30.980392%,30.980392%);stroke-opacity:1;stroke-miterlimit:10;" d="M 185.066406 85.839844 C 185.066406 89.574219 182.042969 92.597656 178.3125 92.597656 C 174.582031 92.597656 171.554688 89.574219 171.554688 85.839844 C 171.554688 82.109375 174.582031 79.085938 178.3125 79.085938 C 182.042969 79.085938 185.066406 82.109375 185.066406 85.839844 "/>
<path style="fill:none;stroke-width:0.708661;stroke-linecap:round;stroke-linejoin:round;stroke:rgb(18.431373%,30.980392%,30.980392%);stroke-opacity:1;stroke-miterlimit:10;" d="M 219.714844 125.769531 C 219.714844 129.503906 216.691406 132.527344 212.957031 132.527344 C 209.226562 132.527344 206.203125 129.503906 206.203125 125.769531 C 206.203125 122.039062 209.226562 119.015625 212.957031 119.015625 C 216.691406 119.015625 219.714844 122.039062 219.714844 125.769531 "/>
<path style="fill:none;stroke-width:0.708661;stroke-linecap:round;stroke-linejoin:round;stroke:rgb(18.431373%,30.980392%,30.980392%);stroke-opacity:1;stroke-miterlimit:10;" d="M 276.808594 51.421875 C 276.808594 55.152344 273.785156 58.179688 270.050781 58.179688 C 266.320312 58.179688 263.296875 55.152344 263.296875 51.421875 C 263.296875 47.691406 266.320312 44.664062 270.050781 44.664062 C 273.785156 44.664062 276.808594 47.691406 276.808594 51.421875 "/>
<path style="fill:none;stroke-width:0.708661;stroke-linecap:round;stroke-linejoin:round;stroke:rgb(18.431373%,30.980392%,30.980392%);stroke-opacity:1;stroke-miterlimit:10;" d="M 168.914062 128.441406 C 168.914062 132.171875 165.886719 135.195312 162.15625 135.195312 C 158.425781 135.195312 155.402344 132.171875 155.402344 128.441406 C 155.402344 124.710938 158.425781 121.683594 162.15625 121.683594 C 165.886719 121.683594 168.914062 124.710938 168.914062 128.441406 "/>
<path style="fill:none;stroke-width:0.708661;stroke-linecap:round;stroke-linejoin:round;stroke:rgb(18.431373%,30.980392%,30.980392%);stroke-opacity:1;stroke-miterlimit:10;" d="M 236.445312 102.925781 C 236.445312 106.65625 233.421875 109.679688 229.691406 109.679688 C 225.957031 109.679688 222.933594 106.65625 222.933594 102.925781 C 222.933594 99.191406 225.957031 96.167969 229.691406 96.167969 C 233.421875 96.167969 236.445312 99.191406 236.445312 102.925781 "/>
<path style="fill:none;stroke-width:0.708661;stroke-linecap:round;stroke-linejoin:round;stroke:rgb(18.431373%,30.980392%,30.980392%);stroke-opacity:1;stroke-miterlimit:10;" d="M 177.628906 137.722656 C 177.628906 141.453125 174.605469 144.476562 170.871094 144.476562 C 167.140625 144.476562 164.117188 141.453125 164.117188 137.722656 C 164.117188 133.988281 167.140625 130.964844 170.871094 130.964844 C 174.605469 130.964844 177.628906 133.988281 177.628906 137.722656 "/>
<path style="fill-rule:nonzero;fill:rgb(18.431373%,30.980392%,30.980392%);fill-opacity:1;stroke-width:0.708661;stroke-linecap:round;stroke-linejoin:round;stroke:rgb(18.431373%,30.980392%,30.980392%);stroke-opacity:1;stroke-miterlimit:10;" d="M 156.433594 129.5 C 156.433594 133.230469 153.410156 136.253906 149.679688 136.253906 C 145.945312 136.253906 142.921875 133.230469 142.921875 129.5 C 142.921875 125.769531 145.945312 122.742188 149.679688 122.742188 C 153.410156 122.742188 156.433594 125.769531 156.433594 129.5 "/>
<path style="fill:none;stroke-width:0.708661;stroke-linecap:round;stroke-linejoin:round;stroke:rgb(18.431373%,30.980392%,30.980392%);stroke-opacity:1;stroke-miterlimit:10;" d="M 168.984375 119.90625 C 168.984375 123.640625 165.960938 126.664062 162.226562 126.664062 C 158.496094 126.664062 155.472656 123.640625 155.472656 119.90625 C 155.472656 116.175781 158.496094 113.152344 162.226562 113.152344 C 165.960938 113.152344 168.984375 116.175781 168.984375 119.90625 "/>
<path style="fill:none;stroke-width:0.708661;stroke-linecap:round;stroke-linejoin:round;stroke:rgb(18.431373%,30.980392%,30.980392%);stroke-opacity:1;stroke-miterlimit:10;" d="M 220.570312 107.125 C 220.570312 110.859375 217.546875 113.882812 213.816406 113.882812 C 210.082031 113.882812 207.058594 110.859375 207.058594 107.125 C 207.058594 103.394531 210.082031 100.371094 213.816406 100.371094 C 217.546875 100.371094 220.570312 103.394531 220.570312 107.125 "/>
<path style="fill:none;stroke-width:0.708661;stroke-linecap:round;stroke-linejoin:round;stroke:rgb(18.431373%,30.980392%,30.980392%);stroke-opacity:1;stroke-miterlimit:10;" d="M 162.796875 115.550781 C 162.796875 119.28125 159.769531 122.308594 156.039062 122.308594 C 152.308594 122.308594 149.285156 119.28125 149.285156 115.550781 C 149.285156 111.820312 152.308594 108.796875 156.039062 108.796875 C 159.769531 108.796875 162.796875 111.820312 162.796875 115.550781 "/>
<path style="fill:none;stroke-width:0.708661;stroke-linecap:round;stroke-linejoin:round;stroke:rgb(18.431373%,30.980392%,30.980392%);stroke-opacity:1;stroke-miterlimit:10;" d="M 145.691406 85.160156 C 145.691406 88.890625 142.664062 91.914062 138.933594 91.914062 C 135.203125 91.914062 132.179688 88.890625 132.179688 85.160156 C 132.179688 81.425781 135.203125 78.402344 138.933594 78.402344 C 142.664062 78.402344 145.691406 81.425781 145.691406 85.160156 "/>
<path style="fill:none;stroke-width:0.708661;stroke-linecap:round;stroke-linejoin:round;stroke:rgb(18.431373%,30.980392%,30.980392%);stroke-opacity:1;stroke-miterlimit:10;" d="M 112.066406 121.347656 C 112.066406 125.078125 109.042969 128.105469 105.3125 128.105469 C 101.578125 128.105469 98.554688 125.078125 98.554688 121.347656 C 98.554688 117.617188 101.578125 114.589844 105.3125 114.589844 C 109.042969 114.589844 112.066406 117.617188 112.066406 121.347656 "/>
<path style="fill:none;stroke-width:0.708661;stroke-linecap:round;stroke-linejoin:round;stroke:rgb(18.431373%,30.980392%,30.980392%);stroke-opacity:1;stroke-miterlimit:10;" d="M 62.746094 176.253906 C 62.746094 179.984375 59.71875 183.007812 55.988281 183.007812 C 52.257812 183.007812 49.230469 179.984375 49.230469 176.253906 C 49.230469 172.519531 52.257812 169.496094 55.988281 169.496094 C 59.71875 169.496094 62.746094 172.519531 62.746094 176.253906 "/>
<path style="fill:none;stroke-width:0.708661;stroke-linecap:round;stroke-linejoin:round;stroke:rgb(18.431373%,30.980392%,30.980392%);stroke-opacity:1;stroke-miterlimit:10;" d="M 211.085938 32.414062 C 211.085938 36.144531 208.058594 39.171875 204.328125 39.171875 C 200.597656 39.171875 197.570312 36.144531 197.570312 32.414062 C 197.570312 28.683594 200.597656 25.660156 204.328125 25.660156 C 208.058594 25.660156 211.085938 28.683594 211.085938 32.414062 "/>
<path style="fill:none;stroke-width:0.708661;stroke-linecap:round;stroke-linejoin:round;stroke:rgb(18.431373%,30.980392%,30.980392%);stroke-opacity:1;stroke-miterlimit:10;" d="M 120.671875 113.894531 C 120.671875 117.625 117.648438 120.648438 113.914062 120.648438 C 110.183594 120.648438 107.160156 117.625 107.160156 113.894531 C 107.160156 110.164062 110.183594 107.136719 113.914062 107.136719 C 117.648438 107.136719 120.671875 110.164062 120.671875 113.894531 "/>
<path style="fill:none;stroke-width:0.708661;stroke-linecap:round;stroke-linejoin:round;stroke:rgb(18.431373%,30.980392%,30.980392%);stroke-opacity:1;stroke-miterlimit:10;" d="M 173.757812 144.175781 C 173.757812 147.90625 170.734375 150.929688 167 150.929688 C 163.269531 150.929688 160.246094 147.90625 160.246094 144.175781 C 160.246094 140.441406 163.269531 137.417969 167 137.417969 C 170.734375 137.417969 173.757812 140.441406 173.757812 144.175781 "/>
<path style="fill:none;stroke-width:0.708661;stroke-linecap:round;stroke-linejoin:round;stroke:rgb(18.431373%,30.980392%,30.980392%);stroke-opacity:1;stroke-miterlimit:10;" d="M 190.410156 85.84375 C 190.410156 89.574219 187.382812 92.601562 183.652344 92.601562 C 179.921875 92.601562 176.894531 89.574219 176.894531 85.84375 C 176.894531 82.113281 179.921875 79.085938 183.652344 79.085938 C 187.382812 79.085938 190.410156 82.113281 190.410156 85.84375 "/>
<path style="fill-rule:nonzero;fill:rgb(18.431373%,30.980392%,30.980392%);fill-opacity:1;stroke-width:0.708661;stroke-linecap:round;stroke-linejoin:round;stroke:rgb(18.431373%,30.980392%,30.980392%);stroke-opacity:1;stroke-miterlimit:10;" d="M 199.773438 86.53125 C 199.773438 90.265625 196.75 93.289062 193.015625 93.289062 C 189.285156 93.289062 186.261719 90.265625 186.261719 86.53125 C 186.261719 82.800781 189.285156 79.777344 193.015625 79.777344 C 196.75 79.777344 199.773438 82.800781 199.773438 86.53125 "/>
<path style="fill-rule:nonzero;fill:rgb(18.431373%,30.980392%,30.980392%);fill-opacity:1;stroke-width:0.708661;stroke-linecap:round;stroke-linejoin:round;stroke:rgb(18.431373%,30.980392%,30.980392%);stroke-opacity:1;stroke-miterlimit:10;" d="M 107.921875 164.253906 C 107.921875 167.984375 104.898438 171.011719 101.167969 171.011719 C 97.4375 171.011719 94.410156 167.984375 94.410156 164.253906 C 94.410156 160.523438 97.4375 157.496094 101.167969 157.496094 C 104.898438 157.496094 107.921875 160.523438 107.921875 164.253906 "/>
<path style="fill:none;stroke-width:0.708661;stroke-linecap:round;stroke-linejoin:round;stroke:rgb(18.431373%,30.980392%,30.980392%);stroke-opacity:1;stroke-miterlimit:10;" d="M 250.871094 14.675781 C 250.871094 18.40625 247.84375 21.429688 244.113281 21.429688 C 240.382812 21.429688 237.359375 18.40625 237.359375 14.675781 C 237.359375 10.945312 240.382812 7.917969 244.113281 7.917969 C 247.84375 7.917969 250.871094 10.945312 250.871094 14.675781 "/>
<path style="fill:none;stroke-width:0.708661;stroke-linecap:round;stroke-linejoin:round;stroke:rgb(18.431373%,30.980392%,30.980392%);stroke-opacity:1;stroke-miterlimit:10;" d="M 251.40625 64.710938 C 251.40625 68.441406 248.382812 71.464844 244.648438 71.464844 C 240.917969 71.464844 237.894531 68.441406 237.894531 64.710938 C 237.894531 60.976562 240.917969 57.953125 244.648438 57.953125 C 248.382812 57.953125 251.40625 60.976562 251.40625 64.710938 "/>
<path style="fill:none;stroke-width:0.708661;stroke-linecap:round;stroke-linejoin:round;stroke:rgb(18.431373%,30.980392%,30.980392%);stroke-opacity:1;stroke-miterlimit:10;" d="M 224.554688 69.09375 C 224.554688 72.824219 221.527344 75.847656 217.796875 75.847656 C 214.066406 75.847656 211.042969 72.824219 211.042969 69.09375 C 211.042969 65.359375 214.066406 62.335938 217.796875 62.335938 C 221.527344 62.335938 224.554688 65.359375 224.554688 69.09375 "/>
<path style="fill:none;stroke-width:0.708661;stroke-linecap:round;stroke-linejoin:round;stroke:rgb(18.431373%,30.980392%,30.980392%);stroke-opacity:1;stroke-miterlimit:10;" d="M 188.039062 115.417969 C 188.039062 119.152344 185.015625 122.175781 181.285156 122.175781 C 177.554688 122.175781 174.527344 119.152344 174.527344 115.417969 C 174.527344 111.6875 177.554688 108.664062 181.285156 108.664062 C 185.015625 108.664062 188.039062 111.6875 188.039062 115.417969 "/>
<path style="fill:none;stroke-width:0.708661;stroke-linecap:round;stroke-linejoin:round;stroke:rgb(18.431373%,30.980392%,30.980392%);stroke-opacity:1;stroke-miterlimit:10;" d="M 157.433594 102.402344 C 157.433594 106.132812 154.40625 109.15625 150.675781 109.15625 C 146.945312 109.15625 143.917969 106.132812 143.917969 102.402344 C 143.917969 98.667969 146.945312 95.644531 150.675781 95.644531 C 154.40625 95.644531 157.433594 98.667969 157.433594 102.402344 "/>
<path style="fill:none;stroke-width:0.708661;stroke-linecap:round;stroke-linejoin:round;stroke:rgb(18.431373%,30.980392%,30.980392%);stroke-opacity:1;stroke-miterlimit:10;" d="M 188.46875 88.648438 C 188.46875 92.382812 185.445312 95.40625 181.710938 95.40625 C 177.980469 95.40625 174.957031 92.382812 174.957031 88.648438 C 174.957031 84.917969 177.980469 81.894531 181.710938 81.894531 C 185.445312 81.894531 188.46875 84.917969 188.46875 88.648438 "/>
<path style="fill:none;stroke-width:0.708661;stroke-linecap:round;stroke-linejoin:round;stroke:rgb(18.431373%,30.980392%,30.980392%);stroke-opacity:1;stroke-miterlimit:10;" d="M 199.394531 72.359375 C 199.394531 76.089844 196.367188 79.117188 192.636719 79.117188 C 188.90625 79.117188 185.882812 76.089844 185.882812 72.359375 C 185.882812 68.628906 188.90625 65.605469 192.636719 65.605469 C 196.367188 65.605469 199.394531 68.628906 199.394531 72.359375 "/>
<path style="fill:none;stroke-width:0.708661;stroke-linecap:round;stroke-linejoin:round;stroke:rgb(18.431373%,30.980392%,30.980392%);stroke-opacity:1;stroke-miterlimit:10;" d="M 215.265625 116.535156 C 215.265625 120.265625 212.242188 123.289062 208.511719 123.289062 C 204.777344 123.289062 201.753906 120.265625 201.753906 116.535156 C 201.753906 112.804688 204.777344 109.777344 208.511719 109.777344 C 212.242188 109.777344 215.265625 112.804688 215.265625 116.535156 "/>
<path style="fill:none;stroke-width:0.708661;stroke-linecap:round;stroke-linejoin:round;stroke:rgb(18.431373%,30.980392%,30.980392%);stroke-opacity:1;stroke-miterlimit:10;" d="M 135.335938 114.113281 C 135.335938 117.847656 132.3125 120.871094 128.582031 120.871094 C 124.851562 120.871094 121.824219 117.847656 121.824219 114.113281 C 121.824219 110.382812 124.851562 107.359375 128.582031 107.359375 C 132.3125 107.359375 135.335938 110.382812 135.335938 114.113281 "/>
<path style="fill:none;stroke-width:0.708661;stroke-linecap:round;stroke-linejoin:round;stroke:rgb(18.431373%,30.980392%,30.980392%);stroke-opacity:1;stroke-miterlimit:10;" d="M 138.769531 128.695312 C 138.769531 132.425781 135.746094 135.453125 132.015625 135.453125 C 128.285156 135.453125 125.257812 132.425781 125.257812 128.695312 C 125.257812 124.964844 128.285156 121.9375 132.015625 121.9375 C 135.746094 121.9375 138.769531 124.964844 138.769531 128.695312 "/>
<path style="fill:none;stroke-width:0.708661;stroke-linecap:round;stroke-linejoin:round;stroke:rgb(18.431373%,30.980392%,30.980392%);stroke-opacity:1;stroke-miterlimit:10;" d="M 145.578125 130.421875 C 145.578125 134.15625 142.550781 137.179688 138.820312 137.179688 C 135.089844 137.179688 132.0625 134.15625 132.0625 130.421875 C 132.0625 126.691406 135.089844 123.667969 138.820312 123.667969 C 142.550781 123.667969 145.578125 126.691406 145.578125 130.421875 "/>
<path style="fill:none;stroke-width:0.708661;stroke-linecap:round;stroke-linejoin:round;stroke:rgb(18.431373%,30.980392%,30.980392%);stroke-opacity:1;stroke-miterlimit:10;" d="M 103.460938 111.21875 C 103.460938 114.953125 100.4375 117.976562 96.707031 117.976562 C 92.976562 117.976562 89.949219 114.953125 89.949219 111.21875 C 89.949219 107.488281 92.976562 104.464844 96.707031 104.464844 C 100.4375 104.464844 103.460938 107.488281 103.460938 111.21875 "/>
<path style="fill:none;stroke-width:0.708661;stroke-linecap:round;stroke-linejoin:round;stroke:rgb(18.431373%,30.980392%,30.980392%);stroke-opacity:1;stroke-miterlimit:10;" d="M 183.835938 65.902344 C 183.835938 69.636719 180.8125 72.660156 177.082031 72.660156 C 173.347656 72.660156 170.324219 69.636719 170.324219 65.902344 C 170.324219 62.171875 173.347656 59.148438 177.082031 59.148438 C 180.8125 59.148438 183.835938 62.171875 183.835938 65.902344 "/>
<path style="fill:none;stroke-width:0.708661;stroke-linecap:round;stroke-linejoin:round;stroke:rgb(18.431373%,30.980392%,30.980392%);stroke-opacity:1;stroke-miterlimit:10;" d="M 186.523438 104.304688 C 186.523438 108.035156 183.5 111.0625 179.765625 111.0625 C 176.035156 111.0625 173.011719 108.035156 173.011719 104.304688 C 173.011719 100.574219 176.035156 97.546875 179.765625 97.546875 C 183.5 97.546875 186.523438 100.574219 186.523438 104.304688 "/>
<path style="fill:none;stroke-width:0.708661;stroke-linecap:round;stroke-linejoin:round;stroke:rgb(18.431373%,30.980392%,30.980392%);stroke-opacity:1;stroke-miterlimit:10;" d="M 238.742188 96.878906 C 238.742188 100.613281 235.71875 103.636719 231.984375 103.636719 C 228.253906 103.636719 225.230469 100.613281 225.230469 96.878906 C 225.230469 93.148438 228.253906 90.125 231.984375 90.125 C 235.71875 90.125 238.742188 93.148438 238.742188 96.878906 "/>
<path style="fill:none;stroke-width:0.708661;stroke-linecap:round;stroke-linejoin:round;stroke:rgb(18.431373%,30.980392%,30.980392%);stroke-opacity:1;stroke-miterlimit:10;" d="M 128.59375 113.582031 C 128.59375 117.3125 125.570312 120.335938 121.839844 120.335938 C 118.105469 120.335938 115.082031 117.3125 115.082031 113.582031 C 115.082031 109.847656 118.105469 106.824219 121.839844 106.824219 C 125.570312 106.824219 128.59375 109.847656 128.59375 113.582031 "/>
<path style="fill:none;stroke-width:0.708661;stroke-linecap:round;stroke-linejoin:round;stroke:rgb(18.431373%,30.980392%,30.980392%);stroke-opacity:1;stroke-miterlimit:10;" d="M 102.3125 153.261719 C 102.3125 156.992188 99.285156 160.019531 95.554688 160.019531 C 91.824219 160.019531 88.800781 156.992188 88.800781 153.261719 C 88.800781 149.53125 91.824219 146.507812 95.554688 146.507812 C 99.285156 146.507812 102.3125 149.53125 102.3125 153.261719 "/>
<path style="fill:none;stroke-width:0.708661;stroke-linecap:round;stroke-linejoin:round;stroke:rgb(18.431373%,30.980392%,30.980392%);stroke-opacity:1;stroke-miterlimit:10;" d="M 212.605469 101.742188 C 212.605469 105.472656 209.578125 108.496094 205.847656 108.496094 C 202.117188 108.496094 199.09375 105.472656 199.09375 101.742188 C 199.09375 98.011719 202.117188 94.984375 205.847656 94.984375 C 209.578125 94.984375 212.605469 98.011719 212.605469 101.742188 "/>
<path style="fill-rule:nonzero;fill:rgb(18.431373%,30.980392%,30.980392%);fill-opacity:1;stroke-width:0.708661;stroke-linecap:round;stroke-linejoin:round;stroke:rgb(18.431373%,30.980392%,30.980392%);stroke-opacity:1;stroke-miterlimit:10;" d="M 185.992188 132.460938 C 185.992188 136.191406 182.96875 139.21875 179.234375 139.21875 C 175.503906 139.21875 172.480469 136.191406 172.480469 132.460938 C 172.480469 128.730469 175.503906 125.703125 179.234375 125.703125 C 182.96875 125.703125 185.992188 128.730469 185.992188 132.460938 "/>
<path style="fill:none;stroke-width:0.708661;stroke-linecap:round;stroke-linejoin:round;stroke:rgb(18.431373%,30.980392%,30.980392%);stroke-opacity:1;stroke-miterlimit:10;" d="M 125.210938 144.328125 C 125.210938 148.058594 122.1875 151.082031 118.453125 151.082031 C 114.722656 151.082031 111.699219 148.058594 111.699219 144.328125 C 111.699219 140.597656 114.722656 137.570312 118.453125 137.570312 C 122.1875 137.570312 125.210938 140.597656 125.210938 144.328125 "/>
<path style="fill:none;stroke-width:0.708661;stroke-linecap:round;stroke-linejoin:round;stroke:rgb(18.431373%,30.980392%,30.980392%);stroke-opacity:1;stroke-miterlimit:10;" d="M 180.203125 115.878906 C 180.203125 119.609375 177.175781 122.632812 173.445312 122.632812 C 169.714844 122.632812 166.6875 119.609375 166.6875 115.878906 C 166.6875 112.144531 169.714844 109.121094 173.445312 109.121094 C 177.175781 109.121094 180.203125 112.144531 180.203125 115.878906 "/>
<path style="fill:none;stroke-width:0.708661;stroke-linecap:round;stroke-linejoin:round;stroke:rgb(18.431373%,30.980392%,30.980392%);stroke-opacity:1;stroke-miterlimit:10;" d="M 207.878906 55.210938 C 207.878906 58.941406 204.851562 61.964844 201.121094 61.964844 C 197.390625 61.964844 194.363281 58.941406 194.363281 55.210938 C 194.363281 51.476562 197.390625 48.453125 201.121094 48.453125 C 204.851562 48.453125 207.878906 51.476562 207.878906 55.210938 "/>
<path style="fill:none;stroke-width:0.708661;stroke-linecap:round;stroke-linejoin:round;stroke:rgb(18.431373%,30.980392%,30.980392%);stroke-opacity:1;stroke-miterlimit:10;" d="M 128.539062 79.785156 C 128.539062 83.515625 125.515625 86.542969 121.785156 86.542969 C 118.050781 86.542969 115.027344 83.515625 115.027344 79.785156 C 115.027344 76.054688 118.050781 73.027344 121.785156 73.027344 C 125.515625 73.027344 128.539062 76.054688 128.539062 79.785156 "/>
<path style="fill:none;stroke-width:0.708661;stroke-linecap:round;stroke-linejoin:round;stroke:rgb(18.431373%,30.980392%,30.980392%);stroke-opacity:1;stroke-miterlimit:10;" d="M 229.746094 81.183594 C 229.746094 84.917969 226.722656 87.941406 222.992188 87.941406 C 219.257812 87.941406 216.234375 84.917969 216.234375 81.183594 C 216.234375 77.453125 219.257812 74.429688 222.992188 74.429688 C 226.722656 74.429688 229.746094 77.453125 229.746094 81.183594 "/>
<path style="fill:none;stroke-width:0.708661;stroke-linecap:round;stroke-linejoin:round;stroke:rgb(18.431373%,30.980392%,30.980392%);stroke-opacity:1;stroke-miterlimit:10;" d="M 172.125 116.214844 C 172.125 119.945312 169.101562 122.96875 165.371094 122.96875 C 161.636719 122.96875 158.613281 119.945312 158.613281 116.214844 C 158.613281 112.480469 161.636719 109.457031 165.371094 109.457031 C 169.101562 109.457031 172.125 112.480469 172.125 116.214844 "/>
<path style="fill:none;stroke-width:0.708661;stroke-linecap:round;stroke-linejoin:round;stroke:rgb(18.431373%,30.980392%,30.980392%);stroke-opacity:1;stroke-miterlimit:10;" d="M 33.507812 182.050781 C 33.507812 185.78125 30.484375 188.808594 26.753906 188.808594 C 23.023438 188.808594 19.996094 185.78125 19.996094 182.050781 C 19.996094 178.320312 23.023438 175.296875 26.753906 175.296875 C 30.484375 175.296875 33.507812 178.320312 33.507812 182.050781 "/>
<path style="fill:none;stroke-width:0.708661;stroke-linecap:round;stroke-linejoin:round;stroke:rgb(18.431373%,30.980392%,30.980392%);stroke-opacity:1;stroke-miterlimit:10;" d="M 45.433594 176.058594 C 45.433594 179.789062 42.410156 182.816406 38.675781 182.816406 C 34.945312 182.816406 31.921875 179.789062 31.921875 176.058594 C 31.921875 172.328125 34.945312 169.300781 38.675781 169.300781 C 42.410156 169.300781 45.433594 172.328125 45.433594 176.058594 "/>
<path style="fill:none;stroke-width:0.708661;stroke-linecap:round;stroke-linejoin:round;stroke:rgb(18.431373%,30.980392%,30.980392%);stroke-opacity:1;stroke-miterlimit:10;" d="M 175.683594 86.960938 C 175.683594 90.691406 172.65625 93.71875 168.925781 93.71875 C 165.195312 93.71875 162.171875 90.691406 162.171875 86.960938 C 162.171875 83.230469 165.195312 80.203125 168.925781 80.203125 C 172.65625 80.203125 175.683594 83.230469 175.683594 86.960938 "/>
<path style="fill:none;stroke-width:0.708661;stroke-linecap:round;stroke-linejoin:round;stroke:rgb(18.431373%,30.980392%,30.980392%);stroke-opacity:1;stroke-miterlimit:10;" d="M 123.277344 96.003906 C 123.277344 99.738281 120.25 102.761719 116.519531 102.761719 C 112.789062 102.761719 109.761719 99.738281 109.761719 96.003906 C 109.761719 92.273438 112.789062 89.25 116.519531 89.25 C 120.25 89.25 123.277344 92.273438 123.277344 96.003906 "/>
<path style="fill:none;stroke-width:0.708661;stroke-linecap:round;stroke-linejoin:round;stroke:rgb(18.431373%,30.980392%,30.980392%);stroke-opacity:1;stroke-miterlimit:10;" d="M 138.304688 132.148438 C 138.304688 135.878906 135.28125 138.902344 131.546875 138.902344 C 127.816406 138.902344 124.792969 135.878906 124.792969 132.148438 C 124.792969 128.417969 127.816406 125.390625 131.546875 125.390625 C 135.28125 125.390625 138.304688 128.417969 138.304688 132.148438 "/>
<path style="fill:none;stroke-width:0.708661;stroke-linecap:round;stroke-linejoin:round;stroke:rgb(18.431373%,30.980392%,30.980392%);stroke-opacity:1;stroke-miterlimit:10;" d="M 165.253906 74.894531 C 165.253906 78.628906 162.226562 81.652344 158.496094 81.652344 C 154.765625 81.652344 151.738281 78.628906 151.738281 74.894531 C 151.738281 71.164062 154.765625 68.140625 158.496094 68.140625 C 162.226562 68.140625 165.253906 71.164062 165.253906 74.894531 "/>
<path style="fill:none;stroke-width:0.708661;stroke-linecap:round;stroke-linejoin:round;stroke:rgb(18.431373%,30.980392%,30.980392%);stroke-opacity:1;stroke-miterlimit:10;" d="M 152.460938 114.203125 C 152.460938 117.9375 149.4375 120.960938 145.707031 120.960938 C 141.972656 120.960938 138.949219 117.9375 138.949219 114.203125 C 138.949219 110.472656 141.972656 107.449219 145.707031 107.449219 C 149.4375 107.449219 152.460938 110.472656 152.460938 114.203125 "/>
<path style="fill:none;stroke-width:0.708661;stroke-linecap:round;stroke-linejoin:round;stroke:rgb(18.431373%,30.980392%,30.980392%);stroke-opacity:1;stroke-miterlimit:10;" d="M 119.570312 163.136719 C 119.570312 166.871094 116.542969 169.894531 112.8125 169.894531 C 109.082031 169.894531 106.058594 166.871094 106.058594 163.136719 C 106.058594 159.40625 109.082031 156.382812 112.8125 156.382812 C 116.542969 156.382812 119.570312 159.40625 119.570312 163.136719 "/>
<path style="fill-rule:nonzero;fill:rgb(18.431373%,30.980392%,30.980392%);fill-opacity:1;stroke-width:0.708661;stroke-linecap:round;stroke-linejoin:round;stroke:rgb(18.431373%,30.980392%,30.980392%);stroke-opacity:1;stroke-miterlimit:10;" d="M 105.214844 135.265625 C 105.214844 138.996094 102.1875 142.019531 98.457031 142.019531 C 94.726562 142.019531 91.699219 138.996094 91.699219 135.265625 C 91.699219 131.535156 94.726562 128.507812 98.457031 128.507812 C 102.1875 128.507812 105.214844 131.535156 105.214844 135.265625 "/>
<path style="fill:none;stroke-width:0.708661;stroke-linecap:round;stroke-linejoin:round;stroke:rgb(18.431373%,30.980392%,30.980392%);stroke-opacity:1;stroke-miterlimit:10;" d="M 141.796875 110.59375 C 141.796875 114.324219 138.773438 117.347656 135.042969 117.347656 C 131.3125 117.347656 128.285156 114.324219 128.285156 110.59375 C 128.285156 106.859375 131.3125 103.835938 135.042969 103.835938 C 138.773438 103.835938 141.796875 106.859375 141.796875 110.59375 "/>
<path style="fill:none;stroke-width:0.708661;stroke-linecap:round;stroke-linejoin:round;stroke:rgb(18.431373%,30.980392%,30.980392%);stroke-opacity:1;stroke-miterlimit:10;" d="M 248.707031 99.410156 C 248.707031 103.140625 245.683594 106.164062 241.953125 106.164062 C 238.21875 106.164062 235.195312 103.140625 235.195312 99.410156 C 235.195312 95.679688 238.21875 92.652344 241.953125 92.652344 C 245.683594 92.652344 248.707031 95.679688 248.707031 99.410156 "/>
<path style="fill:none;stroke-width:0.708661;stroke-linecap:round;stroke-linejoin:round;stroke:rgb(18.431373%,30.980392%,30.980392%);stroke-opacity:1;stroke-miterlimit:10;" d="M 227.15625 103.804688 C 227.15625 107.535156 224.128906 110.5625 220.398438 110.5625 C 216.667969 110.5625 213.640625 107.535156 213.640625 103.804688 C 213.640625 100.074219 216.667969 97.050781 220.398438 97.050781 C 224.128906 97.050781 227.15625 100.074219 227.15625 103.804688 "/>
<path style="fill:none;stroke-width:0.708661;stroke-linecap:round;stroke-linejoin:round;stroke:rgb(18.431373%,30.980392%,30.980392%);stroke-opacity:1;stroke-miterlimit:10;" d="M 155.496094 79.730469 C 155.496094 83.464844 152.472656 86.488281 148.738281 86.488281 C 145.007812 86.488281 141.984375 83.464844 141.984375 79.730469 C 141.984375 76 145.007812 72.976562 148.738281 72.976562 C 152.472656 72.976562 155.496094 76 155.496094 79.730469 "/>
<path style="fill:none;stroke-width:0.708661;stroke-linecap:round;stroke-linejoin:round;stroke:rgb(18.431373%,30.980392%,30.980392%);stroke-opacity:1;stroke-miterlimit:10;" d="M 141.339844 83.128906 C 141.339844 86.859375 138.3125 89.886719 134.582031 89.886719 C 130.851562 89.886719 127.824219 86.859375 127.824219 83.128906 C 127.824219 79.398438 130.851562 76.375 134.582031 76.375 C 138.3125 76.375 141.339844 79.398438 141.339844 83.128906 "/>
<path style="fill:none;stroke-width:0.708661;stroke-linecap:round;stroke-linejoin:round;stroke:rgb(18.431373%,30.980392%,30.980392%);stroke-opacity:1;stroke-miterlimit:10;" d="M 59.527344 95.738281 C 59.527344 99.46875 56.503906 102.496094 52.773438 102.496094 C 49.039062 102.496094 46.015625 99.46875 46.015625 95.738281 C 46.015625 92.007812 49.039062 88.980469 52.773438 88.980469 C 56.503906 88.980469 59.527344 92.007812 59.527344 95.738281 "/>
<path style="fill:none;stroke-width:0.708661;stroke-linecap:round;stroke-linejoin:round;stroke:rgb(18.431373%,30.980392%,30.980392%);stroke-opacity:1;stroke-miterlimit:10;" d="M 145.722656 146.550781 C 145.722656 150.28125 142.695312 153.304688 138.964844 153.304688 C 135.234375 153.304688 132.207031 150.28125 132.207031 146.550781 C 132.207031 142.820312 135.234375 139.792969 138.964844 139.792969 C 142.695312 139.792969 145.722656 142.820312 145.722656 146.550781 "/>
<path style="fill:none;stroke-width:0.708661;stroke-linecap:round;stroke-linejoin:round;stroke:rgb(18.431373%,30.980392%,30.980392%);stroke-opacity:1;stroke-miterlimit:10;" d="M 186.296875 99.820312 C 186.296875 103.550781 183.273438 106.578125 179.542969 106.578125 C 175.808594 106.578125 172.785156 103.550781 172.785156 99.820312 C 172.785156 96.089844 175.808594 93.066406 179.542969 93.066406 C 183.273438 93.066406 186.296875 96.089844 186.296875 99.820312 "/>
<path style="fill:none;stroke-width:0.708661;stroke-linecap:round;stroke-linejoin:round;stroke:rgb(18.431373%,30.980392%,30.980392%);stroke-opacity:1;stroke-miterlimit:10;" d="M 89.59375 113.339844 C 89.59375 117.074219 86.570312 120.097656 82.835938 120.097656 C 79.105469 120.097656 76.082031 117.074219 76.082031 113.339844 C 76.082031 109.609375 79.105469 106.585938 82.835938 106.585938 C 86.570312 106.585938 89.59375 109.609375 89.59375 113.339844 "/>
<path style="fill-rule:nonzero;fill:rgb(18.431373%,30.980392%,30.980392%);fill-opacity:1;stroke-width:0.708661;stroke-linecap:round;stroke-linejoin:round;stroke:rgb(18.431373%,30.980392%,30.980392%);stroke-opacity:1;stroke-miterlimit:10;" d="M 195.304688 72.878906 C 195.304688 76.609375 192.28125 79.636719 188.550781 79.636719 C 184.816406 79.636719 181.792969 76.609375 181.792969 72.878906 C 181.792969 69.148438 184.816406 66.121094 188.550781 66.121094 C 192.28125 66.121094 195.304688 69.148438 195.304688 72.878906 "/>
<path style="fill-rule:nonzero;fill:rgb(18.431373%,30.980392%,30.980392%);fill-opacity:1;stroke-width:0.708661;stroke-linecap:round;stroke-linejoin:round;stroke:rgb(18.431373%,30.980392%,30.980392%);stroke-opacity:1;stroke-miterlimit:10;" d="M 198.394531 98.726562 C 198.394531 102.457031 195.367188 105.480469 191.636719 105.480469 C 187.90625 105.480469 184.882812 102.457031 184.882812 98.726562 C 184.882812 94.996094 187.90625 91.96875 191.636719 91.96875 C 195.367188 91.96875 198.394531 94.996094 198.394531 98.726562 "/>
<path style="fill:none;stroke-width:0.708661;stroke-linecap:round;stroke-linejoin:round;stroke:rgb(18.431373%,30.980392%,30.980392%);stroke-opacity:1;stroke-miterlimit:10;" d="M 92.757812 90.542969 C 92.757812 94.273438 89.734375 97.296875 86 97.296875 C 82.269531 97.296875 79.246094 94.273438 79.246094 90.542969 C 79.246094 86.8125 82.269531 83.785156 86 83.785156 C 89.734375 83.785156 92.757812 86.8125 92.757812 90.542969 "/>
<path style="fill:none;stroke-width:0.708661;stroke-linecap:round;stroke-linejoin:round;stroke:rgb(18.431373%,30.980392%,30.980392%);stroke-opacity:1;stroke-miterlimit:10;" d="M 209.953125 18.507812 C 209.953125 22.238281 206.925781 25.261719 203.195312 25.261719 C 199.464844 25.261719 196.441406 22.238281 196.441406 18.507812 C 196.441406 14.773438 199.464844 11.75 203.195312 11.75 C 206.925781 11.75 209.953125 14.773438 209.953125 18.507812 "/>
<path style="fill:none;stroke-width:0.708661;stroke-linecap:round;stroke-linejoin:round;stroke:rgb(18.431373%,30.980392%,30.980392%);stroke-opacity:1;stroke-miterlimit:10;" d="M 134.972656 120.820312 C 134.972656 124.550781 131.945312 127.574219 128.214844 127.574219 C 124.484375 127.574219 121.457031 124.550781 121.457031 120.820312 C 121.457031 117.089844 124.484375 114.0625 128.214844 114.0625 C 131.945312 114.0625 134.972656 117.089844 134.972656 120.820312 "/>
<path style="fill:none;stroke-width:0.708661;stroke-linecap:round;stroke-linejoin:round;stroke:rgb(18.431373%,30.980392%,30.980392%);stroke-opacity:1;stroke-miterlimit:10;" d="M 126.777344 154.769531 C 126.777344 158.5 123.75 161.527344 120.019531 161.527344 C 116.289062 161.527344 113.261719 158.5 113.261719 154.769531 C 113.261719 151.039062 116.289062 148.015625 120.019531 148.015625 C 123.75 148.015625 126.777344 151.039062 126.777344 154.769531 "/>
<path style="fill:none;stroke-width:0.708661;stroke-linecap:round;stroke-linejoin:round;stroke:rgb(18.431373%,30.980392%,30.980392%);stroke-opacity:1;stroke-miterlimit:10;" d="M 198.699219 93.746094 C 198.699219 97.480469 195.675781 100.503906 191.945312 100.503906 C 188.210938 100.503906 185.1875 97.480469 185.1875 93.746094 C 185.1875 90.015625 188.210938 86.992188 191.945312 86.992188 C 195.675781 86.992188 198.699219 90.015625 198.699219 93.746094 "/>
<path style="fill:none;stroke-width:0.708661;stroke-linecap:round;stroke-linejoin:round;stroke:rgb(18.431373%,30.980392%,30.980392%);stroke-opacity:1;stroke-miterlimit:10;" d="M 171.9375 151.476562 C 171.9375 155.207031 168.914062 158.230469 165.179688 158.230469 C 161.449219 158.230469 158.425781 155.207031 158.425781 151.476562 C 158.425781 147.746094 161.449219 144.71875 165.179688 144.71875 C 168.914062 144.71875 171.9375 147.746094 171.9375 151.476562 "/>
<path style="fill:none;stroke-width:0.708661;stroke-linecap:round;stroke-linejoin:round;stroke:rgb(18.431373%,30.980392%,30.980392%);stroke-opacity:1;stroke-miterlimit:10;" d="M 131.726562 98.574219 C 131.726562 102.308594 128.699219 105.332031 124.96875 105.332031 C 121.238281 105.332031 118.214844 102.308594 118.214844 98.574219 C 118.214844 94.84375 121.238281 91.820312 124.96875 91.820312 C 128.699219 91.820312 131.726562 94.84375 131.726562 98.574219 "/>
<path style="fill:none;stroke-width:0.708661;stroke-linecap:round;stroke-linejoin:round;stroke:rgb(18.431373%,30.980392%,30.980392%);stroke-opacity:1;stroke-miterlimit:10;" d="M 88.289062 166.613281 C 88.289062 170.34375 85.265625 173.367188 81.535156 173.367188 C 77.804688 173.367188 74.777344 170.34375 74.777344 166.613281 C 74.777344 162.882812 77.804688 159.855469 81.535156 159.855469 C 85.265625 159.855469 88.289062 162.882812 88.289062 166.613281 "/>
<path style="fill:none;stroke-width:0.708661;stroke-linecap:round;stroke-linejoin:round;stroke:rgb(18.431373%,30.980392%,30.980392%);stroke-opacity:1;stroke-miterlimit:10;" d="M 201.671875 68.164062 C 201.671875 71.894531 198.644531 74.917969 194.914062 74.917969 C 191.183594 74.917969 188.160156 71.894531 188.160156 68.164062 C 188.160156 64.429688 191.183594 61.40625 194.914062 61.40625 C 198.644531 61.40625 201.671875 64.429688 201.671875 68.164062 "/>
<path style="fill:none;stroke-width:0.708661;stroke-linecap:round;stroke-linejoin:round;stroke:rgb(18.431373%,30.980392%,30.980392%);stroke-opacity:1;stroke-miterlimit:10;" d="M 93.105469 144.125 C 93.105469 147.855469 90.082031 150.878906 86.347656 150.878906 C 82.617188 150.878906 79.59375 147.855469 79.59375 144.125 C 79.59375 140.390625 82.617188 137.367188 86.347656 137.367188 C 90.082031 137.367188 93.105469 140.390625 93.105469 144.125 "/>
<path style="fill:none;stroke-width:0.708661;stroke-linecap:round;stroke-linejoin:round;stroke:rgb(18.431373%,30.980392%,30.980392%);stroke-opacity:1;stroke-miterlimit:10;" d="M 50.40625 151.949219 C 50.40625 155.679688 47.382812 158.707031 43.652344 158.707031 C 39.917969 158.707031 36.894531 155.679688 36.894531 151.949219 C 36.894531 148.21875 39.917969 145.195312 43.652344 145.195312 C 47.382812 145.195312 50.40625 148.21875 50.40625 151.949219 "/>
<path style="fill:none;stroke-width:0.708661;stroke-linecap:round;stroke-linejoin:round;stroke:rgb(18.431373%,30.980392%,30.980392%);stroke-opacity:1;stroke-miterlimit:10;" d="M 203.628906 118.402344 C 203.628906 122.132812 200.605469 125.160156 196.875 125.160156 C 193.140625 125.160156 190.117188 122.132812 190.117188 118.402344 C 190.117188 114.671875 193.140625 111.648438 196.875 111.648438 C 200.605469 111.648438 203.628906 114.671875 203.628906 118.402344 "/>
<path style="fill:none;stroke-width:0.708661;stroke-linecap:round;stroke-linejoin:round;stroke:rgb(18.431373%,30.980392%,30.980392%);stroke-opacity:1;stroke-miterlimit:10;" d="M 198.191406 84.042969 C 198.191406 87.777344 195.167969 90.800781 191.433594 90.800781 C 187.703125 90.800781 184.679688 87.777344 184.679688 84.042969 C 184.679688 80.3125 187.703125 77.289062 191.433594 77.289062 C 195.167969 77.289062 198.191406 80.3125 198.191406 84.042969 "/>
<path style="fill:none;stroke-width:0.708661;stroke-linecap:round;stroke-linejoin:round;stroke:rgb(18.431373%,30.980392%,30.980392%);stroke-opacity:1;stroke-miterlimit:10;" d="M 182.367188 108.167969 C 182.367188 111.898438 179.34375 114.921875 175.613281 114.921875 C 171.878906 114.921875 168.855469 111.898438 168.855469 108.167969 C 168.855469 104.4375 171.878906 101.410156 175.613281 101.410156 C 179.34375 101.410156 182.367188 104.4375 182.367188 108.167969 "/>
<path style="fill:none;stroke-width:0.708661;stroke-linecap:round;stroke-linejoin:round;stroke:rgb(18.431373%,30.980392%,30.980392%);stroke-opacity:1;stroke-miterlimit:10;" d="M 27.445312 165.714844 C 27.445312 169.449219 24.417969 172.472656 20.6875 172.472656 C 16.957031 172.472656 13.929688 169.449219 13.929688 165.714844 C 13.929688 161.984375 16.957031 158.960938 20.6875 158.960938 C 24.417969 158.960938 27.445312 161.984375 27.445312 165.714844 "/>
<path style="fill:none;stroke-width:0.708661;stroke-linecap:round;stroke-linejoin:round;stroke:rgb(18.431373%,30.980392%,30.980392%);stroke-opacity:1;stroke-miterlimit:10;" d="M 137.203125 119.660156 C 137.203125 123.394531 134.179688 126.417969 130.449219 126.417969 C 126.71875 126.417969 123.691406 123.394531 123.691406 119.660156 C 123.691406 115.929688 126.71875 112.90625 130.449219 112.90625 C 134.179688 112.90625 137.203125 115.929688 137.203125 119.660156 "/>
<path style="fill:none;stroke-width:0.708661;stroke-linecap:round;stroke-linejoin:round;stroke:rgb(18.431373%,30.980392%,30.980392%);stroke-opacity:1;stroke-miterlimit:10;" d="M 156.371094 80.277344 C 156.371094 84.011719 153.347656 87.035156 149.617188 87.035156 C 145.882812 87.035156 142.859375 84.011719 142.859375 80.277344 C 142.859375 76.546875 145.882812 73.523438 149.617188 73.523438 C 153.347656 73.523438 156.371094 76.546875 156.371094 80.277344 "/>
<path style="fill-rule:nonzero;fill:rgb(18.431373%,30.980392%,30.980392%);fill-opacity:1;stroke-width:0.708661;stroke-linecap:round;stroke-linejoin:round;stroke:rgb(18.431373%,30.980392%,30.980392%);stroke-opacity:1;stroke-miterlimit:10;" d="M 215.71875 119.207031 C 215.71875 122.9375 212.695312 125.964844 208.964844 125.964844 C 205.230469 125.964844 202.207031 122.9375 202.207031 119.207031 C 202.207031 115.476562 205.230469 112.449219 208.964844 112.449219 C 212.695312 112.449219 215.71875 115.476562 215.71875 119.207031 "/>
<path style="fill-rule:nonzero;fill:rgb(18.431373%,30.980392%,30.980392%);fill-opacity:1;stroke-width:0.708661;stroke-linecap:round;stroke-linejoin:round;stroke:rgb(18.431373%,30.980392%,30.980392%);stroke-opacity:1;stroke-miterlimit:10;" d="M 168.105469 107.527344 C 168.105469 111.257812 165.082031 114.285156 161.347656 114.285156 C 157.617188 114.285156 154.59375 111.257812 154.59375 107.527344 C 154.59375 103.796875 157.617188 100.773438 161.347656 100.773438 C 165.082031 100.773438 168.105469 103.796875 168.105469 107.527344 "/>
<path style="fill:none;stroke-width:0.708661;stroke-linecap:round;stroke-linejoin:round;stroke:rgb(18.431373%,30.980392%,30.980392%);stroke-opacity:1;stroke-miterlimit:10;" d="M 83.8125 141.191406 C 83.8125 144.921875 80.789062 147.945312 77.054688 147.945312 C 73.324219 147.945312 70.300781 144.921875 70.300781 141.191406 C 70.300781 137.457031 73.324219 134.433594 77.054688 134.433594 C 80.789062 134.433594 83.8125 137.457031 83.8125 141.191406 "/>
<g clip-path="url(#clip3)" clip-rule="nonzero">
<path style="fill:none;stroke-width:4.267913;stroke-linecap:butt;stroke-linejoin:round;stroke:rgb(0%,0%,0%);stroke-opacity:1;stroke-dasharray:17.071654,17.071654;stroke-miterlimit:10;" d="M 8.21875 206.167969 L 282.519531 50.644531 "/>
</g>
</g>
</svg>
